SplineFontDB: 3.0
FontName: Experiment-Sinhala-Bold
FullName: Experiment-Sinhala
FamilyName: Experiment-Sinhala
Weight: Bold
Copyright: Copyright (c) 2015, Pathum Egodawatta
UComments: "2015-9-29: Created with FontForge (http://fontforge.org)"
Version: 0.001
ItalicAngle: 0
UnderlinePosition: -99
UnderlineWidth: 49
Ascent: 750
Descent: 250
InvalidEm: 0
<<<<<<< HEAD
LayerCount: 2
Layer: 0 0 "Back" 1
Layer: 1 0 "Fore" 0
=======
LayerCount: 3
Layer: 0 0 "Back" 1
Layer: 1 0 "Fore" 0
Layer: 2 0 "stencil" 1
>>>>>>> 9091ca3d42bc76a5da6ebc1602c27821778b9009
PreferredKerning: 4
XUID: [1021 779 -1439063335 14876943]
FSType: 0
OS2Version: 0
OS2_WeightWidthSlopeOnly: 0
OS2_UseTypoMetrics: 1
CreationTime: 1443542790
<<<<<<< HEAD
ModificationTime: 1462839262
=======
ModificationTime: 1462531197
>>>>>>> 9091ca3d42bc76a5da6ebc1602c27821778b9009
PfmFamily: 17
TTFWeight: 400
TTFWidth: 5
LineGap: 122
VLineGap: 0
OS2TypoAscent: 879
OS2TypoAOffset: 0
OS2TypoDescent: -250
OS2TypoDOffset: 0
OS2TypoLinegap: 122
OS2WinAscent: 879
OS2WinAOffset: 0
OS2WinDescent: 49
OS2WinDOffset: 0
HheadAscent: 779
HheadAOffset: 0
HheadDescent: -27
HheadDOffset: 0
OS2Vendor: 'PfEd'
Lookup: 4 0 0 "'abvs' Above Base Substitutions in Sinhala lookup 0" { "'abvs' Above Base Substitutions in Sinhala lookup 0-1"  "'abvs' Above Base Substitutions in Sinhala lookup 0-2"  } ['abvs' ('DFLT' <'dflt' > 'sinh' <'dflt' > ) ]
Lookup: 4 0 0 "si_akhands" { "si_akhands subtable"  } ['akhn' ('sinh' <'dflt' > ) ]
Lookup: 4 0 0 "si_reph" { "si_reph subtable"  } ['rphf' ('sinh' <'dflt' > ) ]
Lookup: 4 0 0 "si_halant_1" { "si_halant_1 subtable"  } ['abvs' ('sinh' <'dflt' > ) ]
Lookup: 4 0 0 "si_halant_2" { "si_halant_2 subtable"  } ['abvs' ('sinh' <'dflt' > ) ]
Lookup: 4 0 0 "si_halant_3" { "si_halant_3 subtable"  } ['abvs' ('sinh' <'dflt' > ) ]
Lookup: 4 0 0 "si_abvs_1" { "si_abvs_1 subtable"  } ['abvs' ('sinh' <'dflt' > ) ]
Lookup: 4 0 0 "si_abvs_2" { "si_abvs_2 subtable"  } ['abvs' ('sinh' <'dflt' > ) ]

StartChar: si_Tta
Encoding: 34 3495 0
GlifName: si_T_ta
<<<<<<< HEAD
Width: 831
VWidth: -14
Flags: HMW
LayerCount: 2
Back
SplineSet
55 220 m 0
 55 370 175 447 290 447 c 0
 347 447 384 428 384 428 c 1
 386 412 375 389 370 383 c 1
 347 393 319 399 290 399 c 0
 206 399 126 340 126 244 c 0
 126 142 231 67 395 67 c 0
 604 67 686 215 692 372 c 0
 699 558 597 702 371 702 c 4
 238 702 160 634 157 634 c 1
 145 642 133 669 142 699 c 1
 193 736 282 764 375 764 c 0
 602 764 763 605 757 365 c 0
 751 129 617 -35 388 -35 c 0
 176 -35 55 74 55 220 c 0
EndSplineSet
Fore
SplineSet
45.3779296875 208.700195312 m 0
 45.3779296875 380.548828125 174.142578125 464.134765625 287.758789062 464.134765625 c 0
 351.10546875 464.134765625 391.442382812 445 391.442382812 445 c 1
 394.307617188 426.606445312 380.022460938 378.985351562 374.442382812 372 c 1
 348.921875 382.475585938 316.544921875 388.37890625 284.046875 388.37890625 c 0
 219.116210938 388.37890625 165.431640625 346.90234375 165.431640625 265.116210938 c 0
 165.431640625 171.670898438 260.809570312 108.282226562 385.809570312 108.994140625 c 0
 581.75390625 110.075195312 658.61328125 241.611328125 660.928710938 389.05859375 c 0
 664.076171875 578.90234375 555.48828125 655.951171875 399.067382812 658.029296875 c 0
 277.700195312 659.529296875 175.422851562 589 172.442382812 589 c 1
 148.698242188 610.091796875 140.153320312 657.028320312 142.442382812 694 c 1
 194.088867188 736.603515625 285.588867188 768.004882812 380.483398438 768.004882812 c 0
 613.229492188 768.004882812 791.9296875 602.139648438 785.581054688 352 c 0
 779.311523438 109.025358434 639.587890625 -53.021484375 393.291992188 -53.021484375 c 4
 183.27734375 -53.021484375 45.3779296875 54.6541671569 45.3779296875 208.700195312 c 0
=======
Width: 791
VWidth: -14
Flags: HMW
LayerCount: 3
Back
SplineSet
45.3779296875 189.700195312 m 0
 45.3779296875 339.439453125 165.736328125 417.134765625 280.758789062 417.134765625 c 0
 337.99609375 417.134765625 374.442382812 398 374.442382812 398 c 1
 376.801757812 381.622070312 365.038085938 359.219726562 360.442382812 353 c 1
 337.745117188 363.475585938 308.950195312 369.37890625 280.046875 369.37890625 c 0
 195.95703125 369.37890625 116.431640625 310.5 116.431640625 214.116210938 c 4
 116.431640625 111.692382812 214.831054688 42.994140625 378.809570312 42.994140625 c 0
 587.463867188 42.994140625 664.987304688 184.725585938 670.928710938 342.05859375 c 0
 678.041015625 527.848632812 579.948242188 676.029296875 354.067382812 676.029296875 c 0
 221.086914062 676.029296875 143.41015625 604 140.442382812 604 c 1
 128.0703125 612.104492188 116.297851562 638.651367188 125.442382812 669 c 1
 176.00390625 706.421875 265.581054688 734.004882812 358.483398438 734.004882812 c 0
 585.213867188 734.004882812 742.506835938 574.91796875 736.581054688 335 c 0
 730.743164062 98.6240234375 600.635742188 -59.021484375 371.291992188 -59.021484375 c 0
 158.866210938 -59.021484375 45.3779296875 43.3056640625 45.3779296875 189.700195312 c 0
EndSplineSet
Fore
SplineSet
33.3779296875 191.700195312 m 0
 33.3779296875 356.821289062 164.798828125 437.134765625 280.758789062 437.134765625 c 0
 344.10546875 437.134765625 384.442382812 418 384.442382812 418 c 1
 387.307617188 397.086914062 373.022460938 342.942382812 367.442382812 335 c 1
 341.921875 345.475585938 309.544921875 351.37890625 277.046875 351.37890625 c 0
 209.37890625 351.37890625 153.431640625 313.267578125 153.431640625 238.116210938 c 0
 153.431640625 151.254882812 248.809570312 92.33203125 373.809570312 92.994140625 c 0
 556.93359375 93.994140625 628.616210938 215.669921875 630.928710938 352.05859375 c 0
 634.340820312 506.139648438 557.939453125 622.919921875 347.067382812 625.029296875 c 4
 247.119140625 625.934570312 162.896484375 572 160.442382812 572 c 5
 136.698242188 593.091796875 128.153320312 640.028320312 130.442382812 677 c 5
 177.75 713.846679688 261.561523438 741.004882812 348.483398438 741.004882812 c 4
 577.208007812 741.004882812 752.8203125 579.126953125 746.581054688 335 c 0
 740.743164062 98.6240234375 610.635742188 -59.021484375 381.291992188 -59.021484375 c 0
 171.27734375 -59.021484375 33.3779296875 44.12890625 33.3779296875 191.700195312 c 0
>>>>>>> 9091ca3d42bc76a5da6ebc1602c27821778b9009
EndSplineSet
EndChar

StartChar: si_Pa
Encoding: 46 3508 1
GlifName: si_P_a
<<<<<<< HEAD
Width: 818
VWidth: 6
Flags: HMWO
LayerCount: 2
Back
SplineSet
35 207 m 0
 35 365 184.737051793 427 296 427 c 0
 305 427 313 427 321 426 c 1
 297 387 l 1
 303 404 314 423 314 446 c 0
 314 503 265 536 210 536 c 0
 199 536 187 535 176 532 c 1
 209 553 l 1
 154 451 l 1
 114 453 88 476 88 510 c 0
 88 562 147 599 207 599 c 0
 281 599 351 557 351 473 c 0
 351 439 345 409 337 375 c 1
 323 377 309 378 296 378 c 0
 188.301675978 378 107 315 107 238 c 0
 107 152.035087719 191.971014493 64.0233918129 393 63 c 0
 609.85106383 61.978021978 705 156 705 249 c 0
 705 342 606.707602339 379 514 379 c 0
 498 379 482 378 467 375 c 1
 487 415 l 1
 509 420 530 422 550 422 c 0
 675.343283582 422 771 351 771 230 c 0
 771 57.3745173745 585.467422096 -33 388 -33 c 0
 189.373177843 -33 35 59.5423728814 35 207 c 0
452 468 m 0
 453 554 528 599 595 598 c 0
 674 597 730 552 730 476 c 0
 730 387.464 636 357 636 357 c 5
 620 374 l 5
 651.918367347 393.615384615 666 428.175824176 666 459 c 0
 666 505 632 536 573 536 c 0
 524 536 487 504 487 460 c 0
 487 408 512 393 512 393 c 1
 467 375 l 1
 459 400 452 426 452 468 c 0
EndSplineSet
Fore
SplineSet
35 207 m 0
 35 365 184.737051793 427 296 427 c 0
 305 427 313 427 321 426 c 1
 297 387 l 1
 303 404 314 423 314 446 c 0
 314 503 265 536 210 536 c 0
 199 536 187 535 176 532 c 1
 209 553 l 1
 154 451 l 1
 114 453 88 476 88 510 c 0
 88 562 147 599 207 599 c 0
 281 599 351 557 351 473 c 0
 351 439 345 409 337 375 c 1
 323 377 309 378 296 378 c 0
 188.301675978 378 107 315 107 238 c 0
 107 152.035087719 191.971014493 64.0233918129 393 63 c 0
 609.85106383 61.978021978 705 156 705 249 c 0
 705 342 606.707602339 379 514 379 c 0
 498 379 482 378 467 375 c 1
 487 415 l 1
 509 420 530 422 550 422 c 0
 675.343283582 422 771 351 771 230 c 0
 771 57.3745173745 585.467422096 -33 388 -33 c 0
 189.373177843 -33 35 59.5423728814 35 207 c 0
452 468 m 0
 453 554 528 599 595 598 c 0
 674 597 730 552 730 476 c 0
 730 387.464 636 357 636 357 c 5
 620 374 l 5
 651.918367347 393.615384615 666 428.175824176 666 459 c 0
 666 505 632 536 573 536 c 0
 524 536 487 504 487 460 c 0
 487 408 512 393 512 393 c 1
 467 375 l 1
 459 400 452 426 452 468 c 0
=======
Width: 788
VWidth: -24
Flags: HMW
LayerCount: 3
Back
SplineSet
207.01953125 569 m 0
 280.920898438 569 351.127929688 527.0234375 351.127929688 442.978515625 c 0
 351.127929688 409.3046875 345.36328125 379.30078125 337.01953125 345 c 1
 322.7265625 347.275390625 308.912109375 348.356445312 295.654296875 348.356445312 c 0
 193.576171875 348.356445312 117.010742188 284.40234375 117.010742188 207.518554688 c 0
 117.010742188 123.084960938 199.097655916 37.9911454971 393.01953125 37 c 0
 588.673828125 36 675.0390625 127.10546875 675.0390625 218.502929688 c 0
 675.0390625 311.252929688 587.720703125 349.006835938 504.326171875 349.006835938 c 0
 488.408203125 349.006835938 472.451171875 347.630859375 457.01953125 345 c 1
 477.01953125 385 l 1
 498.573242188 389.59765625 519.640625 391.83984375 539.876953125 391.83984375 c 0
 653.622070312 391.83984375 741.114257812 321.03125 741.114257812 199.946289062 c 0
 741.114257812 30.0625 570.21484375 -59 388.01953125 -59 c 0
 195.291015625 -59 45 31.798828125 45 177.118164062 c 0
 45 334.90234375 188.390625 397.203125 295.756835938 397.203125 c 0
 304.442382812 397.203125 312.895507812 396.796875 321.01953125 396 c 1
 297.01953125 357 l 1
 303.069335938 374.28515625 313.879882812 392.565429688 313.879882812 415.716796875 c 0
 313.879882812 472.971679688 264.365234375 505.75 209.526367188 505.75 c 0
 198.72265625 505.75 187.484375 504.529296875 176.01953125 502 c 1
 209.01953125 523 l 1
 154.01953125 421 l 1
 114.057617188 422.94921875 87.966796875 446.76171875 87.966796875 480.361328125 c 0
 87.966796875 532.604492188 146.654296875 569 207.01953125 569 c 0
502.01953125 363 m 1
 457.01953125 345 l 1
 449.01953125 370 441.53119217 396.002839085 442.01953125 438 c 0
 443.01953125 524 518.01953125 569 585.01953125 568 c 0
 664.010733433 566.821026833 720.01953125 521.658914729 720.01953125 446 c 0
 720.01953125 352.779661017 623.01953125 321 623.01953125 321 c 1
 607.01953125 338 l 1
 641.141601562 359.174804688 656.020507812 396.187457174 656.020507812 429.270507812 c 0
 656.020507812 475.12109375 621.904296875 506 563.01953125 506 c 0
 514.320736069 506 477.01953125 473.573333333 477.01953125 430 c 0
 477.01953125 378 502.01953125 363 502.01953125 363 c 1
EndSplineSet
Fore
SplineSet
194 578 m 0
 293.34636167 578 377.169921875 521.546234393 377.169921875 422.569335938 c 0
 377.169921875 375.085605781 368.341677764 348.824148709 360 327 c 1
 305 364 l 1
 306 375.333007812 309.666992188 385 309.666992188 393.888671875 c 0
 309.666992188 444.201741522 260.422577182 478.65625 204.43359375 478.65625 c 1
 150 389 l 1
 97.7777777774 393.052631579 56 416.017543859 56 466 c 0
 56 547.565217392 135.488 578 194 578 c 0
359.01953125 325 m 1
 335.814741461 335.870169816 315.963244934 338.356445312 295.654296875 338.356445312 c 0
 218.767001397 338.356445312 149.010742188 284.846580947 149.010742188 220.518554688 c 0
 149.010742188 153.415484215 221.580596198 85.7752507323 393.01953125 85 c 0
 567.860982716 84.2093630117 645.0390625 156.240716438 645.0390625 228.502929688 c 0
 645.0390625 299.931728813 573.06596693 329.882396647 504.326171875 329.006835938 c 0
 485.044918465 328.761244459 465.713217208 327.630859375 447.01953125 325 c 1
 467.01953125 385 l 1
 492.002226434 389.59765625 516.421223453 391.83984375 539.876953125 391.83984375 c 0
 664.926646009 391.83984375 761.114257812 324.721243333 761.114257812 209.946289062 c 0
 761.114257812 26.9413396485 580.534755026 -69 388.01953125 -69 c 0
 185.17755862 -69 27 25.644310682 27 177.118164062 c 0
 27 334.90234375 180.683589658 397.203125 295.756835938 397.203125 c 0
 304.442382812 397.203125 312.895507812 396.796875 321.01953125 396 c 1
 359.01953125 325 l 1
506.01953125 343 m 1
 447.01953125 325 l 1
 439.01953125 351.075268817 431.538789158 378.195842329 432.01953125 422 c 0
 433.15939139 525.861538462 518.646328751 580.082330956 595.01953125 579 c 0
 685.713133756 577.714725974 750.01953125 528.480620155 750.01953125 446 c 0
 750.01953125 352.779661017 653.01953125 321 653.01953125 321 c 1
 597.01953125 338 l 5
 624.178052526 356.854799552 636.020507812 389.812182338 636.020507812 419.270507812 c 4
 636.020507812 460.34060222 609.241039391 488 563.01953125 488 c 0
 518.850856551 488 485.01953125 452.393846154 485.01953125 412 c 0
 485.01953125 358.447761194 506.01953125 343 506.01953125 343 c 1
>>>>>>> 9091ca3d42bc76a5da6ebc1602c27821778b9009
EndSplineSet
EndChar

StartChar: si_Va
Encoding: 55 3520 2
GlifName: si_V_a
<<<<<<< HEAD
Width: 788
VWidth: 16
Flags: HMW
LayerCount: 2
Back
SplineSet
50 163 m 0
 50 310 202 367 317 367 c 0
 326 367 335 367 343 366 c 1
 343 436 283 472 211 472 c 1
 155 391 l 1
 130 391 98 409 97 448 c 0
 96 504 153 537 212 537 c 0
 290 537 383 488 383 379 c 0
 383 345 375 319 375 319 c 1
 357 321 339 322 321 322 c 0
 210 322 117 272 117 193 c 0
 117 116 204 61 374 62 c 0
 567 63 674 202 674 370 c 0
 674 579 572 709 353 709 c 0
 230 709 148 645 146 645 c 1
 135 653 123 680 127 709 c 1
 169 737 238 767 360 767 c 0
 562 767 733 619 733 364 c 0
 733 136 605 -41 372 -41 c 0
 191 -41 50 36 50 163 c 0
EndSplineSet
Fore
SplineSet
50 163 m 0
 50 310 202 367 317 367 c 0
 326 367 335 367 343 366 c 1
 343 436 283 472 211 472 c 1
 155 391 l 1
 130 391 98 409 97 448 c 0
 96 504 153 537 212 537 c 0
 290 537 383 488 383 379 c 0
 383 345 375 319 375 319 c 1
 357 321 339 322 321 322 c 0
 210 322 117 272 117 193 c 0
 117 116 204 61 374 62 c 0
 567 63 674 202 674 370 c 0
 674 579 572 709 353 709 c 0
 230 709 148 645 146 645 c 1
 135 653 123 680 127 709 c 1
 169 737 238 767 360 767 c 0
 562 767 733 619 733 364 c 0
 733 136 605 -41 372 -41 c 0
 191 -41 50 36 50 163 c 0
=======
Width: 789
VWidth: -14
Flags: HMW
LayerCount: 3
Back
SplineSet
-558 757 m 1048
223 503 m 0,28,29
 301.04296875 503 394.139273993 460.937250805 394.139273993 351.559540423 c 0,0,0
 394.139273993 317.850536642 386 285 386 285 c 1,0,1
 367.860351562 287.326171875 349.873046875 288.46484375 332.33203125 288.46484375 c 0,0,0
 221.124023438 288.46484375 127.881835938 251.706054688 127.881835938 172.880859375 c 0,0,0
 127.881835938 96.2333984375 219.751953125 43.986328125 370.3828125 43.986328125 c 0,0,0
 563.553710938 43.986328125 675 171.591796875 675 340 c 0,6,7
 675 548.514174916 573.752929688 679.040039062 354.396484375 679.040039062 c 0,0,0
 231.80078125 679.040039062 148.973632812 615 147 615 c 5,10,-1
 136.178710938 622.749023438 124.267578125 650.360351562 128 679 c 5,11,12
 169.635742188 707.311523438 239.389648438 737.006835938 361.276367188 737.006835938 c 0,0,0
 563.3046875 737.006835938 734 589.39144879 734 334 c 0,15,16
 734 105.610719929 600.713867188 -59.4921875 368.008789062 -59.4921875 c 0,0,0
 186.713867188 -59.4921875 50.947265625 22.1328125 50.947265625 149.548828125 c 0,0,0
 50.947265625 296.309570312 212.70940418 332.828491377 327.507290856 332.828491377 c 0,0,0
 336.709666527 332.828491377 345.578125 332.541992188 354 332 c 1,21,22
 354 402 304 438 222 438 c 1,23,-1
 176 357 l 1,24,25
 141.240234375 350.856445312 108.468061652 374.881163208 107.776367188 413.692382812 c 0,0,0
 106.776367188 469.802734375 164.069335938 503 223 503 c 0,28,29
EndSplineSet
Fore
SplineSet
223 533 m 0
 310.163543831 533 414.139648438 485.382237772 414.139648438 361.559570312 c 0
 414.139648438 316.202227472 399 272 399 272 c 1
 373.086405132 274.326171875 347.39044261 275.46484375 322.33203125 275.46484375 c 0
 238.864805928 275.46484375 168.881835938 248.564881299 168.881835938 190.880859375 c 0
 168.881835938 133.262279851 249.400547445 91.9879438892 381.3828125 93.986328125 c 4
 524.281020449 95.986328125 624.945113529 200.077175355 628 340 c 0
 631.640722765 514.819875825 540.883090903 640.040039062 354.396484375 640.040039062 c 0
 235.347486591 640.040039062 154.916535427 578 153 578 c 1
 138.761461761 590.592163087 123.088918586 635.460571289 128 682 c 1
 168.171189598 708.751884387 240.822150793 745.006835938 364.276367188 745.006835938 c 0
 576.603304888 745.006835938 756 594.461168229 756 334 c 0
 756 105.030303628 618.343725103 -60.4921875 378.008789062 -60.4921875 c 0
 185.849718558 -60.4921875 41.947265625 21.52328611 41.947265625 149.548828125 c 0
 41.947265625 305.117500039 206.633677503 343.828125 323.506835938 343.828125 c 0
 332.709369627 343.828125 341.577980384 343.541752507 350 343 c 1
 350 405.735849057 301.515151515 438 222 438 c 1
 176 357 l 1
 131.050285762 349.772780385 88.5566191299 378.03313656 87.7763671875 423.692382812 c 0
 86.6027916847 492.368370618 153.840416293 533 223 533 c 0
>>>>>>> 9091ca3d42bc76a5da6ebc1602c27821778b9009
EndSplineSet
EndChar

StartChar: si_Ra
Encoding: 53 3515 4
GlifName: si_R_a
<<<<<<< HEAD
Width: 741
VWidth: 25
Flags: HMW
LayerCount: 2
Back
SplineSet
59 243 m 4
 59 523 407 629 507 763 c 5
 547 861 l 5
 548 861 549 861 550 861 c 4
 599.5 861 616 838 616 812 c 4
 616 744 549.981147693 685.366990356 441 621 c 4
 308.936507937 543 116 437 116 267 c 4
 116 148.342465753 206.44 54 354 54 c 4
 517.225806452 54 607 159.386666667 607 282 c 4
 607 419.523404255 508.27796155 507.231197432 375 508 c 4
 211.755186722 509 139.966804979 367 138 366 c 5
 162 426 l 5
 161.016666667 429 268.2 559 398 559 c 4
 558.241134752 559 684 442 684 267 c 4
 684 100 562.570977918 -47 355 -47 c 4
 155.103896104 -47 59 91 59 243 c 4
EndSplineSet
Fore
SplineSet
59 243 m 4
 59 523 407 629 507 763 c 5
 547 861 l 5
 548 861 549 861 550 861 c 4
 599.5 861 616 838 616 812 c 4
 616 744 549.981147693 685.366990356 441 621 c 4
 308.936507937 543 116 437 116 267 c 4
 116 148.342465753 206.44 54 354 54 c 4
 517.225806452 54 607 159.386666667 607 282 c 4
 607 419.523404255 508.27796155 507.231197432 375 508 c 4
 211.755186722 509 139.966804979 367 138 366 c 5
 162 426 l 5
 161.016666667 429 268.2 559 398 559 c 4
 558.241134752 559 684 442 684 267 c 4
 684 100 562.570977918 -47 355 -47 c 4
 155.103896104 -47 59 91 59 243 c 4
=======
Width: 729
VWidth: -5
Flags: HMW
LayerCount: 3
Back
SplineSet
675.066618805 251.899164463 m 0
 675.066618805 84.9059161516 551.97675665 -52 356 -52 c 0
 159.88004048 -52 54.6107250228 84.2574075305 54.6107250228 235.980431581 c 0
 54.6107250228 516.426255002 404.42940796 601.884508681 504 736 c 1
 544 834 l 5
 545.121167552 834.03429062 546.224106084 834.05123063 547.309000652 834.05123063 c 0
 587.59480091 834.05123063 603 810.692858249 603 785 c 0
 603 707.080078125 536.435546875 660.377929688 428 594 c 0
 300 516 125 415 125 245 c 0
 125 133.073973286 231.297716313 53.6681819591 366.324043717 53.6681819591 c 0
 532.528814129 53.6681819591 600.15472283 157.20300922 600.15472283 260.633713181 c 0
 600.15472283 392.842255763 511.772068188 484 377 484 c 0
 208.249023438 484 137 339 137 339 c 1
 165 428 l 1
 163.905622903 431.283131291 265.472067896 532.005728598 397.88989189 532.005728598 c 0
 545.667763935 532.005728598 675.066618805 426.866792457 675.066618805 251.899164463 c 0
EndSplineSet
Fore
SplineSet
675.066618805 251.899164463 m 0
 675.066618805 84.9059161516 551.97675665 -52 356 -52 c 0
 159.88004048 -52 54.6107250228 84.2574075305 54.6107250228 235.980431581 c 0
 54.6107250228 516.426255002 404.42940796 601.884508681 504 736 c 1
 544 834 l 5
 545.121167552 834.03429062 546.224106084 834.05123063 547.309000652 834.05123063 c 0
 587.59480091 834.05123063 603 810.692858249 603 785 c 0
 603 707.080078125 536.435546875 660.377929688 428 594 c 0
 300 516 125 415 125 245 c 0
 125 133.073973286 231.297716313 53.6681819591 366.324043717 53.6681819591 c 0
 532.528814129 53.6681819591 600.15472283 157.20300922 600.15472283 260.633713181 c 0
 600.15472283 392.842255763 511.772068188 484 377 484 c 0
 208.249023438 484 137 339 137 339 c 1
 165 428 l 1
 163.905622903 431.283131291 265.472067896 532.005728598 397.88989189 532.005728598 c 0
 545.667763935 532.005728598 675.066618805 426.866792457 675.066618805 251.899164463 c 0
>>>>>>> 9091ca3d42bc76a5da6ebc1602c27821778b9009
EndSplineSet
EndChar

StartChar: si_Ca
Encoding: 27 3488 5
GlifName: si_C_a
<<<<<<< HEAD
Width: 862
VWidth: 16
Flags: HMW
LayerCount: 2
Back
SplineSet
65 309 m 5
 60 331 59 350 65 366 c 5
 444 366 l 5
 446 324 l 5
 150 324 l 5
 65 309 l 5
EndSplineSet
Refer: 2 3520 N 1 0 0 1 75 0 2
Fore
SplineSet
65 309 m 5
 60 331 59 350 65 366 c 5
 444 366 l 5
 446 324 l 5
 150 324 l 5
 65 309 l 5
EndSplineSet
Refer: 2 3520 N 1 0 0 1 75 0 2
=======
Width: 831
VWidth: -14
Flags: HMW
LayerCount: 3
Back
SplineSet
22 333 m 1
 448 333 l 1
 443 283 l 1
 126 283 l 1
 26 273 l 1
 20.7978515625 284.331054688 11.576171875 308.646484375 22 333 c 1
EndSplineSet
Refer: 2 3520 N 1 0 0 1 57 0 2
Fore
SplineSet
12 344 m 1
 448 344 l 1
 454 271 l 1
 116 271 l 1
 16 250 l 5
 10.7978515625 261.331054688 1.576171875 319.646484375 12 344 c 1
EndSplineSet
Refer: 2 3520 N 1 0 0 1 57 0 2
>>>>>>> 9091ca3d42bc76a5da6ebc1602c27821778b9009
EndChar

StartChar: si_Sa
Encoding: 58 3523 6
GlifName: si_S_a
<<<<<<< HEAD
Width: 950
VWidth: -24
Flags: HMWO
AnchorPoint: "si_MaU" 579.342 128.822 basechar 0
LayerCount: 2
Back
SplineSet
40 352 m 1
 35 374 34 393 40 409 c 1
 419 409 l 1
 421 367 l 1
 125 367 l 1
 40 352 l 1
103 180 m 0
 103 303 202 377 238 377 c 2
 334 377 l 1
 236 366 168 291 168 212 c 0
 168 138 229 79 319 79 c 0
 395 79 472 116 477 236 c 1
 490 241 503 242 516 240 c 1
 519 127 593 79 676 79 c 0
 759 79 823 143 823 228 c 0
 823 315 754 378 660 378 c 0
 630 378 597 373 564 359 c 1
 559 383 554 406 554 432 c 0
 554 533 631 597 727 598 c 0
 796 599 863 561 863 483 c 0
 863 387 770 361 770 361 c 1
 754 361 l 1
 754 361 789 400 789 449 c 0
 789 488 757 533 692 533 c 0
 648 533 594 500 594 430 c 0
 594 393 610 383 610 383 c 1
 569 403 l 1
 598.405021029 412.801673676 629.149623022 422 669 422 c 0
 768 422 887 372 887 216 c 0
 887 93 809 -21 673 -21 c 0
 553 -21 494 48 479 151 c 1
 479 150 480 150 482 150 c 0
 489 150 504 152 511 152 c 0
 513 152 514 152 514 151 c 0
 496 50 440 -19 312 -19 c 0
 166 -19 103 83 103 180 c 0
157 506 m 0
 157 573 229 598 282 598 c 0
 367 598 438 546 438 453 c 0
 438 410 429 387 421 367 c 1
 393 394 l 1
 394 405 398 415 398 424 c 0
 398 492 335 539 265 539 c 1
 211 449 l 1
 181 452 157 469 157 506 c 0
EndSplineSet
Fore
SplineSet
16 423 m 1
 425 423 l 1
 437 368 l 1
 151 368 l 1
 16 323 l 1
 10.970703125 353.197265625 10.3701171875 400.28515625 16 423 c 1
707.50390625 523.239257812 m 0
 657.551757812 523.239257812 620.395440979 498.633337509 619.521484375 447.736328125 c 0
 619.088819474 422.539024942 626 410 631 404 c 1
 598 420 l 1
 615.581036065 424.805410522 649.840201367 445.308480921 699.944335938 444.224609375 c 0
 786.925027655 441.799298922 913 388.302315557 913 213 c 0
 913 90.4365234375 827.263311203 -19 692.874023438 -19 c 0
 523.78985518 -19 493.077030675 91.6435546875 485 203 c 1
 484.577148438 202.366210938 485.985351562 202.133789062 488.451171875 202.133789062 c 0
 495.186523438 202.133789062 509.813476562 203.866210938 516.548828125 203.866210938 c 0
 519.014648438 203.866210938 520.119261083 203.752910617 520 203 c 0
 502.051757812 89.6904296875 447.15625 -17 319.205078125 -17 c 0
 176.666015625 -17 108.965820312 74.7124622149 108.965820312 177.334960938 c 0
 108.965820312 333.890409859 274.878699856 406.789128217 322.930664062 388 c 2
 349 378 l 1
 284.851468416 369.621338509 243.805664062 316.346684787 243.805664062 256.677734375 c 0
 243.805664062 197.477461713 279.309218945 156 352.05078125 156 c 0
 410.022265219 156 467.368422266 190.784179688 471 278 c 1
 495.058854166 282.659179688 502.941145834 284.1015625 527 282 c 1
 529.602790383 197.102539062 589.384571749 156 662 156 c 0
 730.6177275 156 780.526478554 204.172185312 784.034179688 265.362304688 c 0
 788.201171875 338.053431919 727.174223648 382.385742188 665.627929688 382.385742188 c 0
 635.164738923 382.385742188 611.133095234 377.016601562 577 363 c 1
 571.674804688 394.361328125 566.959960938 418.203125 566.959960938 452.084960938 c 0
 566.959960938 558.7890625 644.639644876 626.740497027 740.900390625 628.045898438 c 0
 821.049804688 629.132812499 899 588.270507812 899 503 c 0
 899 407 796 381 796 381 c 1
 780 381 l 1
 780 381 805 406.698242188 805 439 c 0
 805 478.370117188 765.389648438 523.239257812 707.50390625 523.239257812 c 0
271 635 m 0
 370.346679688 635 454.169921875 578.545898438 454.169921875 479.569335938 c 0
 454.169921875 418.884938799 445.341796875 395.891559935 437 368 c 1
 397 415 l 1
 398 428.608051921 401.666992188 440.215643991 401.666992188 450.888671875 c 0
 401.666992188 510.202148438 339.852236557 535.65625 281.43359375 535.65625 c 1
 227 450 l 1
 179.777385306 454.210633117 142 478.070211039 142 530 c 0
 142 606.467590333 216.304262908 635 271 635 c 0
=======
Width: 912
VWidth: -24
Flags: HMW
AnchorPoint: "si_MaU" 541.342 101.822 basechar 0
AnchorPoint: "si_MaI" 161.342 475.542 basechar 0
AnchorPoint: "si_hal" 423.342 452.542 basechar 0
LayerCount: 3
Back
SplineSet
38 379 m 1
 417 379 l 1
 419 337 l 1
 123 337 l 1
 38 322 l 1
 32.9708431108 343.51528707 32.3697515592 362.815917542 38 379 c 1
669.50390625 503.239257812 m 0
 625.010742188 503.239257812 571.521497141 469.518401438 571.521497141 399.736570483 c 0
 571.521497141 362.984603796 588 353 588 353 c 1
 547 373 l 1
 580 384 l 1
 599.655293784 389.201719992 622.667784798 392.224855977 646.943859699 392.224855977 c 0
 745.548476136 392.224855977 865 342.348439645 865 186 c 0
 865 63.4368784584 786.774414062 -46 650.874023438 -46 c 0
 531.23828125 -46 481.905273438 22.66015625 467 126 c 1
 466.577148438 125.366210938 467.985351562 125.133789062 470.451171875 125.133789062 c 0
 477.186523438 125.133789062 491.813476562 126.866210938 498.548828125 126.866210938 c 0
 501.014648438 126.866210938 502.422851562 126.633789062 502 126 c 0
 484.051757812 24.6181640625 419.15625 -44 301.205078125 -44 c 0
 165.446289062 -44 100.966195144 52.9929529197 100.966195144 150.334902037 c 0
 100.966195144 273.780552002 193.487595798 347 229.930389091 347 c 2
 326 347 l 1
 228.312359602 335.927953482 165.805664062 265.528320312 165.805664062 186.677734375 c 0
 165.805664062 113.049804688 226.936523438 53.853515625 317.05078125 53.853515625 c 0
 383.274414062 53.853515625 460.1328125 90.8466796875 465 211 c 1
 478 215.658796875 491 217.1015625 504 215 c 1
 506.95703125 102.041992188 571.49609375 53.98046875 654 53.98046875 c 0
 736.674804688 53.98046875 801.034641671 113.801570516 801.034641671 198.36259074 c 0
 801.034641671 284.981470218 731.791232481 348.38544635 637.628166871 348.38544635 c 0
 607.784850009 348.38544635 575.438476562 343.016601562 542 329 c 1
 536.674804688 352.608398438 531.959846987 376.578855594 531.959846987 402.085058768 c 0
 531.959846987 502.724983096 609.195598398 566.658793936 704.900390625 568.045898438 c 0
 773.896484375 569.045898438 841 531.451171875 841 453 c 0
 841 357 748 331 748 331 c 1
 732 331 l 1
 732 331 767 369.990234375 767 419 c 0
 767 458.370117188 734.005859375 503.239257812 669.50390625 503.239257812 c 0
280 568 m 0
 364.702132678 568 436.169614714 515.178234878 436.169614714 422.569098419 c 0
 436.169614714 380.053997323 427.341528536 356.540501255 419 337 c 1
 391 364 l 1
 392 375.333007812 395.666992188 385 395.666992188 393.888671875 c 0
 395.666992188 462.0078125 333.787991519 508.655960281 263.433975885 508.655960281 c 1
 209 419 l 1
 179 422 155 439 155 476 c 0
 155 543 227 568 280 568 c 0
EndSplineSet
Fore
SplineSet
38 372 m 1
 427 372 l 1
 439 307 l 1
 123 307 l 1
 38 292 l 1
 32.970703125 322.196894134 32.3701171875 349.285498304 38 372 c 1
669.50390625 473.239257812 m 0
 629.551670265 473.239257812 581.521484375 448.640636139 581.521484375 397.736328125 c 0
 581.521484375 343.68453923 608 329 608 329 c 1
 534 373 l 1
 590 384 l 1
 606.719207656 389.201719992 626.294118118 392.224855977 646.943859699 392.224855977 c 0
 750.070459158 392.224855977 875 342.348439645 875 186 c 0
 875 63.4368784584 801.158314821 -46 672.874023438 -46 c 0
 518.924207522 -46 483.688646693 30.6438953488 467 146 c 1
 466.577148438 145.366210938 467.985351562 145.133789062 470.451171875 145.133789062 c 0
 477.186523438 145.133789062 491.813476562 146.866210938 498.548828125 146.866210938 c 0
 501.014648438 146.866210938 502.119199395 146.752518121 502 146 c 0
 484.051757812 32.6908892463 419.15625 -44 301.205078125 -44 c 0
 158.666193423 -44 90.9658203125 52.9929823171 90.9658203125 150.334960938 c 0
 90.9658203125 286.486668839 239.049241677 346.966485504 294.930664062 337 c 2
 351 327 l 1
 274.655607439 319.173829433 225.805664062 269.412519617 225.805664062 213.677734375 c 0
 225.805664062 163.88582651 258.029149667 123.853515625 324.05078125 123.853515625 c 0
 391.769813401 123.853515625 448.757868606 153.784511379 453 251 c 1
 472.333333333 255.658796875 491.666666667 257.1015625 511 255 c 1
 513.621901042 170.102689405 570.846536458 133.98046875 644 133.98046875 c 0
 701.371894005 133.98046875 742.661928525 168.925358393 746.034179688 218.362304688 c 0
 750.2009316 279.446571729 700.097087312 324.385742188 637.627929688 324.385742188 c 0
 603.727690544 324.385742188 566.984127477 319.016815467 529 305 c 1
 523.674865126 336.360998797 518.959960938 368.202950297 518.959960938 402.084960938 c 0
 518.959960938 508.789021183 596.63968876 576.740482493 692.900390625 578.045898438 c 0
 773.049448512 579.132820266 851 538.270291282 851 453 c 0
 851 357 748 331 748 331 c 1
 732 331 l 1
 732 331 757 356.69810902 757 389 c 0
 757 428.370117188 727.390009381 473.239257812 669.50390625 473.239257812 c 0
273 578 m 4
 372.34636167 578 456.169921875 521.546234393 456.169921875 422.569335938 c 4
 456.169921875 365.148583683 447.341677764 333.391335139 439 307 c 5
 384 364 l 5
 385 375.333007812 388.666992188 385 388.666992188 393.888671875 c 4
 388.666992188 444.201741522 339.422577182 478.65625 283.43359375 478.65625 c 5
 229 389 l 5
 176.777777777 393.052631579 135 416.017543859 135 466 c 4
 135 547.565217392 214.488 578 273 578 c 4
EndSplineSet
Layer: 2
SplineSet
492.817382812 48.9150390625 m 1
 520.389691767 -10.3505974993 569.28188959 -46 650.874023438 -46 c 0
 793.121163429 -46 875 43.4365234375 875 166 c 0
 875 322.348632812 730.0703125 342.224609375 626.944335938 342.224609375 c 4
 627.627929688 334.385742188 l 4
 710.265625 334.385742188 776.545898438 266.73046875 771.034179688 188.362304688 c 0
 766.734375 127.225585938 725.428922293 93.98046875 654 93.98046875 c 0
 598.593792492 93.98046875 546.90234375 136.515625 519 172 c 1
 520.927561038 124.465199047 512.721993895 83.1181393363 492.817382812 48.9150390625 c 1
38 372 m 1
 367 372 l 1
 257.450120378 355.048297099 100.6953125 335.680664062 28 272 c 1
 22.970703125 298.421875 32.3701171875 352.125 38 372 c 1
498.548828125 146.866210938 m 0
 501.014648438 146.866210938 502.119199395 146.752518121 502 146 c 0
 484.051757812 32.6908892463 429.15625 -44 301.205078125 -44 c 0
 158.666193423 -44 90.9658203125 52.9929823171 90.9658203125 150.334960938 c 0
 90.9658203125 328.413500668 295.1796875 350.25390625 396 337 c 1
 310.508789062 327.79296875 185.805664062 279.249023438 185.805664062 193.677734375 c 0
 185.805664062 132.798828125 228.852843051 93.853515625 317.05078125 93.853515625 c 0
 378.798308451 93.853515625 460.461914062 160.846679688 485 251 c 1
 533.640735996 78.6533313413 462.639441519 146.866210938 498.548828125 146.866210938 c 0
669.50390625 473.239257812 m 0
 727.390009381 473.239257812 747 438.370117188 747 399 c 0
 747 366.698242188 722 341 722 341 c 1
 737.450195312 341 851 347.768676951 851 453 c 0
 851 538.270291282 777.486872274 579.132820267 701.900390625 578.045898438 c 0
 602.321113932 576.613963953 521.959960938 508.789021184 521.959960938 402.084960938 c 0
 521.959960938 371.692884301 526.674865126 353.13073548 532 315 c 1
 542.729669891 338.046811848 535.17466822 473.239257812 669.50390625 473.239257812 c 0
280 578 m 0
 370.126026087 578 446.169921875 521.546234393 446.169921875 422.569335938 c 0
 446.169921875 370.117094732 437.341677764 341.107741924 429 317 c 1
 414 344 l 1
 415 355.333007812 418.666992188 365 418.666992188 373.888671875 c 0
 418.666992188 424.202148438 369.422577182 478.65625 283.43359375 478.65625 c 1
 229 389 l 1
 182.333007812 393.579101562 145 419.526315789 145 476 c 0
 145 550.282608696 222.76 578 280 578 c 0
>>>>>>> 9091ca3d42bc76a5da6ebc1602c27821778b9009
EndSplineSet
EndChar

StartChar: si_Ka
Encoding: 21 3482 7
GlifName: si_K_a
Width: 1099
VWidth: -24
Flags: HMW
<<<<<<< HEAD
LayerCount: 2
Back
SplineSet
93 478 m 4
 93 519.485714286 133.238095238 577 223 577 c 4
 290.552238806 577 347 528 347 460 c 4
 347 407 306.846153846 384 301 384 c 4
 273 367 l 5
 298.206609737 392.875002179 306.267744344 419.958333288 306 444 c 4
 305.342140642 501.334013763 241.670779552 522.282193305 209 507 c 5
 162 409 l 5
 126.918140308 407.706891742 93 432.035295758 93 478 c 4
66 146 m 1
 157.681318681 264.807432432 230.511828376 329.658226984 309 399 c 0
 332 414 l 0
 438.698224852 517.613138686 572.816568047 581 700 581 c 0
 891 581 1055 450 1055 263 c 0
 1055 108 970.990190374 -20.3391493157 814 -23 c 0
 755 -24 715 1 715 1 c 1
 713 17 730 47 744 57 c 1
 744 57 764 28 824 28 c 0
 924 28 984 138 984 238 c 0
 984 413 829 488 662 488 c 0
 545.296819788 488 445.032996171 444.919608753 359 381 c 0
 354 374 l 0
 265.744186047 295.082706767 192.197674419 249.84962406 101 118 c 1
 101 118 60 128 66 146 c 1
123 177 m 1
 135 200 l 1
 143 204 151 207 159 207 c 0
 209 207 223 80 303 80 c 0
 352 80 401 115.84496124 402 216 c 1
 413 220 428 220 437 217 c 1
 438.00862069 109.113636364 496.50862069 76 554 76 c 0
 611.431372549 76 655 116.948275862 655 201 c 0
 655 282.017964072 583 366 443 366 c 0
 384 366 326 344.15 295 328 c 1
 321 369 l 1
 333 373 409 410 486 410 c 0
 590 410 719 342 719 193 c 0
 719 58 644 -17 547 -17 c 0
 457 -17 429 38 410 78 c 1
 428 75 l 1
 410.865079365 34 366.515873016 -17 301 -17 c 0
 239.539130435 -17 197.838916072 19.5143638911 187 74 c 0
 175 131.306122449 156 182 137 182 c 0
 133 182 129 180 123 177 c 1
EndSplineSet
Fore
SplineSet
53 478 m 0
 53 532.057142857 99.7380952381 607 204 607 c 0
 281.902985075 607 347 549.623931624 347 470 c 0
 347 430.947368421 306.846153846 414 301 414 c 0
 283 397 l 1
 292.929876563 416.154222392 296.192673958 436.204154048 296 454 c 0
 295.477781746 502.233376658 244.934536345 519.856448336 219 507 c 1
 162 369 l 1
 106.580830341 366.957263766 53 405.389090401 53 478 c 0
819.751953125 55.94140625 m 0
 902.106009887 55.94140625 946.915039062 111.449641308 946.915039062 215.872070312 c 0
 946.915039062 358.842563543 810.604498084 468.359183766 653 472.361328125 c 4
 544.49357215 475.54443596 459.626791249 435.223724103 392 384 c 0
 376.312968749 373.088503689 380.456125369 382.143438178 362 365 c 0
 270.317112635 279.83803452 192.168233083 199.65058841 106 39 c 1
 106 39 52.4186463648 55.4777960526 52 87 c 1
 146.99592823 273.422888917 259.625892797 346.880177356 342 473 c 0
 347.888247283 481.862467448 339.683597296 452.985998913 347 460 c 0
 442.526606318 552.207606804 585.972559615 606.522460938 694.647460938 606.522460938 c 0
 897.212167177 606.522460938 1069.29101562 487.341938234 1069.29101562 266.915039062 c 0
 1069.29101562 114.869113111 990.082145864 -36.7239998281 797 -39 c 0
 741.569335937 -39.6955566406 704 -17 704 -17 c 1
 701.563308191 13.0392717634 724.769127156 66.9928501675 744 86 c 1
 744 86 763.866451269 55.94140625 819.751953125 55.94140625 c 0
732 195 m 0
 732 52.2113451476 648.168835511 -36 540.61328125 -36 c 0
 455.630672429 -36 427.602520823 18.7080078125 410 59 c 1
 428 56 l 1
 420.910226005 15.7117017663 368.407575334 -34 305 -34 c 0
 176.441435805 -34 183.175459582 102.934570312 138.631835938 102.934570312 c 0
 134.454101562 102.934570312 129.645507812 101.387695312 124 98 c 1
 161 153 l 1
 169.268554688 157.134765625 178.1640625 160.0078125 185.706054688 160.0078125 c 0
 219.776972565 160.0078125 241.026072278 108 296 108 c 0
 340.545454545 108 385.090909091 143.844961241 386 244 c 1
 397.519855764 245.739627941 424.406170016 249.685289742 440 248 c 1
 440.745073757 139.109158074 484.704425394 105.978515625 527.896484375 105.978515625 c 0
 567.462623482 105.978515625 594 151.858099364 594 204 c 0
 594 273.87943663 539.367580817 333.264648438 426.643554688 333.264648438 c 0
 363.522773309 333.264648438 290.77862395 304.167632693 258 279 c 1
 334 368 l 1
 344.186492302 371.364855023 406.345097443 399.026494182 468.823242188 404.012695312 c 0
 596.666004498 414.109307745 732 343.772460939 732 195 c 0
=======
AnchorPoint: "si_hal" 890 494 basechar 0
LayerCount: 3
Back
SplineSet
847.751953125 11.94140625 m 0
 947.66796875 11.94140625 996.915039062 119.083007812 996.915039062 218.872070312 c 0
 996.915039062 394.147460938 852.669921875 469.244140625 685.630859375 469.244140625 c 0
 576.423828125 469.244140625 499.286132812 435.126953125 402 374 c 0
 384.384765625 362.932617188 396.258789062 366.689453125 382 355 c 0
 292.000976562 272.916992188 209.03125 205.615234375 116 69 c 1
 116 69 81.306640625 78.6123046875 87 97 c 1
 180.243164062 245.556640625 270.409179688 319.383789062 362 413 c 0
 368.771484375 419.255859375 378 420 385 425 c 0
 482.931640625 510.158203125 598.045898438 561.522460938 723.647460938 561.522460938 c 0
 914.84375 561.522460938 1068.29101562 430.892578125 1068.29101562 243.915039062 c 0
 1068.29101562 89.044921875 994.2421875 -36.9794921875 837 -39 c 0
 777.993164062 -39.7587890625 738 -15 738 -15 c 1
 736.233398438 1.33203125 753.057617188 30.666015625 767 41 c 1
 767 41 788.177734375 11.94140625 847.751953125 11.94140625 c 0
257.564453125 559.182617188 m 0
 333.166992188 559.182617188 381.336914062 505.442382812 381.336914062 449.491210938 c 0
 381.336914062 414.751953125 365.06640625 393.625 360 387 c 1
 325 377 l 1
 335.942382812 397.973632812 339.114257812 410.27734375 339.114257812 434.170898438 c 0
 339.114257812 476.407226562 304.12109375 501.565429688 258.819335938 501.565429688 c 0
 219.75390625 501.565429688 183.227539062 475.264648438 183.227539062 432.5625 c 1
 228 371 l 1
 214.529296875 347.90625 192.7265625 335.944335938 171.497070312 335.944335938 c 0
 124.647460938 335.944335938 104 368.904296875 104 415 c 0
 104 492.66015625 165.122070312 559.182617188 257.564453125 559.182617188 c 0
743 182 m 0
 743 47.2470703125 667.491210938 -36 570.61328125 -36 c 0
 481.076171875 -36 451.545898438 18.7080078125 433 59 c 1
 451 56 l 1
 433.737304688 14.81640625 389.954101562 -36 325 -36 c 0
 197.658203125 -36 206.21875 122.934570312 158.631835938 122.934570312 c 0
 154.454101562 122.934570312 149.645507812 121.387695312 144 118 c 1
 156 145 l 1
 164.268554688 149.134765625 173.1640625 152.0078125 180.706054688 152.0078125 c 0
 230.298828125 152.0078125 245.981445312 68 326 68 c 0
 375 68 424 102 425 197 c 1
 436.083984375 200.626953125 451.239257812 201.359375 460 198 c 1
 460.982421875 96.7763671875 518.9453125 65.978515625 575.896484375 65.978515625 c 0
 641.200195312 65.978515625 685 115.71875 685 194 c 0
 685 275.772460938 616.983398438 345.264648438 476.643554688 345.264648438 c 4
 417.265625 345.264648438 348.834960938 325.819335938 318 309 c 1
 344 350 l 1
 356.453125 353.83203125 432.1796875 391.012695312 508.823242188 391.012695312 c 0
 612.98828125 391.012695312 743 330.772460938 743 182 c 0
EndSplineSet
Fore
SplineSet
227.739257812 572.174804688 m 0
 330.472408926 572.174804688 382.513671875 512.534848714 382.513671875 447.08203125 c 0
 382.513671875 426.403275289 369.095537971 397.30913394 365 392 c 1
 311 362 l 1
 314.715093324 379.41282848 319.196590676 394.886610313 316.099609375 409.436523438 c 0
 308.612153694 444.613303364 287.200891069 477.184570312 256.499023438 477.184570312 c 0
 214.574223551 477.184570312 188.980532681 449.90292004 183 429 c 1
 223 364 l 1
 204.802306985 334.417167043 175.381334783 318.934570312 146.703125 318.934570312 c 0
 85.2266275465 318.934570312 50 358.421617281 50 414 c 0
 50 499.254754176 122.125263264 572.174804688 227.739257812 572.174804688 c 0
345 373 m 1025
809.751953125 37.94140625 m 0
 868.18529524 37.94140625 911.915039062 142.819335938 911.915039062 221.872070312 c 0
 911.915039062 389.059570312 779.216796875 453.349609375 665.630859375 457.244140625 c 4
 579.490954533 460.197627286 472.666743099 432.879656304 402 374 c 0
 384.345732645 366.687644334 392.601431056 369.495070702 372 355 c 0
 276.735749847 272.450364749 195.534179688 194.72265625 106 39 c 1
 106 39 57.3798828125 52.044921875 57 77 c 1
 153.633789062 253.763671875 271.274300516 321.498838525 352 443 c 0
 357.888247283 451.862467448 350.232421875 422.455078125 357 430 c 0
 444.283203125 527.310546875 575.350585938 579.522460938 674.647460938 579.522460938 c 4
 866.3984375 579.522460938 1029.29101562 476.8359375 1029.29101562 286.915039062 c 0
 1029.29101562 124.928710938 961.722420243 -37.0582966119 797 -39 c 0
 737.993164062 -39.6955566406 698 -17 698 -17 c 1
 696.172481143 7.20640345982 713.576845367 50.6835588728 728 66 c 1
 728 66 749.439990996 37.94140625 809.751953125 37.94140625 c 0
723 182 m 0
 723 47.2470703125 643.111013345 -36 540.61328125 -36 c 0
 451.076171875 -36 421.545898438 18.7080078125 403 59 c 1
 421 56 l 1
 403.737304688 14.81640625 359.954101562 -36 295 -36 c 0
 174.168789468 -36 180.498046875 102.934570312 138.631835938 102.934570312 c 0
 134.454101562 102.934570312 129.645507812 101.387695312 124 98 c 1
 166 155 l 1
 174.268554688 159.134765625 183.1640625 162.0078125 190.706054688 162.0078125 c 0
 223.232421875 162.0078125 243.518227562 108 296 108 c 0
 340.545454545 108 385.090909091 143.844961241 386 244 c 1
 397.519855764 245.739627941 424.406170016 249.685289742 440 248 c 1
 440.812887505 139.109158074 488.773250281 105.978515625 535.896484375 105.978515625 c 0
 577.258268028 105.978515625 605 144.177535299 605 194 c 0
 605 270.366540798 546.776702618 335.264648438 426.643554688 335.264648438 c 0
 363.522773309 335.264648438 290.77862395 305.095221222 258 279 c 1
 334 358 l 1
 343.43094807 361.83203125 400.779868802 399.012695312 458.823242188 399.012695312 c 0
 587.151772175 399.012695312 723 336.466754703 723 182 c 0
EndSplineSet
Layer: 2
SplineSet
898.915039062 238.872070312 m 1
 890.880816818 398.638521797 734.417290088 460.294714901 615.630859375 449.244140625 c 0
 373.992884767 428.447803616 210.653354289 247.603879095 96 29 c 5
 98.7810256275 42.1115766658 82.1168108914 52.684782692 88 65 c 4
 200.4275168 338.843100169 488.073121582 578.834048338 703.647460938 571.522460938 c 0
 925.815083124 565.594726562 1067.15934305 442.497107019 1058.29101562 243.915039062 c 0
 1052.69545176 62.9268400517 950.009927882 -52.2053792901 748 -35 c 1
 859.255832291 16.8948576081 900.445521181 120.153666526 898.915039062 238.872070312 c 1
242.564453125 578.182617188 m 0
 355.237304688 578.182617188 389.83203125 468.526367188 352 437 c 1
 337.452148438 464.119140625 315.305397235 497.96403713 251.819335938 500.565429688 c 0
 222.241085443 501.777422354 173.227539062 476.264648438 173.227539062 433.5625 c 1
 208 356 l 1
 189.760742188 332.90625 180.241210938 330.944335938 151.497070312 330.944335938 c 0
 95.2119140625 330.944335938 63 363.2421875 63 421 c 0
 63 509.432617188 140.256835938 578.182617188 242.564453125 578.182617188 c 0
773 212 m 0
 773 58.7027480811 684.35025312 -36 570.61328125 -36 c 0
 481.076171875 -36 451.545898438 18.7080078125 433 59 c 1
 451 56 l 1
 435.244140625 16.1591796875 395.283203125 -33 336 -33 c 0
 177.552734375 -33 262.009765625 102.934570312 188.631835938 142.934570312 c 0
 182.456557668 146.300856767 173.50390625 138.252929688 164 128 c 1
 209.311294367 173.373535156 257.284862777 118 346 118 c 0
 413.777157383 118 439.18955749 165.047933626 457 227 c 1
 472.115234375 164.244552778 512.376953125 115.978515625 565.896484375 115.978515625 c 0
 603.084855701 115.978515625 635 150.177734375 635 204 c 0
 635 279.652063854 573.805725304 335.264648438 456.643554688 335.264648438 c 0
 397.301757812 335.264648438 340.568359375 306.84375 314 300 c 1
 327.963867188 305.327148438 422.87890625 397.012695312 528.823242188 397.012695312 c 0
 637.436418633 397.012695312 773 350.113753298 773 212 c 0
>>>>>>> 9091ca3d42bc76a5da6ebc1602c27821778b9009
EndSplineSet
EndChar

StartChar: si_Ta
Encoding: 40 3501 8
GlifName: si_T_a
<<<<<<< HEAD
Width: 1105
VWidth: 6
Flags: HMWO
LayerCount: 2
Back
SplineSet
82 481 m 0
 82 522.485714286 122.238095238 580 212 580 c 0
 279.552238806 580 336 531 336 463 c 0
 336 398.842105263 282.692307692 386.736842105 270 371 c 0
 261 370 l 5
 283.942857143 395.5 294 422.928571429 294 446 c 4
 294 508.311403509 230.333967392 529.289473684 198 510 c 1
 151 412 l 1
 115.918140308 410.706891742 82 435.035295758 82 481 c 0
55 106 m 1
 155 255 219 335 319 427 c 0
 320.826086957 427.5 323.173913043 427.5 325 428 c 0
 429.829545455 518.507042254 553.528409091 581 694 581 c 0
 905 581 1050 448 1050 270 c 0
 1050 97 953 -32 794 -32 c 0
 716 -32 695 -10 695 -10 c 1
 693 6 704 32 722 44 c 1
 722 44 752 21 800 21 c 0
 917 21 977 139 970 259 c 0
 961 420 827 493 659 493 c 0
 564 493 452 454 359 388 c 0
 342 376 353 381 339 369 c 0
 242 287 187 217 87 80 c 1
 87 80 56 89 55 106 c 1
107 120 m 1
 109 151 l 1
 119 159 142 176 179 176 c 0
 261 176 279 68 447 68 c 0
 563 68 626 130 626 213 c 0
 626 329 512 365 451 365 c 0
 368 365 303 339 270 320 c 1
 300 355 l 1
 313 360 399 411 479 411 c 0
 562 411 691 360 691 209 c 0
 691 104 622 -27 422 -26 c 0
 327 -26 239 15 208 74 c 0
 183 122 157 146 107 120 c 1
EndSplineSet
Fore
SplineSet
82 481 m 0
 82 522.485714286 122.238095238 580 212 580 c 0
 279.552238806 580 336 531 336 463 c 0
 336 398.842105263 282.692307692 386.736842105 270 371 c 0
 261 370 l 5
 283.942857143 395.5 294 422.928571429 294 446 c 4
 294 508.311403509 230.333967392 529.289473684 198 510 c 1
 151 412 l 1
 115.918140308 410.706891742 82 435.035295758 82 481 c 0
55 106 m 1
 155 255 219 335 319 427 c 0
 320.826086957 427.5 323.173913043 427.5 325 428 c 0
 429.829545455 518.507042254 553.528409091 581 694 581 c 0
 905 581 1050 448 1050 270 c 0
 1050 97 953 -32 794 -32 c 0
 716 -32 695 -10 695 -10 c 1
 693 6 704 32 722 44 c 1
 722 44 752 21 800 21 c 0
 917 21 977 139 970 259 c 0
 961 420 827 493 659 493 c 0
 564 493 452 454 359 388 c 0
 342 376 353 381 339 369 c 0
 242 287 187 217 87 80 c 1
 87 80 56 89 55 106 c 1
107 120 m 1
 109 151 l 1
 119 159 142 176 179 176 c 0
 261 176 279 68 447 68 c 0
 563 68 626 130 626 213 c 0
 626 329 512 365 451 365 c 0
 368 365 303 339 270 320 c 1
 300 355 l 1
 313 360 399 411 479 411 c 0
 562 411 691 360 691 209 c 0
 691 104 622 -27 422 -26 c 0
 327 -26 239 15 208 74 c 0
 183 122 157 146 107 120 c 1
=======
Width: 1073
VWidth: -24
Flags: HMW
AnchorPoint: "si_hal" 803 516 basechar 0
LayerCount: 3
Back
SplineSet
211.738963395 558.17474967 m 4
 284.700138257 558.17474967 333.513355325 508.070220636 333.513355325 453.082209001 c 4
 333.513355325 428.649211764 317.797008089 394.273010578 313 388 c 5
 278 378 l 5
 289.000080717 399.08348804 293.099516984 418.477542788 293.099516984 435.436238788 c 4
 293.099516984 479.665506312 257.412768846 503.18416106 219.499329021 503.18416106 c 4
 174.15187671 503.18416106 144.217320145 475.142999345 140 425 c 5
 180 370 l 5
 166.572459681 346.981359453 144.863593061 334.934226259 123.702788897 334.934226259 c 4
 80.6625011172 334.934226259 56 367.775543355 56 414 c 4
 56 491.708854238 119.197708112 558.17474967 211.738963395 558.17474967 c 4
786.15625 6.958984375 m 4
 903.116210938 6.958984375 963.46484375 125.241210938 956.396484375 245.428710938 c 4
 946.92674122 406.448361333 812.990234375 479.298828125 644.684570312 479.298828125 c 4
 549.213867188 479.298828125 438.064437519 439.692544131 345 374 c 4
 328 362 339.259108476 366.689899742 325 355 c 4
 232.144284842 275.689899742 175.984375 205 80 73 c 5
 80 73 50.83203125 80.1142578125 51 102 c 5
 147.124023438 246 210.579053262 322.25581362 305 413 c 4
 311.771757017 419.255813626 321.394653095 419.491760642 328 425 c 4
 428.447726849 508.763976429 545.623046875 566.521484375 679.826171875 566.521484375 c 4
 890.361328125 566.521484375 1036.23242188 433.578125 1036.23242188 255.580078125 c 4
 1036.23242188 82.71875 938.557617188 -46 780 -46 c 4
 702.244140625 -46 681 -24 681 -24 c 5
 678.689453125 -8.111328125 689.52734375 18.0341796875 708 30 c 5
 708 30 738.59375 6.958984375 786.15625 6.958984375 c 4
439.533203125 391.038085938 m 4
 542.331054688 391.038085938 677 345.958984375 677 195 c 4
 677 89.8291015625 615.709960938 -41.0732421875 423 -40 c 4
 332.734375 -39.4970703125 236.83203125 11.5498046875 210 89.9970703125 c 4
 197.905273438 125.356445312 168.546875 127.073242188 151.66015625 127.073242188 c 4
 136.749023438 127.073242188 120.122070312 124.842773438 103 116 c 5
 105 147 l 5
 115.022460938 154.745117188 138.284179688 171.665039062 175.473632812 171.665039062 c 4
 251.345703125 171.665039062 267.748046875 53.951171875 422.198242188 53.951171875 c 4
 545.564453125 53.951171875 619.018554688 119.684570312 619.018554688 202.861328125 c 4
 619.018554688 318.690429688 494.867586792 349.000976562 433.783203125 349.000976562 c 4
 351.092129325 349.000976562 289.41015625 325.403320312 256 306 c 5
 286 341 l 5
 298.73046875 346.139648438 359.412109375 391.038085938 439.533203125 391.038085938 c 4
EndSplineSet
Fore
SplineSet
224.739257812 572.174804688 m 0
 307.286852234 572.174804688 362.513671875 512.534848714 362.513671875 447.08203125 c 0
 362.513671875 426.403275289 349.095537971 397.30913394 345 392 c 1
 291 362 l 1
 302.000148024 383.083592528 306.099609375 402.477743392 306.099609375 419.436523438 c 0
 306.099609375 470.194377692 270.41266827 497.184570312 232.499023438 497.184570312 c 0
 198.560005824 497.184570312 176.156333937 472.729814558 173 429 c 1
 213 364 l 1
 194.802306985 334.417167043 165.381334783 318.934570312 136.703125 318.934570312 c 0
 80.9481435482 318.934570312 49 355.929414988 49 408 c 0
 49 496.488698584 120.313678202 572.174804688 224.739257812 572.174804688 c 0
777.15625 14.958984375 m 0
 891.416093716 14.958984375 931.715556618 124.389976448 916.396484375 235.428710938 c 0
 898.205789468 367.282109758 791.392642949 449.298828125 644.684570312 449.298828125 c 0
 558.770986164 449.298828125 467.13028716 426.966649446 375 374 c 0
 351.40026699 360.432270821 362.256964939 368.822414803 339 349 c 0
 248.418302356 257.31527417 193.633737245 175.595744681 100 23 c 1
 100 23 60.7741109914 32.5674501616 61 62 c 1
 157.124023438 224.520900322 220.46754057 310.557461904 315 413 c 0
 321.771757017 419.255813626 331.667197045 419.180471214 338 425 c 0
 435.592688342 514.682793406 549.437519354 576.521484375 679.826171875 576.521484375 c 0
 896.268496031 576.521484375 1046.23242188 439.302613386 1046.23242188 255.580078125 c 0
 1046.23242188 82.71875 944.745655998 -46 780 -46 c 0
 702.244140625 -46 681 -24 681 -24 c 1
 679.459635417 -5.75745081019 686.684895833 24.2614655671 699 38 c 1
 699 38 729.59375 14.958984375 777.15625 14.958984375 c 0
459.533203125 381.038085938 m 0
 549.344247322 384.038085937 667 335.958984375 667 185 c 0
 667 84.3044589428 608.123899882 -40.8415659699 423 -40 c 0
 317.911164906 -39.6518213961 248.195955682 -3.62234497132 220 49.9970703125 c 0
 206.49334838 85.3564453115 189.20506047 87.0732421875 176.66015625 87.0732421875 c 0
 160.523286904 87.0732421875 141.616267041 82.8141994896 124 56 c 1
 115 107 l 1
 126.444618494 117.885236759 153.007106315 141.665039062 195.473632812 141.665039062 c 0
 261.73522558 141.665039062 279.218513181 95.951171875 442.198242188 95.951171875 c 0
 506.714717763 95.951171875 569.018554688 139.039870221 569.018554688 202.861328125 c 0
 569.018554688 301.67421099 474.8671875 319.000976562 413.783203125 319.000976562 c 0
 340.394296188 319.000976562 285.651628373 305.403320312 256 286 c 1
 315 353 l 1
 326.984218321 355.879924399 384.155541915 379.466815231 459.533203125 381.038085938 c 0
>>>>>>> 9091ca3d42bc76a5da6ebc1602c27821778b9009
EndSplineSet
EndChar

StartChar: si_Na
Encoding: 44 3505 9
GlifName: si_N_a
<<<<<<< HEAD
Width: 1094
VWidth: -24
Flags: HMWO
LayerCount: 2
Back
SplineSet
134 481 m 0
 134 522.485714286 173 580 260 580 c 4
 329.731343284 580 388 531 388 463 c 0
 388 410 350.846153846 400 342 387 c 0
 331 386 l 1
 341.266666667 399 350 425 350 442 c 0
 350 507.205866228 283.681216033 530.495065789 250 510 c 1
 203 412 l 1
 167.918140308 410.706891742 134 435.035295758 134 481 c 0
97 156 m 1
 97 212 l 1
 105 196 123 190 139 190 c 0
 199 190 275 307 340 398 c 0
 362 406 l 1
 456 513 564 581 684 581 c 0
 858 581 1009 465 1009 266 c 0
 1009 110 920 -31 747 -31 c 0
 688 -31 640 -7 640 -5 c 1
 633 7 646 44 658 52 c 1
 671 43 703 18 757 18 c 0
 875 18 936 137 936 247 c 0
 936 392 814 484 654 484 c 0
 555 484 477 460 367 349 c 1
 354 349 l 1
 292 254 226 143 149 143 c 0
 132 143 115 147 97 156 c 1
55 224 m 1
 66 230 92 226 100 223 c 1
 97 95 278 70 382 70 c 0
 491 70 587 127 587 227 c 0
 587 289 536 343 436 343 c 0
 376 343 326 320 287 298 c 1
 317 331 l 1
 330 335 387 383 469 383 c 0
 565 383 653 315 653 213 c 0
 653 108 601 -29 371 -29 c 0
 195 -29 53 84 55 224 c 1
EndSplineSet
Fore
SplineSet
102 478 m 0
 102 532.057142857 148.738095238 607 253 607 c 0
 330.902985075 607 396 549.623931624 396 470 c 0
 396 423.973684211 355.846153846 404 350 404 c 0
 332 397 l 1
 341.929876563 416.154222392 345.192673958 436.204154048 345 454 c 0
 344.477781746 502.233376658 293.934536345 519.856448336 268 507 c 1
 211 369 l 1
 155.580830341 366.957263766 102 405.389090401 102 478 c 0
761.59765625 57.9326171875 m 0
 871.694534329 57.9326171875 911.004882812 149.632077486 911.004882812 234.26953125 c 0
 911.004882812 372.922793733 796.635424868 454.183617668 646.123046875 461.146484375 c 0
 551.192415988 465.538078861 457.871675541 433.37908322 372 349 c 1
 369 339 l 1
 310.086961725 244.549879139 237.90139636 114.756835937 173.70703125 134.756835938 c 0
 154.600874477 140.419475996 133.237577066 138.858398438 112 148 c 1
 112 212 l 1
 125.190429688 196.40625 138.774414062 189.645507812 154.333007812 189.645507812 c 0
 209.358930665 189.645507812 298.218523216 349.433963644 337 404 c 1
 355 411 l 1
 426.94304591 525.336199657 564.84831332 594 689 594 c 0
 888.907263555 594 1044.03515625 473.088366355 1044.03515625 266.28515625 c 0
 1044.03515625 110.357421875 941.557254069 -31 742 -31 c 0
 682.92578125 -31 635 -7.25 635 -5 c 1
 624.071614583 16.074167352 644.333333333 78.3859649123 663 92 c 1
 675.5546875 82.6357421875 707.5 57.9326171875 761.59765625 57.9326171875 c 0
530 238 m 0
 530 284.5679048 488.48669318 325.471679688 413.235351562 325.471679688 c 0
 364.453864345 325.471679688 323.408204378 299.413605647 292 268 c 1
 322 330 l 1
 335 334.754716981 387 393 469 393 c 0
 579.582010582 393 678 334.999502948 678 216 c 0
 678 111 601.23178808 -29 356 -29 c 4
 174.232058963 -29 48.9462329761 88.4040575593 51 233 c 1
 71.2949435764 237.721679688 100.878884549 234.384765625 112 232 c 1
 109.198722957 120.162750121 257.934571677 97.4677335266 354.77734375 99.9091796875 c 0
 456.638561759 102.375553007 530 150.424558314 530 238 c 0
=======
Width: 1051
VWidth: -24
Flags: HMW
AnchorPoint: "si_hal" 782 502 basechar 0
LayerCount: 3
Back
SplineSet
256.046875 557.208007812 m 0
 328.749023438 557.208007812 377.932617188 504.991210938 377.932617188 447.366210938 c 0
 377.932617188 434.515625 375.395507812 421.525390625 370 409 c 0
 356.759765625 377.221679688 358.920898438 380.565429688 323 370 c 1
 334.041992188 391.165039062 337.08984375 410.625 337.08984375 427.631835938 c 0
 337.08984375 472.862304688 305.258789062 499.474609375 259.663085938 499.474609375 c 0
 221.247070312 499.474609375 180.227539062 472.674804688 180.227539062 430.5625 c 1
 225 369 l 1
 211.529296875 345.907226562 189.727539062 333.944335938 168.498046875 333.944335938 c 0
 121.647460938 333.944335938 101 366.903320312 101 413 c 0
 101 490.514648438 163.8984375 557.208007812 256.046875 557.208007812 c 0
751.59765625 -2.0673828125 m 4
 869.9375 -2.0673828125 931.004882812 117.193359375 931.004882812 227.26953125 c 0
 931.004882812 372.034179688 809.458984375 464.146484375 649.123046875 464.146484375 c 0
 549.690429688 464.146484375 471.706054688 440.256835938 362 329 c 1
 349 329 l 1
 287.0703125 233.625 221.188476562 122.756835938 143.70703125 122.756835938 c 0
 127.008789062 122.756835938 109.795898438 126.858398438 92 136 c 1
 92 192 l 1
 105.190429688 176.40625 118.774414062 169.645507812 134.333007812 169.645507812 c 0
 194.178710938 169.645507812 267.805664062 292.837890625 333 384 c 0
 341.571289062 394.346679688 343 383 355 391 c 1
 448.7890625 498.123046875 558.565429688 561 679 561 c 0
 852.860351562 561 1004.03515625 444.884765625 1004.03515625 246.28515625 c 0
 1004.03515625 90.357421875 915.12890625 -51 742 -51 c 0
 682.92578125 -51 635 -27.25 635 -25 c 1
 627.974609375 -12.6162109375 641 24 653 32 c 1
 665.5546875 22.6357421875 697.5 -2.0673828125 751.59765625 -2.0673828125 c 4
586 207 m 0
 586 269.006835938 530.9765625 323.471679688 431.235351562 323.471679688 c 0
 371.1875 323.471679688 320.662109375 302.854492188 282 278 c 1
 312 310 l 1
 325 314 377 363 459 363 c 0
 559 363 648 308.276367188 648 196 c 0
 648 91 576 -49 346 -49 c 0
 169.595703125 -49 48.0068359375 64.37109375 50 204 c 1
 64.9716796875 208.721679688 86.7958984375 205.384765625 95 203 c 1
 91.9794921875 75.28125 252.352539062 49.9091796875 356.77734375 49.9091796875 c 0
 465.829101562 49.9091796875 586 107.375 586 207 c 0
EndSplineSet
Fore
SplineSet
247.739257812 572.174804688 m 0
 343.834803368 572.174804688 392.513671875 512.534848714 392.513671875 447.08203125 c 0
 392.513671875 426.403275289 379.095537971 397.30913394 375 392 c 1
 311 352 l 1
 322.000148024 373.083592528 326.099609375 392.477743392 326.099609375 409.436523438 c 0
 326.099609375 453.665872309 297.200891069 477.184570312 266.499023438 477.184570312 c 0
 230.278353746 477.184570312 208.166843954 449.90292004 203 429 c 1
 243 364 l 1
 224.802306985 334.417167043 195.381334783 318.934570312 166.703125 318.934570312 c 0
 105.226627547 318.934570312 70 358.421617281 70 414 c 0
 70 499.254754176 142.125263264 572.174804688 247.739257812 572.174804688 c 0
761.59765625 37.9326171875 m 0
 856.95670931 37.9326171875 891.004882812 134.832319352 891.004882812 224.26953125 c 0
 891.004882812 356.811407778 785.267924204 434.446629427 646.123046875 441.146484375 c 0
 551.192415988 445.538078861 457.871675541 413.37908322 372 329 c 1
 369 319 l 1
 307.0703125 224.549879139 231.188476562 104.756835938 163.70703125 114.756835938 c 0
 143.994660088 117.6779902 123.237577066 118.858398438 102 128 c 1
 102 192 l 1
 115.190429688 176.40625 128.774414062 169.645507812 144.333007812 169.645507812 c 0
 201.166348267 169.645507812 262.944681358 299.433963644 333 384 c 0
 341.571289062 394.346679688 343 383 355 391 c 1
 424.7890625 505.336199657 558.565429688 574 679 574 c 0
 878.907263555 574 1034.03515625 453.088366355 1034.03515625 246.28515625 c 0
 1034.03515625 90.357421875 934.950167114 -51 742 -51 c 0
 682.92578125 -51 635 -27.25 635 -25 c 1
 624.071614583 -3.92583264803 644.333333333 58.3859649123 663 72 c 1
 675.5546875 62.6357421875 707.5 37.9326171875 761.59765625 37.9326171875 c 0
524 207 m 0
 524 254.632658672 491.019407293 296.471679688 431.235351562 296.471679688 c 0
 371.1875 296.471679688 320.662109375 265.426126318 282 228 c 1
 312 290 l 1
 325 295.509433962 377 363 459 363 c 0
 564.291005291 363 658 308.276367188 658 196 c 0
 658 91 583.61589404 -49 346 -49 c 0
 164.232058963 -49 38.9462329761 68.4040575593 41 213 c 5
 61.2949435764 217.721679688 90.8788845486 214.384765625 102 212 c 5
 99.1987229567 110.143553448 247.930110717 87.8364235878 344.77734375 89.9091796875 c 0
 448.963859644 92.0004821693 524 132.742491188 524 207 c 0
>>>>>>> 9091ca3d42bc76a5da6ebc1602c27821778b9009
EndSplineSet
EndChar

StartChar: anusvara
Encoding: 1 3458 10
GlifName: anusvara
Width: 588
<<<<<<< HEAD
VWidth: 30
Flags: HMW
LayerCount: 2
Back
SplineSet
120 255 m 0
 120 165 165 97 284 97 c 0
 374 97 439 175 439 256 c 0
 439 351 376 417 277 417 c 0
 198 417 120 353 120 255 c 0
55 224 m 0
 55 375 173 473 294 473 c 0
 445 473 523 365 523 244 c 0
 523 123 436 5 285 5 c 0
 134 5 55 103 55 224 c 0
EndSplineSet
Fore
SplineSet
120 255 m 0
 120 165 165 97 284 97 c 0
 374 97 439 175 439 256 c 0
 439 351 376 417 277 417 c 0
 198 417 120 353 120 255 c 0
55 224 m 0
 55 375 173 473 294 473 c 0
 445 473 523 365 523 244 c 0
 523 123 436 5 285 5 c 0
 134 5 55 103 55 224 c 0
=======
VWidth: 0
Flags: HMW
LayerCount: 3
Back
SplineSet
276.804849177 387.362834515 m 0
 197.40242493 387.362834515 120 322.895278909 120 225 c 0
 120 134.970185429 165.539771338 66.9944493907 284.31159427 66.9944493907 c 0
 374.433779927 66.9944493907 439.013528677 145.133316226 439.013528677 226.400414439 c 0
 439.013528677 321.068276513 375.647539695 387.362834515 276.804849177 387.362834515 c 0
55 194 m 0
 55 345 173 443 294 443 c 0
 445 443 523 335 523 214 c 0
 523 93 436 -25 285 -25 c 0
 134 -25 55 73 55 194 c 0
EndSplineSet
Fore
SplineSet
276.804849177 387.362834515 m 0
 197.40242493 387.362834515 120 322.895278909 120 225 c 0
 120 134.970185429 165.539771338 66.9944493907 284.31159427 66.9944493907 c 0
 374.433779927 66.9944493907 439.013528677 145.133316226 439.013528677 226.400414439 c 0
 439.013528677 321.068276513 375.647539695 387.362834515 276.804849177 387.362834515 c 0
55 194 m 0
 55 345 173 443 294 443 c 0
 445 443 523 335 523 214 c 0
 523 93 436 -25 285 -25 c 0
 134 -25 55 73 55 194 c 0
>>>>>>> 9091ca3d42bc76a5da6ebc1602c27821778b9009
EndSplineSet
EndChar

StartChar: si_A
Encoding: 3 3461 12
GlifName: si_A_
Width: 758
<<<<<<< HEAD
VWidth: 13
Flags: HMW
LayerCount: 2
Back
SplineSet
50 174 m 0
 50 342 198 413 340 413 c 0
 369 413 393 411 408 409 c 1
 409 492 350 538 286 538 c 0
 281 538 277 538 272 537 c 1
 216 448 l 1
 176 451 149 479 149 510 c 0
 149 582.722297396 212.352539062 609 273 609 c 0
 356 609 449 544 449 438 c 0
 449 398 439 364 439 364 c 1
 422 367 405 368 387 368 c 0
 276 368 149 324 149 191 c 0
 149 82 234 10 409 10 c 0
 549 10 626 56 680 105 c 1
 696 100 716 72 716 55 c 1
 655 8 550 -50 373 -50 c 0
 161 -50 50 60 50 174 c 0
506 -348 m 1
 506 465 l 2
 506 514 508 565 565 598 c 1
 594 577 l 1
 594 522 726 485 726 416 c 0
 726 343 634 272 545 264 c 1
 545 308 l 1
 612 318 652 352 652 408 c 0
 652 476 581 458 559 528 c 9
 559 -348 l 1
 540.720883846 -351.837615937 521.754072797 -353.7386169 506 -348 c 1
EndSplineSet
Fore
SplineSet
50 174 m 0
 50 342 198 413 340 413 c 0
 369 413 393 411 408 409 c 1
 409 492 350 538 286 538 c 0
 281 538 277 538 272 537 c 1
 216 448 l 1
 176 451 149 479 149 510 c 0
 149 582.722297396 212.352539062 609 273 609 c 0
 356 609 449 544 449 438 c 0
 449 398 439 364 439 364 c 1
 422 367 405 368 387 368 c 0
 276 368 149 324 149 191 c 0
 149 82 234 10 409 10 c 0
 549 10 626 56 680 105 c 1
 696 100 716 72 716 55 c 1
 655 8 550 -50 373 -50 c 0
 161 -50 50 60 50 174 c 0
506 -348 m 1
 506 465 l 2
 506 514 508 565 565 598 c 1
 594 577 l 1
 594 522 726 485 726 416 c 0
 726 343 634 272 545 264 c 1
 545 308 l 1
 612 318 652 352 652 408 c 0
 652 476 581 458 559 528 c 9
 559 -348 l 1
 540.720883846 -351.837615937 521.754072797 -353.7386169 506 -348 c 1
=======
VWidth: -17
Flags: HMW
AnchorPoint: "si_hal" 412 492 basechar 0
LayerCount: 3
Back
SplineSet
373.143554688 -79.5390625 m 0
 161.489257812 -79.5390625 49.982421875 30.4658203125 49.982421875 144.259765625 c 0
 49.982421875 311.889648438 197.977459536 383.0859375 339.553710938 383.0859375 c 0
 368.775390625 383.0859375 393.067382812 381.09765625 408.384765625 378.52734375 c 1
 409.427734375 461.930664062 350.018155033 507.77575901 286.444162578 507.77575901 c 0
 281.680304618 507.77575901 276.859372162 507.518334846 272 507 c 1
 216 418 l 1
 175.781142969 420.622968937 149.322218025 449.236920704 149.322218025 480.448973724 c 0
 149.322218025 484.93545977 149.86890681 489.475627242 151 494 c 0
 167 556 226 577 289 577 c 0
 371.74637516 577 448.785001471 513.447203543 448.785001471 407.533639407 c 0
 448.785001471 367.087458255 439 334 439 334 c 1
 422.345828067 336.879956237 404.9465491 338.380259887 387.368571723 338.380259887 c 0
 275.899784359 338.380259887 149.047851562 294.682617188 149.047851562 161.479492188 c 0
 149.047851562 52.5537109375 233.619140625 -20.185546875 409.118164062 -20.185546875 c 0
 548.9140625 -20.185546875 626.356445312 25.6611328125 680 74.599609375 c 1
 695.521484375 69.1767578125 716.018554688 42.4033203125 716 25 c 1
 654.640625 -22.203125 550.366210938 -79.5390625 373.143554688 -79.5390625 c 0
506 434.910299435 m 2
 506 483.814733106 507.881801594 535.181015404 565 568 c 1
 594 546.889648438 l 1
 593.51171875 491.823242188 726 455.326171875 726 386 c 0
 726 313.143554688 634 241.561523438 545 234 c 1
 545 278 l 1
 612 288 652 321.561523438 652 378 c 0
 652 446 580.6328125 427.856445312 558.6328125 497.856445312 c 9
 558.6328125 -378 l 1
 506 -378 l 1
 506 434.910299435 l 2
438.465820312 371.448242188 m 1
 439.303710938 371.296875 440.147460938 371.146484375 441 371 c 1
 441 371.776367188 440.05859375 371.853515625 438.465820312 371.448242188 c 1
EndSplineSet
Fore
SplineSet
373.143554688 -79.5390625 m 0
 161.489257812 -79.5390625 49.982421875 30.4658203125 49.982421875 144.259765625 c 0
 49.982421875 311.889648438 197.977459536 383.0859375 339.553710938 383.0859375 c 0
 368.775390625 383.0859375 393.067382812 381.09765625 408.384765625 378.52734375 c 1
 409.427734375 461.930664062 350.018155033 507.77575901 286.444162578 507.77575901 c 0
 281.680304618 507.77575901 276.859372162 507.518334846 272 507 c 1
 216 418 l 1
 175.781142969 420.622968937 149.322218025 449.236920704 149.322218025 480.448973724 c 0
 149.322218025 484.93545977 149.86890681 489.475627242 151 494 c 0
 167 556 226 577 289 577 c 0
 371.74637516 577 448.785001471 513.447203543 448.785001471 407.533639407 c 0
 448.785001471 367.087458255 439 334 439 334 c 1
 422.345828067 336.879956237 404.9465491 338.380259887 387.368571723 338.380259887 c 0
 275.899784359 338.380259887 149.047851562 294.682617188 149.047851562 161.479492188 c 0
 149.047851562 52.5537109375 233.619140625 -20.185546875 409.118164062 -20.185546875 c 0
 548.9140625 -20.185546875 626.356445312 25.6611328125 680 74.599609375 c 1
 695.521484375 69.1767578125 716.018554688 42.4033203125 716 25 c 1
 654.640625 -22.203125 550.366210938 -79.5390625 373.143554688 -79.5390625 c 0
506 434.910299435 m 2
 506 483.814733106 507.881801594 535.181015404 565 568 c 1
 594 546.889648438 l 1
 593.51171875 491.823242188 726 455.326171875 726 386 c 0
 726 313.143554688 634 241.561523438 545 234 c 1
 545 278 l 1
 612 288 652 321.561523438 652 378 c 0
 652 446 580.6328125 427.856445312 558.6328125 497.856445312 c 9
 558.6328125 -378 l 1
 506 -378 l 1
 506 434.910299435 l 2
438.465820312 371.448242188 m 1
 439.303710938 371.296875 440.147460938 371.146484375 441 371 c 1
 441 371.776367188 440.05859375 371.853515625 438.465820312 371.448242188 c 1
>>>>>>> 9091ca3d42bc76a5da6ebc1602c27821778b9009
EndSplineSet
EndChar

StartChar: si_I
Encoding: 7 3465 16
GlifName: si_I_
Width: 857
<<<<<<< HEAD
VWidth: 16
Flags: HMW
LayerCount: 2
Back
SplineSet
230 -266 m 5
 230 -266 280 -329 407 -332 c 4
 557 -336 633 -260 632 -179 c 4
 631 -66 458 -48 458 -48 c 29
 367 -59 l 29
 415 -87 l 21
 503 -77 546 -126 547 -177 c 4
 549 -247 478.981445312 -280.374023438 395 -276 c 4
 299 -271 260 -225 260 -225 c 5
 240 -232 229 -252 230 -266 c 5
47 279 m 0
 47 109 189.99811315 48.7294228638 302 48 c 0
 471.999336023 46.8928632721 537 162 539 242 c 0
 541.350585938 336.018554688 478.998046875 392.859375 399 394 c 0
 328 395.012695312 280 343 280 287 c 0
 280 228 330.995266997 184.651581652 403 184 c 0
 489.002594208 183.221749598 512 253 513 260 c 1
 497 302 l 2
 491 275 467 229 414 229 c 0
 376.977539062 229 347 255 347 285 c 0
 347 316 370.875216264 342 407 342 c 0
 457 342 486 301.211914062 486 242 c 0
 486 183 425 102 311 101 c 0
 197 100 109 173 109 282 c 0
 109 434 255 519 403 519 c 0
 582 519 704 402 706 252 c 0
 708 6 501 -57 315 -45 c 5
 305 -68 312 -87 325 -100 c 5
 586 -120 777 37 777 267 c 0
 777 486 619 613 422 613 c 0
 229 613 47 474 47 279 c 0
EndSplineSet
Fore
SplineSet
230 -266 m 5
 230 -266 280 -329 407 -332 c 4
 557 -336 633 -260 632 -179 c 4
 631 -66 458 -48 458 -48 c 29
 367 -59 l 29
 415 -87 l 21
 503 -77 546 -126 547 -177 c 4
 549 -247 478.981445312 -280.374023438 395 -276 c 4
 299 -271 260 -225 260 -225 c 5
 240 -232 229 -252 230 -266 c 5
47 279 m 0
 47 109 189.99811315 48.7294228638 302 48 c 0
 471.999336023 46.8928632721 537 162 539 242 c 0
 541.350585938 336.018554688 478.998046875 392.859375 399 394 c 0
 328 395.012695312 280 343 280 287 c 0
 280 228 330.995266997 184.651581652 403 184 c 0
 489.002594208 183.221749598 512 253 513 260 c 1
 497 302 l 2
 491 275 467 229 414 229 c 0
 376.977539062 229 347 255 347 285 c 0
 347 316 370.875216264 342 407 342 c 0
 457 342 486 301.211914062 486 242 c 0
 486 183 425 102 311 101 c 0
 197 100 109 173 109 282 c 0
 109 434 255 519 403 519 c 0
 582 519 704 402 706 252 c 0
 708 6 501 -57 315 -45 c 5
 305 -68 312 -87 325 -100 c 5
 586 -120 777 37 777 267 c 0
 777 486 619 613 422 613 c 0
 229 613 47 474 47 279 c 0
=======
VWidth: -14
Flags: HMW
LayerCount: 3
Back
SplineSet
372 -79 m 25
 420 -107 l 17
 507.953125 -97.1103515625 550.8515625 -145.977539062 552 -197 c 4
 553.572756699 -266.87399598 483.82421875 -300.0390625 400 -296.16796875 c 0
 296.26171875 -291.376953125 265 -245 265 -245 c 1
 244.741210938 -252.1953125 234.137695312 -271.7890625 235 -286 c 1
 235 -286 284.810546875 -348.875976562 412 -352.227539062 c 0
 561.825195312 -356.17578125 637.879882812 -280.344726562 637 -199 c 0
 635.77734375 -85.935546875 463 -68 463 -68 c 29
 372 -79 l 25
327 7.958984375 m 0
 488.19921875 7.263671875 560.587890625 104.525390625 563.787109375 185.13671875 c 0
 567.87890625 288.235351562 491.5859375 352.711914062 400.75390625 353.724609375 c 0
 319.87890625 354.625976562 268.684570312 312.276367188 269.181640625 244.071289062 c 0
 269.590820312 187.927734375 315.766601562 157.18359375 362.04296875 156.622070312 c 0
 417.87890625 155.944335938 460.663085938 187.661132812 463.295898438 244.763671875 c 0
 465.47265625 291.982421875 447.086914062 313.3359375 393.614257812 337.315429688 c 1
 391.9765625 325.795898438 l 1
 429.3671875 304.857421875 427.073242188 277.603515625 421.756835938 252.411132812 c 0
 416.126953125 225.734375 388.799804688 207.0703125 365.169921875 207.946289062 c 0
 343.48046875 208.75 322.166015625 222.791992188 322.3203125 255.8671875 c 0
 322.530273438 301.006835938 369.668945312 330.760742188 407.927734375 315.22265625 c 0
 475.159179688 287.91796875 519.431640625 263.30078125 512.993164062 186.864257812 c 0
 507.99609375 127.541992188 451.633789062 71.509765625 338 70.9814453125 c 0
 214.189453125 70.40625 113.99609375 139.9921875 113.99609375 259.010742188 c 0
 113.99609375 406.533203125 259.825195312 489.028320312 407.971679688 489.028320312 c 0
 587.291992188 489.028320312 709.483398438 372.490234375 711 222 c 0
 713.436523438 -23.587890625 506.467773438 -77.0703125 320 -65 c 1
 309.650390625 -88.2861328125 317.310546875 -103.297851562 330 -116 c 1
 591.01171875 -136.120117188 782 6.6904296875 782 237 c 0
 782 456.323242188 623.922851562 582.578125 427.182617188 582.578125 c 0
 233.877929688 582.578125 54.841796875 455.2265625 54.841796875 259.87890625 c 0
 54.841796875 75.3095703125 202.976404973 8.49394451057 327 7.958984375 c 0
EndSplineSet
Fore
SplineSet
372 -79 m 25
 420 -107 l 17
 507.953125 -97.1103515625 550.8515625 -145.977539062 552 -197 c 4
 553.572756699 -266.87399598 483.82421875 -300.0390625 400 -296.16796875 c 0
 296.26171875 -291.376953125 265 -245 265 -245 c 1
 244.741210938 -252.1953125 234.137695312 -271.7890625 235 -286 c 1
 235 -286 284.810546875 -348.875976562 412 -352.227539062 c 0
 561.825195312 -356.17578125 637.879882812 -280.344726562 637 -199 c 0
 635.77734375 -85.935546875 463 -68 463 -68 c 29
 372 -79 l 25
327 7.958984375 m 0
 488.19921875 7.263671875 560.587890625 104.525390625 563.787109375 185.13671875 c 0
 567.87890625 288.235351562 491.5859375 352.711914062 400.75390625 353.724609375 c 0
 319.87890625 354.625976562 268.684570312 312.276367188 269.181640625 244.071289062 c 0
 269.590820312 187.927734375 315.766601562 157.18359375 362.04296875 156.622070312 c 0
 417.87890625 155.944335938 460.663085938 187.661132812 463.295898438 244.763671875 c 0
 465.47265625 291.982421875 447.086914062 313.3359375 393.614257812 337.315429688 c 1
 391.9765625 325.795898438 l 1
 429.3671875 304.857421875 427.073242188 277.603515625 421.756835938 252.411132812 c 0
 416.126953125 225.734375 388.799804688 207.0703125 365.169921875 207.946289062 c 0
 343.48046875 208.75 322.166015625 222.791992188 322.3203125 255.8671875 c 0
 322.530273438 301.006835938 369.668945312 330.760742188 407.927734375 315.22265625 c 0
 475.159179688 287.91796875 519.431640625 263.30078125 512.993164062 186.864257812 c 0
 507.99609375 127.541992188 451.633789062 71.509765625 338 70.9814453125 c 0
 214.189453125 70.40625 113.99609375 139.9921875 113.99609375 259.010742188 c 0
 113.99609375 406.533203125 259.825195312 489.028320312 407.971679688 489.028320312 c 0
 587.291992188 489.028320312 709.483398438 372.490234375 711 222 c 0
 713.436523438 -23.587890625 506.467773438 -77.0703125 320 -65 c 1
 309.650390625 -88.2861328125 317.310546875 -103.297851562 330 -116 c 1
 591.01171875 -136.120117188 782 6.6904296875 782 237 c 0
 782 456.323242188 623.922851562 582.578125 427.182617188 582.578125 c 0
 233.877929688 582.578125 54.841796875 455.2265625 54.841796875 259.87890625 c 0
 54.841796875 75.3095703125 202.976404973 8.49394451057 327 7.958984375 c 0
>>>>>>> 9091ca3d42bc76a5da6ebc1602c27821778b9009
EndSplineSet
EndChar

StartChar: si_Ii
Encoding: 8 3466 17
GlifName: si_I_i
<<<<<<< HEAD
Width: 741
VWidth: 25
Flags: HMW
LayerCount: 2
Back
SplineSet
567 641 m 4
 567 672 592 697 623 697 c 4
 654 697 679 672 679 641 c 4
 679 610 654 585 623 585 c 4
 592 585 567 610 567 641 c 4
225 731 m 4
 225 763 251 789 283 789 c 4
 315 789 341 763 341 731 c 4
 341 699 315 673 283 673 c 4
 251 673 225 699 225 731 c 4
=======
Width: 729
VWidth: -5
Flags: HMW
LayerCount: 3
Back
SplineSet
567 611 m 4
 567 642 592 667 623 667 c 4
 654 667 679 642 679 611 c 4
 679 580 654 555 623 555 c 4
 592 555 567 580 567 611 c 4
225 701 m 4
 225 733 251 759 283 759 c 4
 315 759 341 733 341 701 c 4
 341 669 315 643 283 643 c 4
 251 643 225 669 225 701 c 4
>>>>>>> 9091ca3d42bc76a5da6ebc1602c27821778b9009
EndSplineSet
Refer: 4 3515 N 1 0 0 1 0 0 2
Fore
SplineSet
<<<<<<< HEAD
567 641 m 4
 567 672 592 697 623 697 c 4
 654 697 679 672 679 641 c 4
 679 610 654 585 623 585 c 4
 592 585 567 610 567 641 c 4
225 731 m 4
 225 763 251 789 283 789 c 4
 315 789 341 763 341 731 c 4
 341 699 315 673 283 673 c 4
 251 673 225 699 225 731 c 4
=======
567 611 m 4
 567 642 592 667 623 667 c 4
 654 667 679 642 679 611 c 4
 679 580 654 555 623 555 c 4
 592 555 567 580 567 611 c 4
225 701 m 4
 225 733 251 759 283 759 c 4
 315 759 341 733 341 701 c 4
 341 669 315 643 283 643 c 4
 251 643 225 669 225 701 c 4
>>>>>>> 9091ca3d42bc76a5da6ebc1602c27821778b9009
EndSplineSet
Refer: 4 3515 N 1 0 0 1 0 0 2
EndChar

StartChar: si_U
Encoding: 9 3467 18
GlifName: si_U_
<<<<<<< HEAD
Width: 765
VWidth: 13
Flags: HMW
LayerCount: 2
Back
SplineSet
56 38 m 0
 56 274.697265625 234.935546875 405 464 405 c 0
 514 405 574 403 612 397 c 1
 612 402 597 378 596 383 c 1
 597 388 597 393 597 398 c 0
 597 488 512 523 440 523 c 0
 421 523 413 521 398 517 c 5
 342 438 l 5
 304 440 282 469 282 499 c 4
 282 557.971679688 336.125 597 420 597 c 0
 526.836914062 597 632 527.534596052 632 413 c 0
 632 379 626 351 626 351 c 1
 626 349 l 1
 592 352 474.948242188 354.700195312 447 353 c 0
 282.62890625 343 170 237.131835938 170 57 c 0
 170 -108 297 -224 474 -224 c 0
 597 -224 675 -168 716 -121 c 1
 733 -126 750 -148 749 -167 c 1
 720 -195 620.077148438 -281 458 -281 c 0
 179 -281 56 -111 56 38 c 0
EndSplineSet
Fore
SplineSet
56 38 m 0
 56 274.697265625 234.935546875 405 464 405 c 0
 514 405 574 403 612 397 c 1
 612 402 597 378 596 383 c 1
 597 388 597 393 597 398 c 0
 597 488 512 523 440 523 c 0
 421 523 413 521 398 517 c 5
 342 438 l 5
 304 440 282 469 282 499 c 4
 282 557.971679688 336.125 597 420 597 c 0
 526.836914062 597 632 527.534596052 632 413 c 0
 632 379 626 351 626 351 c 1
 626 349 l 1
 592 352 474.948242188 354.700195312 447 353 c 0
 282.62890625 343 170 237.131835938 170 57 c 0
 170 -108 297 -224 474 -224 c 0
 597 -224 675 -168 716 -121 c 1
 733 -126 750 -148 749 -167 c 1
 720 -195 620.077148438 -281 458 -281 c 0
 179 -281 56 -111 56 38 c 0
=======
Width: 726
VWidth: -17
Flags: HMW
LayerCount: 3
Back
SplineSet
147.6796875 50.0458984375 m 0
 147.6796875 -115.368164062 258.983398438 -240.8203125 436.21875 -240.8203125 c 0
 562.009765625 -240.8203125 652.995117188 -187.651367188 701 -144 c 1
 718.437692349 -148.753305681 735.622435795 -173.683402672 735 -193 c 1
 706.22265625 -220.866210938 598.908203125 -296.444335938 437 -301.19140625 c 0
 143.122070312 -309.807617188 30.97265625 -133.884765625 30.97265625 15.0390625 c 0
 30.97265625 231.73046875 184.608398438 343.334960938 356 370.828125 c 0
 386.184570312 375.669921875 418.515625 377.599609375 450.393554688 377.599609375 c 0
 500.826171875 377.599609375 550.125976562 372.76953125 588 367 c 1
 588 372 572.833007812 348 572 353 c 1
 572.525390625 358.309570312 572.780273438 363.43359375 572.780273438 368.377929688 c 0
 572.780273438 458.353515625 488.390625 492.584960938 416.109375 492.584960938 c 0
 397.364257812 492.584960938 379.43359375 490.551757812 364 487 c 1
 308 408 l 1
 269.823242188 410.490234375 248.237304688 438.831054688 248.237304688 468.673828125 c 0
 248.237304688 474.7890625 249.143554688 480.967773438 251 487 c 0
 267 539 328 567 411 567 c 0
 501.286132812 567 591.034179688 508.793945312 605 425 c 0
 607.485351562 410.087890625 608.388671875 395.93359375 608.388671875 383.235351562 c 0
 608.388671875 349.46484375 602 326 602 326 c 1
 602 324 l 1
 568.096679688 327.201171875 537.833007812 328.799804688 509.639648438 328.799804688 c 0
 468.655273438 328.799804688 422.046875 325.421875 385 318.68359375 c 0
 224.732421875 289.53125 147.6796875 184.10546875 147.6796875 50.0458984375 c 0
EndSplineSet
Fore
SplineSet
147.6796875 50.0458984375 m 0
 147.6796875 -115.368164062 258.983398438 -240.8203125 436.21875 -240.8203125 c 0
 562.009765625 -240.8203125 652.995117188 -187.651367188 701 -144 c 1
 718.437692349 -148.753305681 735.622435795 -173.683402672 735 -193 c 1
 706.22265625 -220.866210938 598.908203125 -296.444335938 437 -301.19140625 c 0
 143.122070312 -309.807617188 30.97265625 -133.884765625 30.97265625 15.0390625 c 0
 30.97265625 231.73046875 184.608398438 343.334960938 356 370.828125 c 0
 386.184570312 375.669921875 418.515625 377.599609375 450.393554688 377.599609375 c 0
 500.826171875 377.599609375 550.125976562 372.76953125 588 367 c 1
 588 372 572.833007812 348 572 353 c 1
 572.525390625 358.309570312 572.780273438 363.43359375 572.780273438 368.377929688 c 0
 572.780273438 458.353515625 488.390625 492.584960938 416.109375 492.584960938 c 0
 397.364257812 492.584960938 379.43359375 490.551757812 364 487 c 1
 308 408 l 1
 269.823242188 410.490234375 248.237304688 438.831054688 248.237304688 468.673828125 c 0
 248.237304688 474.7890625 249.143554688 480.967773438 251 487 c 0
 267 539 328 567 411 567 c 0
 501.286132812 567 591.034179688 508.793945312 605 425 c 0
 607.485351562 410.087890625 608.388671875 395.93359375 608.388671875 383.235351562 c 0
 608.388671875 349.46484375 602 326 602 326 c 1
 602 324 l 1
 568.096679688 327.201171875 537.833007812 328.799804688 509.639648438 328.799804688 c 0
 468.655273438 328.799804688 422.046875 325.421875 385 318.68359375 c 0
 224.732421875 289.53125 147.6796875 184.10546875 147.6796875 50.0458984375 c 0
>>>>>>> 9091ca3d42bc76a5da6ebc1602c27821778b9009
EndSplineSet
EndChar

StartChar: si_E
Encoding: 15 3473 22
GlifName: si_E_
<<<<<<< HEAD
Width: 880
VWidth: 16
Flags: HMW
LayerCount: 2
Back
SplineSet
73 352 m 1
 68 374 67 393 73 409 c 1
 452 409 l 1
 454 367 l 1
 158 367 l 1
 73 352 l 1
EndSplineSet
Refer: 48 3509 N 1 0 0 1 105 0 2
Fore
SplineSet
73 352 m 1
 68 374 67 393 73 409 c 1
 452 409 l 1
 454 367 l 1
 158 367 l 1
 73 352 l 1
EndSplineSet
Refer: 48 3509 N 1 0 0 1 105 0 2
=======
Width: 862
VWidth: -14
Flags: HMW
LayerCount: 3
Back
SplineSet
22 374 m 1
 405 374 l 1
 407 331 l 1
 121 331 l 1
 26 316 l 1
 19 336.248046875 17 359.344726562 22 374 c 1
EndSplineSet
Refer: 48 3509 N 1 0 0 1 87 0 2
Fore
SplineSet
22 374 m 1
 405 374 l 1
 407 331 l 1
 121 331 l 1
 26 316 l 1
 19 336.248046875 17 359.344726562 22 374 c 1
EndSplineSet
Refer: 48 3509 N 1 0 0 1 87 0 2
>>>>>>> 9091ca3d42bc76a5da6ebc1602c27821778b9009
EndChar

StartChar: si_Os
Encoding: 18 3476 25
GlifName: si_O_s
<<<<<<< HEAD
Width: 863
VWidth: 6
Flags: HMW
LayerCount: 2
Back
SplineSet
55 272 m 4
 55 171 81 -10 263 -10 c 4
 372 -10 419 62 435 141 c 5
 400 141 l 5
 405 51 464 -12 562 -12 c 4
 757 -12 808 212 808 349 c 4
 808 557 675 768 402 768 c 4
 253 768 171 702 171 702 c 5
 167 671 180 649 196 642 c 5
 199 642 270 710 412 710 c 4
 648 710 739 540 739 360 c 4
 739 251 700 84 565 84 c 4
 505 84 445 121 438 206 c 5
 426 210 411 206 401 202 c 5
 398 123 336 87 272 87 c 4
 179 87 116 153 116 307 c 4
 116 372 149 472 210 472 c 4
 230 472 245 452 246 403 c 4
 248 275 342 236 427 236 c 4
 538 236 604 325 604 410 c 4
 604 487 552 554 456 554 c 4
 382 554 339 502 339 448 c 4
 339 387 386 362 428 362 c 4
 488 362 520 410 520 460 c 4
 520 484 510 509 494 524 c 5
 468 525 l 5
 479 507 485 488 485 466 c 4
 485 439 467 408 432 408 c 4
 398 408 386 434 386 452 c 4
 386 487 408 514 442 519 c 4
 518 530 567 476 566 408 c 4
 565 341 513 294 428 292 c 4
 368 291 286 305 284 434 c 4
 283 489 250 513 217 512 c 4
 107 508 55 388 55 272 c 4
EndSplineSet
Fore
SplineSet
55 272 m 4
 55 171 81 -10 263 -10 c 4
 372 -10 419 62 435 141 c 5
 400 141 l 5
 405 51 464 -12 562 -12 c 4
 757 -12 808 212 808 349 c 4
 808 557 675 768 402 768 c 4
 253 768 171 702 171 702 c 5
 167 671 180 649 196 642 c 5
 199 642 270 710 412 710 c 4
 648 710 739 540 739 360 c 4
 739 251 700 84 565 84 c 4
 505 84 445 121 438 206 c 5
 426 210 411 206 401 202 c 5
 398 123 336 87 272 87 c 4
 179 87 116 153 116 307 c 4
 116 372 149 472 210 472 c 4
 230 472 245 452 246 403 c 4
 248 275 342 236 427 236 c 4
 538 236 604 325 604 410 c 4
 604 487 552 554 456 554 c 4
 382 554 339 502 339 448 c 4
 339 387 386 362 428 362 c 4
 488 362 520 410 520 460 c 4
 520 484 510 509 494 524 c 5
 468 525 l 5
 479 507 485 488 485 466 c 4
 485 439 467 408 432 408 c 4
 398 408 386 434 386 452 c 4
 386 487 408 514 442 519 c 4
 518 530 567 476 566 408 c 4
 565 341 513 294 428 292 c 4
 368 291 286 305 284 434 c 4
 283 489 250 513 217 512 c 4
 107 508 55 388 55 272 c 4
=======
Width: 834
VWidth: -24
Flags: HMW
LayerCount: 3
Back
SplineSet
181.138671875 442.47265625 m 1
 201.517997064 442.050786569 216.237395429 421.568723369 217 373 c 0
 219.004298927 245.350305959 312.828125 205.986328125 397.486328125 205.986328125 c 0
 508.942382812 205.986328125 575.001953125 294.977763364 575.001953125 380.115234375 c 0
 575.001953125 456.70658352 522.804846502 524 427 524 c 0
 352.728519358 524 309.993164062 471.715820312 309.993164062 418.010742188 c 0
 309.993164062 357.248955748 356.929227248 331.997070312 399.306640625 331.997070312 c 0
 459.300421504 331.997070312 491.123046875 379.837890625 491.123046875 429.515625 c 0
 491.123046875 453.040280755 480.550383764 478.828923076 465 493.561523438 c 1
 439 494.561523438 l 1
 450.456054688 476.457229511 455.998046875 458.291413674 455.998046875 435.853515625 c 0
 455.998046875 408.53125 438.532817296 377.55859375 403.282226562 377.55859375 c 0
 369.217966138 377.55859375 356.991210938 403.942501537 356.991210938 422.051757812 c 0
 356.991210938 456.836135773 379.263077098 483.909599697 413.439453125 489.001953125 c 0
 489.015623489 500.262964823 538.531008925 446.978219221 537.05078125 378.48046875 c 0
 535.606496331 311.645974513 484.12109375 263.528320312 399.0703125 261.998046875 c 0
 338.705078125 260.94921875 256.407226562 275.493164062 254.819335938 404 c 0
 254.208984375 458.67578125 221 483 188.224609375 481.879882812 c 0
 77.7399392486 478.104007814 25.939453125 357.974609375 25.939453125 241.661132812 c 0
 25.939453125 140.786132812 52.0546875 -40 234 -40 c 0
 343.450195312 -40 389.682617188 31.8828125 406 111 c 0
 371 111 l 1
 376 21.1640625 435.0859375 -42 533 -42 c 0
 728.176757812 -42 779.049804688 181.506835938 779.049804688 318.88671875 c 0
 779.049804688 526.501227212 646.481445312 738.002929688 373.423828125 738.002929688 c 0
 224.430664062 738.002929688 142 672 142 672 c 1
 137.842773438 641.486328125 151.295898438 619.133789062 167 612 c 1
 170.243164062 612 241.55078125 680.028320312 383.43359375 680.028320312 c 0
 619.595703125 680.028320312 709.8828125 510.26953125 709.8828125 330.400390625 c 0
 709.8828125 221.034179688 671.155273438 53.9521484375 536.28125 53.9521484375 c 0
 476.586914062 53.9521484375 415.733398438 91.45703125 409 176 c 1
 397.3359375 179.5390625 381.69921875 176.36328125 372 172 c 1
 369.150390625 93.1796875 307.234375 56.783203125 242.8671875 56.783203125 c 0
 149.646484375 56.783203125 86.703125 122.932617188 86.703125 276.920898438 c 0
 86.703125 342.083007812 120.446004317 442.270337041 181.138671875 442.47265625 c 1
EndSplineSet
Fore
SplineSet
181.138671875 442.47265625 m 1
 201.517997064 442.050786569 216.237395429 421.568723369 217 373 c 0
 219.004298927 245.350305959 312.828125 205.986328125 397.486328125 205.986328125 c 0
 508.942382812 205.986328125 575.001953125 294.977763364 575.001953125 380.115234375 c 0
 575.001953125 456.70658352 522.804846502 524 427 524 c 0
 352.728519358 524 309.993164062 471.715820312 309.993164062 418.010742188 c 0
 309.993164062 357.248955748 356.929227248 331.997070312 399.306640625 331.997070312 c 0
 459.300421504 331.997070312 491.123046875 379.837890625 491.123046875 429.515625 c 0
 491.123046875 453.040280755 480.550383764 478.828923076 465 493.561523438 c 1
 439 494.561523438 l 1
 450.456054688 476.457229511 455.998046875 458.291413674 455.998046875 435.853515625 c 0
 455.998046875 408.53125 438.532817296 377.55859375 403.282226562 377.55859375 c 0
 369.217966138 377.55859375 356.991210938 403.942501537 356.991210938 422.051757812 c 0
 356.991210938 456.836135773 379.263077098 483.909599697 413.439453125 489.001953125 c 0
 489.015623489 500.262964823 538.531008925 446.978219221 537.05078125 378.48046875 c 0
 535.606496331 311.645974513 484.12109375 263.528320312 399.0703125 261.998046875 c 0
 338.705078125 260.94921875 256.407226562 275.493164062 254.819335938 404 c 0
 254.208984375 458.67578125 221 483 188.224609375 481.879882812 c 0
 77.7399392486 478.104007814 25.939453125 357.974609375 25.939453125 241.661132812 c 0
 25.939453125 140.786132812 52.0546875 -40 234 -40 c 0
 343.450195312 -40 389.682617188 31.8828125 406 111 c 0
 371 111 l 1
 376 21.1640625 435.0859375 -42 533 -42 c 0
 728.176757812 -42 779.049804688 181.506835938 779.049804688 318.88671875 c 0
 779.049804688 526.501227212 646.481445312 738.002929688 373.423828125 738.002929688 c 0
 224.430664062 738.002929688 142 672 142 672 c 1
 137.842773438 641.486328125 151.295898438 619.133789062 167 612 c 1
 170.243164062 612 241.55078125 680.028320312 383.43359375 680.028320312 c 0
 619.595703125 680.028320312 709.8828125 510.26953125 709.8828125 330.400390625 c 0
 709.8828125 221.034179688 671.155273438 53.9521484375 536.28125 53.9521484375 c 0
 476.586914062 53.9521484375 415.733398438 91.45703125 409 176 c 1
 397.3359375 179.5390625 381.69921875 176.36328125 372 172 c 1
 369.150390625 93.1796875 307.234375 56.783203125 242.8671875 56.783203125 c 0
 149.646484375 56.783203125 86.703125 122.932617188 86.703125 276.920898438 c 0
 86.703125 342.083007812 120.446004317 442.270337041 181.138671875 442.47265625 c 1
>>>>>>> 9091ca3d42bc76a5da6ebc1602c27821778b9009
EndSplineSet
EndChar

StartChar: si_Oo
Encoding: 19 3477 26
GlifName: si_O_o
<<<<<<< HEAD
Width: 863
VWidth: 16
Flags: HMW
LayerCount: 2
Back
Refer: 576 -1 N 1 0 0 1 75 0 2
Refer: 25 3476 N 1 0 0 1 0 0 2
Fore
Refer: 576 -1 N 1 0 0 1 75 0 2
=======
Width: 834
VWidth: -14
Flags: HMW
LayerCount: 3
Back
SplineSet
301 550 m 1053
EndSplineSet
Refer: 25 3476 N 1 0 0 1 0 0 2
Fore
SplineSet
301 550 m 1053
EndSplineSet
>>>>>>> 9091ca3d42bc76a5da6ebc1602c27821778b9009
Refer: 25 3476 N 1 0 0 1 0 0 2
EndChar

StartChar: si_Kha
Encoding: 22 3483 28
GlifName: si_K_ha
<<<<<<< HEAD
Width: 866
VWidth: 6
Flags: HMW
LayerCount: 2
Back
SplineSet
50 181 m 0
 50 356 167 453 309 455 c 0
 393 456 531 400 531 224 c 0
 531 144 502 98 481 60 c 1
 491 132 l 1
 504 99 514 80 574 80 c 0
 675 80 738 204 738 366 c 0
 738 569 634 701 384 701 c 0
 260 701 164 633 162 633 c 0
 147 641 131 666 134 690 c 1
 134 690 243 763 396 763 c 0
 611 763 811 616 811 362 c 0
 811 144 727 -25 561 -25 c 0
 491 -25 439 -3 435 58 c 1
 474 34 l 1
 462 12 452 -4 418 -62 c 1
 378 -41 l 1
 417 19 476 116 470 208 c 0
 464 306 371 360 296 360 c 0
 193 360 103 292 103 159 c 0
 103 76 140 22 212 22 c 0
 253 22 272 55 272 82 c 0
 272 115 252 141 220 141 c 0
 195 141 171 121 171 84 c 0
 171 57 187 23 230 18 c 1
 230 7 l 1
 161 9 129 46 129 87 c 0
 129 144 170 200 235 200 c 0
 291 200 334 157 334 91 c 0
 334 39 295 -29 214 -29 c 0
 94 -29 50 88 50 181 c 0
EndSplineSet
Fore
SplineSet
50 181 m 0
 50 356 167 453 309 455 c 0
 393 456 531 400 531 224 c 0
 531 144 502 98 481 60 c 1
 491 132 l 1
 504 99 514 80 574 80 c 0
 675 80 738 204 738 366 c 0
 738 569 634 701 384 701 c 0
 260 701 164 633 162 633 c 0
 147 641 131 666 134 690 c 1
 134 690 243 763 396 763 c 0
 611 763 811 616 811 362 c 0
 811 144 727 -25 561 -25 c 0
 491 -25 439 -3 435 58 c 1
 474 34 l 1
 462 12 452 -4 418 -62 c 1
 378 -41 l 1
 417 19 476 116 470 208 c 0
 464 306 371 360 296 360 c 0
 193 360 103 292 103 159 c 0
 103 76 140 22 212 22 c 0
 253 22 272 55 272 82 c 0
 272 115 252 141 220 141 c 0
 195 141 171 121 171 84 c 0
 171 57 187 23 230 18 c 1
 230 7 l 1
 161 9 129 46 129 87 c 0
 129 144 170 200 235 200 c 0
 291 200 334 157 334 91 c 0
 334 39 295 -29 214 -29 c 0
 94 -29 50 88 50 181 c 0
=======
Width: 877
VWidth: -24
Flags: HMW
LayerCount: 3
Back
SplineSet
749.43359375 336.353515625 m 0
 749.43359375 539.126490675 644.92822877 671.095703125 395.279296875 671.095703125 c 0
 271.705788322 671.095703125 175.568791679 603 174 603 c 5
 159.364452456 610.882191359 142.905192379 636.331798692 146 660 c 5
 146 660 254.779684805 733.059570312 407.782226562 733.059570312 c 0
 622.947516851 733.059570312 822.630859375 586.017108398 822.630859375 332.138671875 c 0
 822.630859375 114.291657682 738.642895197 -54.8984375 572.459960938 -54.8984375 c 0
 502.900515902 -54.8984375 450.546456451 -33.2026369221 447 28 c 1
 485.404296875 3.6044921875 l 1
 473.602531392 -18.2237119679 464.434253454 -34.0080821595 430 -91.9130859375 c 1
 389.888671875 -71 l 1
 428.796904007 -11.0189784176 486.890033588 86.4777615137 481.032226562 178.049804688 c 0
 474.748046875 276.287109375 382.245117188 329.544921875 307.25390625 329.544921875 c 0
 204.419921875 329.544921875 114.188426452 262.353356026 114.188426452 129.487772851 c 0
 114.188426452 46.1939293237 150.720429627 -8.29996482784 223.156450723 -8.29996482784 c 0
 264.450240012 -8.29996482784 283.410676113 25.0716101117 283.410676113 52.2395919339 c 0
 283.410676113 85.2871093689 263.3278797 110.944387788 231.645347396 110.944387788 c 0
 206.208828671 110.944387788 182.908099119 91.3329854617 182.908099119 54.2901043244 c 0
 182.908099119 26.8554342915 199.269719187 -6.75007071989 241.888671875 -12.09375 c 1
 241.888671875 -23.3828125 l 1
 173.338103735 -21.2866882992 140.354969036 15.9624058636 140.354969036 56.8915928886 c 0
 140.354969036 114.103920526 180.590897669 169.707495946 246.030764778 169.707495946 c 0
 302.182274151 169.707495946 345.776368325 127.157170152 345.776368325 61.1018357432 c 0
 345.776368325 9.07230137733 306.615454565 -58.7974827796 225.735726507 -58.7974827796 c 0
 106.116836192 -58.7974827796 61.5204093666 58.3383752433 61.5204093666 151.438548147 c 0
 61.5204093666 326.481537799 178.671644692 422.469784526 320.525390625 424.913085938 c 0
 404.267578125 426.35546875 542.91796875 370.383789062 542.91796875 194.314453125 c 0
 542.91796875 113.931640625 513.920168399 68.4514024232 492.997070312 30 c 1
 502.197265625 102 l 1
 515.550710041 69.4665979833 525.800725937 50.37890625 585.459960938 50.37890625 c 0
 686.296173319 50.37890625 749.43359375 174.69745707 749.43359375 336.353515625 c 0
EndSplineSet
Fore
SplineSet
749.43359375 336.353515625 m 0
 749.43359375 539.126490675 644.92822877 671.095703125 395.279296875 671.095703125 c 0
 271.705788322 671.095703125 175.568791679 603 174 603 c 5
 159.364452456 610.882191359 142.905192379 636.331798692 146 660 c 5
 146 660 254.779684805 733.059570312 407.782226562 733.059570312 c 0
 622.947516851 733.059570312 822.630859375 586.017108398 822.630859375 332.138671875 c 0
 822.630859375 114.291657682 738.642895197 -54.8984375 572.459960938 -54.8984375 c 0
 502.900515902 -54.8984375 450.546456451 -33.2026369221 447 28 c 1
 485.404296875 3.6044921875 l 1
 473.602531392 -18.2237119679 464.434253454 -34.0080821595 430 -91.9130859375 c 1
 389.888671875 -71 l 1
 428.796904007 -11.0189784176 486.890033588 86.4777615137 481.032226562 178.049804688 c 0
 474.748046875 276.287109375 382.245117188 329.544921875 307.25390625 329.544921875 c 0
 204.419921875 329.544921875 114.188426452 262.353356026 114.188426452 129.487772851 c 0
 114.188426452 46.1939293237 150.720429627 -8.29996482784 223.156450723 -8.29996482784 c 0
 264.450240012 -8.29996482784 283.410676113 25.0716101117 283.410676113 52.2395919339 c 0
 283.410676113 85.2871093689 263.3278797 110.944387788 231.645347396 110.944387788 c 0
 206.208828671 110.944387788 182.908099119 91.3329854617 182.908099119 54.2901043244 c 0
 182.908099119 26.8554342915 199.269719187 -6.75007071989 241.888671875 -12.09375 c 1
 241.888671875 -23.3828125 l 1
 173.338103735 -21.2866882992 140.354969036 15.9624058636 140.354969036 56.8915928886 c 0
 140.354969036 114.103920526 180.590897669 169.707495946 246.030764778 169.707495946 c 0
 302.182274151 169.707495946 345.776368325 127.157170152 345.776368325 61.1018357432 c 0
 345.776368325 9.07230137733 306.615454565 -58.7974827796 225.735726507 -58.7974827796 c 0
 106.116836192 -58.7974827796 61.5204093666 58.3383752433 61.5204093666 151.438548147 c 0
 61.5204093666 326.481537799 178.671644692 422.469784526 320.525390625 424.913085938 c 0
 404.267578125 426.35546875 542.91796875 370.383789062 542.91796875 194.314453125 c 0
 542.91796875 113.931640625 513.920168399 68.4514024232 492.997070312 30 c 1
 502.197265625 102 l 1
 515.550710041 69.4665979833 525.800725937 50.37890625 585.459960938 50.37890625 c 0
 686.296173319 50.37890625 749.43359375 174.69745707 749.43359375 336.353515625 c 0
>>>>>>> 9091ca3d42bc76a5da6ebc1602c27821778b9009
EndSplineSet
EndChar

StartChar: si_Ga
Encoding: 23 3484 29
GlifName: si_G_a
<<<<<<< HEAD
Width: 1016
VWidth: 6
Flags: HMW
LayerCount: 2
Back
SplineSet
410 218 m 1
 416 462 540 583 695 583 c 0
 877 583 962 440 962 297 c 0
 962 130 880 -26 699 -27 c 0
 650 -27 618 -20 601 -10 c 1
 594 -2 590 29 610 49 c 1
 628 36 661 27 706 28 c 0
 837 31 891 127 891 260 c 0
 891 391 804 491 682 491 c 0
 570 491 453 421 447 218 c 1
 435 216 422 215 410 218 c 1
55 249 m 4
 55 468.333333333 217 576.041666667 343 578 c 1
 351 559 345 520 339 511 c 1
 254 511 126 456.75 122 294 c 4
 119 168.170403587 198 67.0941704036 330 64 c 0
 437 62 515 114 515 212 c 0
 515 267 474 307 435 307 c 1
 446 351 l 1
 493 350 567 305 567 205 c 0
 567 86 483 -25 329 -25 c 0
 162 -25 55 89.936329588 55 249 c 4
EndSplineSet
Fore
SplineSet
410 218 m 1
 416 462 540 583 695 583 c 0
 877 583 962 440 962 297 c 0
 962 130 880 -26 699 -27 c 0
 650 -27 618 -20 601 -10 c 1
 594 -2 590 29 610 49 c 1
 628 36 661 27 706 28 c 0
 837 31 891 127 891 260 c 0
 891 391 804 491 682 491 c 0
 570 491 453 421 447 218 c 1
 435 216 422 215 410 218 c 1
55 249 m 4
 55 468.333333333 217 576.041666667 343 578 c 1
 351 559 345 520 339 511 c 1
 254 511 126 456.75 122 294 c 4
 119 168.170403587 198 67.0941704036 330 64 c 0
 437 62 515 114 515 212 c 0
 515 267 474 307 435 307 c 1
 446 351 l 1
 493 350 567 305 567 205 c 0
 567 86 483 -25 329 -25 c 0
 162 -25 55 89.936329588 55 249 c 4
=======
Width: 958
VWidth: -24
Flags: HMW
LayerCount: 3
Back
SplineSet
941.875 267.375 m 0
 941.875 100.338867188 859.881835938 -55.8251953125 678.806640625 -56.82421875 c 0
 629.782226562 -57.0947265625 598.185546875 -49.7451171875 580.6875 -40.138671875 c 1
 573.841796875 -32.3212890625 570.577148438 2.1025390625 590.45703125 22.328125 c 1
 607.998046875 9.125 640.659631961 -0.585140291038 686.151367188 0.5595703125 c 0
 817.171875 3.8564453125 870.627929688 96.849609375 870.627929688 229.600585938 c 0
 870.627929688 360.360351562 795.00390625 450.555664062 673.450195312 450.555664062 c 0
 561.557617188 450.555664062 433.315429688 391.236328125 426.8828125 187.823242188 c 1
 414.460286458 185.352597871 402.037760417 184.575791931 389.615234375 187.823242188 c 1
 395.288085938 431.571289062 538.135742188 542.653320312 683.456054688 542.653320312 c 0
 855.038085938 542.653320312 941.875 410.295898438 941.875 267.375 c 0
308.604492188 -55.0390625 m 0
 141.687121542 -55.0390625 35 56.1299781787 35 211.564453125 c 0
 35 435.215669652 196.741210938 545.938476562 323.004882812 548 c 1
 330.559570312 529.03125 324.535712762 494.330490854 319.004882812 484.879882812 c 1
 233.757163334 484.879882812 105.642051033 424.635383571 101.971679688 256.94921875 c 0
 99.3068409792 135.117241989 178.282226562 36.76953125 310.431640625 34.2587890625 c 0
 417.211914062 32.2587890625 495.021484375 83.4892578125 495.021484375 181.946289062 c 0
 495.021484375 237.381835938 454.079101562 277 415.004882812 277 c 1
 426.004882812 321 l 1
 473.494140625 319.794921875 547.0078125 275.235351562 547.0078125 174.76953125 c 0
 547.0078125 56.0498046875 462.547584085 -55.0390625 308.604492188 -55.0390625 c 0
EndSplineSet
Fore
SplineSet
941.875 267.375 m 0
 941.875 100.338867188 859.881835938 -55.8251953125 678.806640625 -56.82421875 c 0
 629.782226562 -57.0947265625 598.185546875 -49.7451171875 580.6875 -40.138671875 c 1
 573.841796875 -32.3212890625 570.577148438 2.1025390625 590.45703125 22.328125 c 1
 607.998046875 9.125 640.659631961 -0.585140291038 686.151367188 0.5595703125 c 0
 817.171875 3.8564453125 870.627929688 96.849609375 870.627929688 229.600585938 c 0
 870.627929688 360.360351562 795.00390625 450.555664062 673.450195312 450.555664062 c 0
 561.557617188 450.555664062 433.315429688 391.236328125 426.8828125 187.823242188 c 1
 414.460286458 185.352597871 402.037760417 184.575791931 389.615234375 187.823242188 c 1
 395.288085938 431.571289062 538.135742188 542.653320312 683.456054688 542.653320312 c 0
 855.038085938 542.653320312 941.875 410.295898438 941.875 267.375 c 0
308.604492188 -55.0390625 m 0
 141.687121542 -55.0390625 35 56.1299781787 35 211.564453125 c 0
 35 435.215669652 196.741210938 545.938476562 323.004882812 548 c 1
 330.559570312 529.03125 324.535712762 494.330490854 319.004882812 484.879882812 c 1
 233.757163334 484.879882812 105.642051033 424.635383571 101.971679688 256.94921875 c 0
 99.3068409792 135.117241989 178.282226562 36.76953125 310.431640625 34.2587890625 c 0
 417.211914062 32.2587890625 495.021484375 83.4892578125 495.021484375 181.946289062 c 0
 495.021484375 237.381835938 454.079101562 277 415.004882812 277 c 1
 426.004882812 321 l 1
 473.494140625 319.794921875 547.0078125 275.235351562 547.0078125 174.76953125 c 0
 547.0078125 56.0498046875 462.547584085 -55.0390625 308.604492188 -55.0390625 c 0
>>>>>>> 9091ca3d42bc76a5da6ebc1602c27821778b9009
EndSplineSet
EndChar

StartChar: si_Gha
Encoding: 24 3485 30
GlifName: si_G_ha
Width: 915
<<<<<<< HEAD
VWidth: 6
Flags: HMW
LayerCount: 2
Back
SplineSet
38 352 m 1
 32 365 25 387 38 410 c 5
 417 410 l 5
 417 366 l 1
 123 366 l 1
 38 352 l 1
101 180 m 0
 101 293 200 377 236 377 c 2
 326 377 l 1
 240 363 163 307 163 215 c 0
 163 143 219 92 312 92 c 0
 353 92 410 117 415 148 c 1
 394 162 371 175 371 205 c 0
 371 242 414 272 484 272 c 0
 553 272 590 240 590 203 c 0
 590 172 560 159 548 152 c 1
 551 124 622 94 665 94 c 0
 746 94 801 145 801 229 c 0
 801 316 744 377 646 377 c 0
 615 377 580 371 542 358 c 1
 537 382 532 406 532 432 c 0
 532 533 597 596 695 596 c 0
 771 596 830 551 830 482 c 0
 830 386 737 360 737 360 c 1
 721 369 l 1
 721 369 760 405 760 454 c 0
 760 493 730 539 670 539 c 0
 625 539 568 500 568 430 c 0
 568 393 578 383 578 383 c 1
 547 403 l 1
 580 414 l 1
 600 419 623 422 647 422 c 0
 746 422 865 372 865 216 c 0
 865 94 790 -5 659 -5 c 0
 554 -5 521 53 506 157 c 1
 506 157 535 185 535 203 c 0
 535 226 486 227 482 227 c 0
 473 227 437 225 427 205 c 0
 426 204 426 202 426 200 c 0
 426 183 461 158 461 157 c 0
 444 56 397 -5 292 -5 c 0
 162 -5 101 83 101 180 c 0
155 506 m 0
 155 573 227 598 280 598 c 0
 365 598 436 546 436 453 c 0
 436 410 427 387 419 367 c 1
 393 394 l 1
 394 405 395 415 395 424 c 0
 395 492 333 539 263 539 c 1
 209 449 l 1
 179 452 155 469 155 506 c 0
EndSplineSet
Fore
SplineSet
38 352 m 1
 32 365 25 387 38 410 c 5
 417 410 l 5
 417 366 l 1
 123 366 l 1
 38 352 l 1
101 180 m 0
 101 293 200 377 236 377 c 2
 326 377 l 1
 240 363 163 307 163 215 c 0
 163 143 219 92 312 92 c 0
 353 92 410 117 415 148 c 1
 394 162 371 175 371 205 c 0
 371 242 414 272 484 272 c 0
 553 272 590 240 590 203 c 0
 590 172 560 159 548 152 c 1
 551 124 622 94 665 94 c 0
 746 94 801 145 801 229 c 0
 801 316 744 377 646 377 c 0
 615 377 580 371 542 358 c 1
 537 382 532 406 532 432 c 0
 532 533 597 596 695 596 c 0
 771 596 830 551 830 482 c 0
 830 386 737 360 737 360 c 1
 721 369 l 1
 721 369 760 405 760 454 c 0
 760 493 730 539 670 539 c 0
 625 539 568 500 568 430 c 0
 568 393 578 383 578 383 c 1
 547 403 l 1
 580 414 l 1
 600 419 623 422 647 422 c 0
 746 422 865 372 865 216 c 0
 865 94 790 -5 659 -5 c 0
 554 -5 521 53 506 157 c 1
 506 157 535 185 535 203 c 0
 535 226 486 227 482 227 c 0
 473 227 437 225 427 205 c 0
 426 204 426 202 426 200 c 0
 426 183 461 158 461 157 c 0
 444 56 397 -5 292 -5 c 0
 162 -5 101 83 101 180 c 0
155 506 m 0
 155 573 227 598 280 598 c 0
 365 598 436 546 436 453 c 0
 436 410 427 387 419 367 c 1
 393 394 l 1
 394 405 395 415 395 424 c 0
 395 492 333 539 263 539 c 1
 209 449 l 1
 179 452 155 469 155 506 c 0
EndSplineSet
=======
VWidth: -24
Flags: HMW
LayerCount: 3
Back
SplineSet
38 380 m 5
 417 380 l 5
 417 336 l 1
 123 336 l 1
 38 322 l 1
 32.4132757638 334.615611725 25.484375 356.697265625 38 380 c 5
669.50390625 509.239257812 m 0
 624.901367188 509.239257812 567.521484375 469.69140625 567.521484375 399.736328125 c 0
 567.521484375 362.984375 578 353 578 353 c 1
 547 373 l 1
 580 384 l 1
 599.655293784 389.201719992 622.667784798 392.224855977 646.943859699 392.224855977 c 0
 745.548476136 392.224855977 865 342.348439645 865 186 c 0
 865 64 790.377929688 -35 659 -35 c 0
 554 -35 521 23 506 127 c 1
 506 127 534.700195312 155.271484375 534.700195312 173.461914062 c 0
 534.700195312 196.291015625 485.583984375 197.0625 482.056640625 197.0625 c 0
 472.999023438 197.0625 436.90234375 194.803710938 427 175 c 0
 426.311523438 173.537109375 425.997070312 171.998046875 425.997070312 170.407226562 c 0
 425.997070312 153.6171875 461.165039062 127.975585938 461.004882812 127.016601562 c 0
 444.004882812 25.55078125 396.713867188 -35 292.205078125 -35 c 0
 162.446289062 -35 100.966195144 52.9929529197 100.966195144 150.334902037 c 0
 100.966195144 263.780552002 199.487304688 347 235.930664062 347 c 2
 326 347 l 1
 240.486672483 333.204400488 162.987539454 277.089611123 162.987539454 184.809139398 c 0
 162.987539454 112.461820647 218.894174903 61.7853380784 312.285623038 61.7853380784 c 0
 353.532063923 61.7853380784 409.584960938 86.9033203125 415 117.828125 c 1
 394.208984375 132.224609375 370.987304688 144.698242188 370.987304688 175.0859375 c 0
 370.987304688 211.868164062 414.483398438 242.038085938 484.00390625 242.038085938 c 0
 552.623046875 242.038085938 590 209.9609375 590 173 c 0
 590 141.715820312 560.262695312 129.123046875 548 122.466796875 c 1
 551.478515625 94.6357421875 621.488865829 63.9976221333 664.947023244 63.9976221333 c 0
 745.537953266 63.9976221333 801.042515461 115.421463652 801.042515461 199.119644635 c 0
 801.042515461 285.642742474 744.348655419 347.144005151 645.992879046 347.144005151 c 0
 615.246714379 347.144005151 580.429359456 341.134119785 542 328 c 1
 536.674954473 351.60804852 531.959846987 376.578855594 531.959846987 402.085058768 c 0
 531.959846987 502.724983096 597.185546875 566.045898438 694.900390625 566.045898438 c 0
 770.896484375 566.045898438 830 521.451039846 830 452 c 0
 830 356 737 330 737 330 c 1
 721 339 l 1
 721 339 760 374.990234375 760 424 c 0
 760 463.370376237 729.005859375 509.239257812 669.50390625 509.239257812 c 0
280 568 m 0
 364.702352926 568 436.169614714 515.178033822 436.169614714 422.569098419 c 0
 436.169614714 380.053997323 427.341528536 356.540501255 419 337 c 1
 393 364 l 1
 394 375.333007812 394.666992188 385 394.666992188 393.888671875 c 0
 394.666992188 462.0078125 333.787991519 508.655960281 263.433975885 508.655960281 c 1
 209 419 l 1
 179 422 155 439 155 476 c 0
 155 543 227 568 280 568 c 0
EndSplineSet
Fore
SplineSet
38 380 m 5
 417 380 l 5
 417 336 l 1
 123 336 l 1
 38 322 l 1
 32.4132757638 334.615611725 25.484375 356.697265625 38 380 c 5
669.50390625 509.239257812 m 0
 624.901367188 509.239257812 567.521484375 469.69140625 567.521484375 399.736328125 c 0
 567.521484375 362.984375 578 353 578 353 c 1
 547 373 l 1
 580 384 l 1
 599.655293784 389.201719992 622.667784798 392.224855977 646.943859699 392.224855977 c 0
 745.548476136 392.224855977 865 342.348439645 865 186 c 0
 865 64 790.377929688 -35 659 -35 c 0
 554 -35 521 23 506 127 c 1
 506 127 534.700195312 155.271484375 534.700195312 173.461914062 c 0
 534.700195312 196.291015625 485.583984375 197.0625 482.056640625 197.0625 c 0
 472.999023438 197.0625 436.90234375 194.803710938 427 175 c 0
 426.311523438 173.537109375 425.997070312 171.998046875 425.997070312 170.407226562 c 0
 425.997070312 153.6171875 461.165039062 127.975585938 461.004882812 127.016601562 c 0
 444.004882812 25.55078125 396.713867188 -35 292.205078125 -35 c 0
 162.446289062 -35 100.966195144 52.9929529197 100.966195144 150.334902037 c 0
 100.966195144 263.780552002 199.487304688 347 235.930664062 347 c 2
 326 347 l 1
 240.486672483 333.204400488 162.987539454 277.089611123 162.987539454 184.809139398 c 0
 162.987539454 112.461820647 218.894174903 61.7853380784 312.285623038 61.7853380784 c 0
 353.532063923 61.7853380784 409.584960938 86.9033203125 415 117.828125 c 1
 394.208984375 132.224609375 370.987304688 144.698242188 370.987304688 175.0859375 c 0
 370.987304688 211.868164062 414.483398438 242.038085938 484.00390625 242.038085938 c 0
 552.623046875 242.038085938 590 209.9609375 590 173 c 0
 590 141.715820312 560.262695312 129.123046875 548 122.466796875 c 1
 551.478515625 94.6357421875 621.488865829 63.9976221333 664.947023244 63.9976221333 c 0
 745.537953266 63.9976221333 801.042515461 115.421463652 801.042515461 199.119644635 c 0
 801.042515461 285.642742474 744.348655419 347.144005151 645.992879046 347.144005151 c 0
 615.246714379 347.144005151 580.429359456 341.134119785 542 328 c 1
 536.674954473 351.60804852 531.959846987 376.578855594 531.959846987 402.085058768 c 0
 531.959846987 502.724983096 597.185546875 566.045898438 694.900390625 566.045898438 c 0
 770.896484375 566.045898438 830 521.451039846 830 452 c 0
 830 356 737 330 737 330 c 1
 721 339 l 1
 721 339 760 374.990234375 760 424 c 0
 760 463.370376237 729.005859375 509.239257812 669.50390625 509.239257812 c 0
280 568 m 0
 364.702352926 568 436.169614714 515.178033822 436.169614714 422.569098419 c 0
 436.169614714 380.053997323 427.341528536 356.540501255 419 337 c 1
 393 364 l 1
 394 375.333007812 394.666992188 385 394.666992188 393.888671875 c 0
 394.666992188 462.0078125 333.787991519 508.655960281 263.433975885 508.655960281 c 1
 209 419 l 1
 179 422 155 439 155 476 c 0
 155 543 227 568 280 568 c 0
EndSplineSet
Colour: ff0000
>>>>>>> 9091ca3d42bc76a5da6ebc1602c27821778b9009
EndChar

StartChar: si_Nga
Encoding: 25 3486 31
GlifName: si_N_ga
<<<<<<< HEAD
Width: 829
VWidth: 16
Flags: HMW
LayerCount: 2
Back
SplineSet
50 161 m 0
 50 381 267 410 395 381 c 5
 386 340 l 1
 290 360 121 332 121 206 c 0
 121 140 164 91 242 91 c 0
 314 91 376 131 376 225 c 1
 383 229 408 233 415 228 c 1
 415 133 481 91 560 91 c 0
 644 91 703 187 703 360 c 0
 703 567 586 715 369 715 c 0
 280 715 209 685 168 660 c 1
 155 669 146 705 157 728 c 1
 214 755 273 769 370 769 c 0
 597 769 774 605 774 347 c 0
 774 181 719 -12 550 -12 c 0
 474 -12 414 19 392 81 c 1
 369 13 299 -12 240 -12 c 0
 142 -12 50 40 50 161 c 0
114 472 m 0
 114 539 186 564 239 564 c 0
 329 564 399 509 399 409 c 0
 399 375 393 359 387 340 c 1
 354 362 l 1
 356 373 357 383 357 393 c 0
 357 457 311 498 237 498 c 0
 231 498 225 498 218 497 c 1
 168 415 l 1
 138 418 114 435 114 472 c 0
EndSplineSet
Fore
SplineSet
50 161 m 0
 50 381 267 410 395 381 c 5
 386 340 l 1
 290 360 121 332 121 206 c 0
 121 140 164 91 242 91 c 0
 314 91 376 131 376 225 c 1
 383 229 408 233 415 228 c 1
 415 133 481 91 560 91 c 0
 644 91 703 187 703 360 c 0
 703 567 586 715 369 715 c 0
 280 715 209 685 168 660 c 1
 155 669 146 705 157 728 c 1
 214 755 273 769 370 769 c 0
 597 769 774 605 774 347 c 0
 774 181 719 -12 550 -12 c 0
 474 -12 414 19 392 81 c 1
 369 13 299 -12 240 -12 c 0
 142 -12 50 40 50 161 c 0
114 472 m 0
 114 539 186 564 239 564 c 0
 329 564 399 509 399 409 c 0
 399 375 393 359 387 340 c 1
 354 362 l 1
 356 373 357 383 357 393 c 0
 357 457 311 498 237 498 c 0
 231 498 225 498 218 497 c 1
 168 415 l 1
 138 418 114 435 114 472 c 0
EndSplineSet
=======
Width: 880
VWidth: -14
Flags: HMW
LayerCount: 3
Back
SplineSet
419.9609375 685.259765625 m 0
 330.626904612 685.259765625 260.679150602 654.611239207 219.7890625 630.07421875 c 1
 206.64166512 638.690868362 197.13671875 675.057617188 208.092773438 698.413085938 c 1
 265.267578125 725.336914062 324.510464651 739.006835938 421.509765625 739.006835938 c 0
 648.682356593 739.006835938 825.450195312 574.588166798 825.450195312 316.625 c 0
 825.450195312 150.355622609 769.649213195 -42 601.009765625 -42 c 0
 525.294079316 -42 465.104327053 -11.0987465788 443.442382812 51 c 1
 420.08559888 -16.6407284114 350.243275455 -42 290.967773438 -42 c 0
 192.490000084 -42 101.413085938 10.6818988978 101.413085938 131.486328125 c 0
 101.413085938 351.767770741 318.65625 380.260742188 446.442382812 351 c 4
 437.166992188 310.391601562 l 1
 341.4609375 330.391601562 172.439453125 301.797517427 172.439453125 176.115234375 c 0
 172.439453125 110.336027146 215.283658113 61 293.64453125 61 c 0
 365.165152991 61 427.442382812 101.407262976 427.442382812 195 c 1
 434.446289399 199.26831435 459.297851562 203.076171875 466 197.6796875 c 1
 466 102.482421875 532.490043127 61 611.086914062 61 c 0
 695.497523747 61 754.629882812 157.26038484 754.629882812 329.989257812 c 0
 754.629882812 536.509180506 637.416850847 685.259765625 419.9609375 685.259765625 c 0
405 332 m 1
 407.171875 342.696289062 408.227539062 352.93359375 408.227539062 362.647460938 c 0
 408.227539062 426.63671875 362.421875 467.885742188 288.291015625 467.885742188 c 0
 282.057617188 467.885742188 275.624023438 467.59375 269 467 c 1
 219 385 l 1
 189 388 165 405 165 442 c 0
 165 509 237 534 290 534 c 0
 380.079101562 534 450.567382812 478.989257812 450.567382812 379.237304688 c 0
 450.567382812 345.047851562 443.940429688 328.739257812 438 310 c 1
 405 332 l 1
EndSplineSet
Fore
SplineSet
419.9609375 685.259765625 m 0
 330.626904612 685.259765625 260.679150602 654.611239207 219.7890625 630.07421875 c 1
 206.64166512 638.690868362 197.13671875 675.057617188 208.092773438 698.413085938 c 1
 265.267578125 725.336914062 324.510464651 739.006835938 421.509765625 739.006835938 c 0
 648.682356593 739.006835938 825.450195312 574.588166798 825.450195312 316.625 c 0
 825.450195312 150.355622609 769.649213195 -42 601.009765625 -42 c 0
 525.294079316 -42 465.104327053 -11.0987465788 443.442382812 51 c 1
 420.08559888 -16.6407284114 350.243275455 -42 290.967773438 -42 c 0
 192.490000084 -42 101.413085938 10.6818988978 101.413085938 131.486328125 c 0
 101.413085938 351.767770741 318.65625 380.260742188 446.442382812 351 c 4
 437.166992188 310.391601562 l 1
 341.4609375 330.391601562 172.439453125 301.797517427 172.439453125 176.115234375 c 0
 172.439453125 110.336027146 215.283658113 61 293.64453125 61 c 0
 365.165152991 61 427.442382812 101.407262976 427.442382812 195 c 1
 434.446289399 199.26831435 459.297851562 203.076171875 466 197.6796875 c 1
 466 102.482421875 532.490043127 61 611.086914062 61 c 0
 695.497523747 61 754.629882812 157.26038484 754.629882812 329.989257812 c 0
 754.629882812 536.509180506 637.416850847 685.259765625 419.9609375 685.259765625 c 0
405 332 m 1
 407.171875 342.696289062 408.227539062 352.93359375 408.227539062 362.647460938 c 0
 408.227539062 426.63671875 362.421875 467.885742188 288.291015625 467.885742188 c 0
 282.057617188 467.885742188 275.624023438 467.59375 269 467 c 1
 219 385 l 1
 189 388 165 405 165 442 c 0
 165 509 237 534 290 534 c 0
 380.079101562 534 450.567382812 478.989257812 450.567382812 379.237304688 c 0
 450.567382812 345.047851562 443.940429688 328.739257812 438 310 c 1
 405 332 l 1
EndSplineSet
Colour: ff0000
>>>>>>> 9091ca3d42bc76a5da6ebc1602c27821778b9009
EndChar

StartChar: si_Nnga
Encoding: 26 3487 32
GlifName: si_N_nga
<<<<<<< HEAD
Width: 1158
VWidth: 6
Flags: HMW
LayerCount: 2
Back
SplineSet
55 256 m 0
 55 462 219 584 379 584 c 0
 412 584 432 582 465 578 c 1
 441 522 l 25
 329 530 l 17
 194 488 123 414 118 268 c 0
 115 191 149 86 196 49 c 1
 191 25 179 2 155 -0 c 1
 91 48 55 154 55 256 c 0
EndSplineSet
Refer: 29 3484 N 1 0 0 1 142 0 2
Fore
SplineSet
55 256 m 0
 55 462 219 584 379 584 c 0
 412 584 432 582 465 578 c 1
 441 522 l 25
 329 530 l 17
 194 488 123 414 118 268 c 0
 115 191 149 86 196 49 c 1
 191 25 179 2 155 -0 c 1
 91 48 55 154 55 256 c 0
EndSplineSet
Refer: 29 3484 N 1 0 0 1 142 0 2
=======
Width: 1103
VWidth: -24
Flags: HMW
LayerCount: 3
Back
SplineSet
47.48828125 226.418945312 m 0
 47.48828125 432.39453125 211.377929688 554.3671875 371.396484375 554.3671875 c 0
 404.141601562 554.3671875 424.3828125 552.354492188 457 548 c 1
 433 492 l 25
 321 500 l 17
 186 458 115.365234375 383.963867188 110 238 c 0
 107.157226562 160.663085938 140.754882812 55.607421875 188 18.7021484375 c 1
 183.287109375 -5.1513671875 171.327148438 -28.431640625 147 -30.3115234375 c 1
 83.2158203125 17.9443359375 47.48828125 124.125 47.48828125 226.418945312 c 0
EndSplineSet
Refer: 29 3484 N 1 0 0 1 134 0 2
Fore
SplineSet
47.48828125 226.418945312 m 0
 47.48828125 432.39453125 211.377929688 554.3671875 371.396484375 554.3671875 c 0
 404.141601562 554.3671875 424.3828125 552.354492188 457 548 c 1
 433 492 l 25
 321 500 l 17
 186 458 115.365234375 383.963867188 110 238 c 0
 107.157226562 160.663085938 140.754882812 55.607421875 188 18.7021484375 c 1
 183.287109375 -5.1513671875 171.327148438 -28.431640625 147 -30.3115234375 c 1
 83.2158203125 17.9443359375 47.48828125 124.125 47.48828125 226.418945312 c 0
EndSplineSet
Refer: 29 3484 N 1 0 0 1 134 0 2
Colour: ff0000
>>>>>>> 9091ca3d42bc76a5da6ebc1602c27821778b9009
EndChar

StartChar: si_Cha
Encoding: 28 3489 33
GlifName: si_C_ha
Width: 855
<<<<<<< HEAD
VWidth: 6
Flags: HMW
LayerCount: 2
Back
SplineSet
429 466 m 0
 430 555 512 597 573 597 c 0
 683 597 737 519 737 437 c 0
 737 306 668 259 604 259 c 0
 524 259 501 333 499 392 c 0
 493 587 631 756 823 811 c 5
 837 803 856 776 850 748 c 5
 684 708 572 595 549 454 c 0
 534 363 554 303 607 304 c 0
 665 305 693 352 693 428 c 0
 693 471 666 547 561 547 c 0
 508 547 467 509 467 459 c 0
 467 407 482 392 482 392 c 1
 444 373 l 1
 436 398 429 424 429 466 c 0
45 207 m 0
 45 365 189 427 296 427 c 0
 305 427 313 427 321 426 c 1
 297 387 l 1
 303 404 314 423 314 446 c 0
 314 503 265 536 210 536 c 0
 199 536 187 535 176 532 c 1
 209 553 l 1
 154 451 l 1
 114 453 88 476 88 510 c 0
 88 562 147 599 207 599 c 0
 281 599 351 557 351 473 c 0
 351 439 345 409 337 375 c 1
 323 377 309 378 296 378 c 0
 194 378 117 315 117 238 c 0
 117 154 199 68 393 67 c 0
 589 66 675 158 675 249 c 0
 675 292 625 375 447 375 c 1
 467 421 l 1
 492 422 517 425 540 422 c 0
 647 409 741 351 741 230 c 0
 741 60 570 -29 388 -29 c 0
 195 -29 45 62 45 207 c 0
EndSplineSet
Fore
SplineSet
429 466 m 0
 430 555 512 597 573 597 c 0
 683 597 737 519 737 437 c 0
 737 306 668 259 604 259 c 0
 524 259 501 333 499 392 c 0
 493 587 631 756 823 811 c 5
 837 803 856 776 850 748 c 5
 684 708 572 595 549 454 c 0
 534 363 554 303 607 304 c 0
 665 305 693 352 693 428 c 0
 693 471 666 547 561 547 c 0
 508 547 467 509 467 459 c 0
 467 407 482 392 482 392 c 1
 444 373 l 1
 436 398 429 424 429 466 c 0
45 207 m 0
 45 365 189 427 296 427 c 0
 305 427 313 427 321 426 c 1
 297 387 l 1
 303 404 314 423 314 446 c 0
 314 503 265 536 210 536 c 0
 199 536 187 535 176 532 c 1
 209 553 l 1
 154 451 l 1
 114 453 88 476 88 510 c 0
 88 562 147 599 207 599 c 0
 281 599 351 557 351 473 c 0
 351 439 345 409 337 375 c 1
 323 377 309 378 296 378 c 0
 194 378 117 315 117 238 c 0
 117 154 199 68 393 67 c 0
 589 66 675 158 675 249 c 0
 675 292 625 375 447 375 c 1
 467 421 l 1
 492 422 517 425 540 422 c 0
 647 409 741 351 741 230 c 0
 741 60 570 -29 388 -29 c 0
 195 -29 45 62 45 207 c 0
=======
VWidth: -24
Flags: HMW
LayerCount: 3
Back
SplineSet
604 229 m 0xfe
 523.918945312 229.434570312 500.597672879 302.774526608 498.741210938 362 c 0
 492.630275284 556.953125 631.34375 725.752929688 823 781 c 5
 837.082337152 773.388230927 855.514103776 746.009415258 850 718 c 5
 683.626953125 678.284179688 572.038899453 565.277348419 549.295898438 424 c 0
 534.585339429 332.619413546 554.078852691 272.99468962 607 274 c 0
 664.519116951 274.97345267 692.810513575 321.860245306 693 398 c 0
 693.104267165 441.102338879 665.892857143 517 561 517 c 0
 508.404761905 517 467 479.453333333 467 429 c 0
 467 377 482 362 482 362 c 1
 444 343 l 1
 436 368 428.526570112 394.002668369 429 436 c 0
 430 524.708661417 512 567 573 567 c 0
 682.688311688 567 737 489.051282051 737 407 c 0
 737 276.061523438 668.436523092 228.650326784 604 229 c 0xfe
207.01953125 569 m 0
 280.920898438 569 351.127929688 527.0234375 351.127929688 442.978515625 c 0
 351.127929688 409.3046875 345.36328125 379.30078125 337.01953125 345 c 1
 322.7265625 347.275390625 308.912109375 348.356445312 295.654296875 348.356445312 c 0
 193.576171875 348.356445312 117.010742188 284.40234375 117.010742188 207.518554688 c 0
 117.010742188 123.084960938 199.097655916 37.9911454971 393.01953125 37 c 0
 588.673828125 36 675.0390625 127.10546875 675.0390625 218.502929688 c 0
 675.0390625 261.447987808 624.796570691 345 447.01953125 345 c 1
 467.01953125 391 l 1
 492.002226434 391.564532321 516.792834057 394.606722499 539.876953125 391.83984375 c 0
 647 379 741.114257812 321.03125 741.114257812 199.946289062 c 0
 741.114257812 30.0625 570.21484375 -59 388.01953125 -59 c 0
 195.291015625 -59 45 31.798828125 45 177.118164062 c 0
 45 334.90234375 188.390625 397.203125 295.756835938 397.203125 c 0
 304.442382812 397.203125 312.895507812 396.796875 321.01953125 396 c 1
 297.01953125 357 l 1
 303.069335938 374.28515625 313.879882812 392.565429688 313.879882812 415.716796875 c 0
 313.879882812 472.971679688 264.365234375 505.75 209.526367188 505.75 c 0
 198.72265625 505.75 187.484375 504.529296875 176.01953125 502 c 1
 209.01953125 523 l 1
 154.01953125 421 l 1
 114.057617188 422.94921875 87.966796875 446.76171875 87.966796875 480.361328125 c 0
 87.966796875 532.604492188 146.654296875 569 207.01953125 569 c 0
EndSplineSet
Fore
SplineSet
604 229 m 0xfe
 523.918945312 229.434570312 500.597672879 302.774526608 498.741210938 362 c 0
 492.630275284 556.953125 631.34375 725.752929688 823 781 c 5
 837.082337152 773.388230927 855.514103776 746.009415258 850 718 c 5
 683.626953125 678.284179688 572.038899453 565.277348419 549.295898438 424 c 0
 534.585339429 332.619413546 554.078852691 272.99468962 607 274 c 0
 664.519116951 274.97345267 692.810513575 321.860245306 693 398 c 0
 693.104267165 441.102338879 665.892857143 517 561 517 c 0
 508.404761905 517 467 479.453333333 467 429 c 0
 467 377 482 362 482 362 c 1
 444 343 l 1
 436 368 428.526570112 394.002668369 429 436 c 0
 430 524.708661417 512 567 573 567 c 0
 682.688311688 567 737 489.051282051 737 407 c 0
 737 276.061523438 668.436523092 228.650326784 604 229 c 0xfe
207.01953125 569 m 0
 280.920898438 569 351.127929688 527.0234375 351.127929688 442.978515625 c 0
 351.127929688 409.3046875 345.36328125 379.30078125 337.01953125 345 c 1
 322.7265625 347.275390625 308.912109375 348.356445312 295.654296875 348.356445312 c 0
 193.576171875 348.356445312 117.010742188 284.40234375 117.010742188 207.518554688 c 0
 117.010742188 123.084960938 199.097655916 37.9911454971 393.01953125 37 c 0
 588.673828125 36 675.0390625 127.10546875 675.0390625 218.502929688 c 0
 675.0390625 261.447987808 624.796570691 345 447.01953125 345 c 1
 467.01953125 391 l 1
 492.002226434 391.564532321 516.792834057 394.606722499 539.876953125 391.83984375 c 0
 647 379 741.114257812 321.03125 741.114257812 199.946289062 c 0
 741.114257812 30.0625 570.21484375 -59 388.01953125 -59 c 0
 195.291015625 -59 45 31.798828125 45 177.118164062 c 0
 45 334.90234375 188.390625 397.203125 295.756835938 397.203125 c 0
 304.442382812 397.203125 312.895507812 396.796875 321.01953125 396 c 1
 297.01953125 357 l 1
 303.069335938 374.28515625 313.879882812 392.565429688 313.879882812 415.716796875 c 0
 313.879882812 472.971679688 264.365234375 505.75 209.526367188 505.75 c 0
 198.72265625 505.75 187.484375 504.529296875 176.01953125 502 c 1
 209.01953125 523 l 1
 154.01953125 421 l 1
 114.057617188 422.94921875 87.966796875 446.76171875 87.966796875 480.361328125 c 0
 87.966796875 532.604492188 146.654296875 569 207.01953125 569 c 0
>>>>>>> 9091ca3d42bc76a5da6ebc1602c27821778b9009
EndSplineSet
EndChar

StartChar: si_Ja
Encoding: 29 3490 34
GlifName: si_J_a
Width: 841
<<<<<<< HEAD
VWidth: 6
Flags: HMW
LayerCount: 2
Back
SplineSet
519 392 m 1
 513 587 651 756 843 811 c 5
 858 801 872 773 870 748 c 5
 704 708 592 595 569 454 c 0
 566 438 565 423 565 409 c 1
 519 392 l 1
=======
VWidth: -24
Flags: HMW
LayerCount: 3
Back
SplineSet
518.741210938 362 m 0
 512.629882812 556.953125 651.34375 725.752929688 843 781 c 5
 858.024953647 770.766370513 871.82192823 743.095701995 870 718 c 5
 703.626953125 678.284179688 592.0390625 565.27734375 569.295898438 424 c 0
 566.715820312 407.970703125 565.1875 392.918945312 564.708007812 379 c 1
 518.741210938 362 l 0
>>>>>>> 9091ca3d42bc76a5da6ebc1602c27821778b9009
EndSplineSet
Refer: 1 3508 N 1 0 0 1 0 0 2
Fore
SplineSet
<<<<<<< HEAD
519 392 m 1
 513 587 651 756 843 811 c 5
 858 801 872 773 870 748 c 5
 704 708 592 595 569 454 c 0
 566 438 565 423 565 409 c 1
 519 392 l 1
=======
518.741210938 362 m 0
 512.629882812 556.953125 651.34375 725.752929688 843 781 c 5
 858.024953647 770.766370513 871.82192823 743.095701995 870 718 c 5
 703.626953125 678.284179688 592.0390625 565.27734375 569.295898438 424 c 0
 566.715820312 407.970703125 565.1875 392.918945312 564.708007812 379 c 1
 518.741210938 362 l 0
>>>>>>> 9091ca3d42bc76a5da6ebc1602c27821778b9009
EndSplineSet
Refer: 1 3508 N 1 0 0 1 0 0 2
EndChar

StartChar: si_Ttha
Encoding: 35 3496 39
GlifName: si_T_tha
<<<<<<< HEAD
Width: 858
VWidth: 16
Flags: HMW
LayerCount: 2
Back
SplineSet
358 764 m 1
 397 778 l 1
 485 746 467 646 499 586 c 0
 529 531 612 522 705 563 c 1
 728 526 l 1
 655 479 497 451 445 556 c 0
 412 621 420 728 358 764 c 1
50 223 m 0
 50 398 196 521 320 521 c 1
 327 507 334 482 326 452 c 1
 213 452 110 393 110 250 c 0
 110 140 167 74 258 74 c 0
 338 74 383 131 383 218 c 1
 396 223 411 226 424 223 c 1
 424 124 486 70 567 70 c 0
 684 70 732 228 732 365 c 0
 734 611 534 735 358 763 c 1
 358 779 353 795 368 811 c 1
 629 771 803 582 802 351 c 0
 802 185 744 -30 563 -30 c 0
 462 -30 397 24 393 107 c 1
 411 107 l 1
 413 31 350 -29 264 -30 c 0
 133 -31 50 67 50 223 c 0
EndSplineSet
Fore
SplineSet
358 764 m 1
 397 778 l 1
 485 746 467 646 499 586 c 0
 529 531 612 522 705 563 c 1
 728 526 l 1
 655 479 497 451 445 556 c 0
 412 621 420 728 358 764 c 1
50 223 m 0
 50 398 196 521 320 521 c 1
 327 507 334 482 326 452 c 1
 213 452 110 393 110 250 c 0
 110 140 167 74 258 74 c 0
 338 74 383 131 383 218 c 1
 396 223 411 226 424 223 c 1
 424 124 486 70 567 70 c 0
 684 70 732 228 732 365 c 0
 734 611 534 735 358 763 c 1
 358 779 353 795 368 811 c 1
 629 771 803 582 802 351 c 0
 802 185 744 -30 563 -30 c 0
 462 -30 397 24 393 107 c 1
 411 107 l 1
 413 31 350 -29 264 -30 c 0
 133 -31 50 67 50 223 c 0
=======
Width: 872
VWidth: -14
Flags: HMW
LayerCount: 3
Back
SplineSet
447 305 m 1
 449.172104173 315.696674474 450.227583862 325.934097094 450.227583862 335.647527588 c 0
 450.227583862 399.63689724 404.421805161 440.886021268 330.291200025 440.886021268 c 0
 324.0576198 440.886021268 317.623755106 440.594349264 311 440 c 1
 261 358 l 1
 231 361 207 378 207 415 c 0
 207 482 279 507 332 507 c 0
 412 507 487.65625 457.983398438 492 373 c 0
 492.388618557 365.397094946 492.567825481 358.516494322 492.567825481 352.237104646 c 0
 492.567825481 317.047900947 486.940023662 300.739084134 481 282 c 1
 447 305 l 1
134.334607405 134.579525331 m 0
 134.334607405 273.21555106 276.58899028 332.18359375 393.307128906 332.18359375 c 0
 454.500976562 332.18359375 469.442382812 319 469.442382812 319 c 1
 479.442382812 293 l 1
 471.567196909 296.634701186 462.593419369 297.931916171 452.991335062 297.931916171 c 0
 430.892048119 297.931916171 405.464654565 291.060639286 382.442382812 290 c 0
 286.770582104 285.705446842 205.435199046 248.749672508 205.435199046 159.93749759 c 0
 205.435199046 112.734028958 248.164467032 70.9988908464 325.597222753 70.9988908464 c 0
 391.371029174 70.9988908464 447.442382812 111.407170368 447.442382812 205 c 1
 454.446289062 205.030273438 479.297851562 205.259765625 486 205.6796875 c 1
 486 108.131855964 550.38151485 70.9972351985 605.857616037 70.9972351985 c 0
 688.250858861 70.9972351985 741.608651451 153.813745779 741.608651451 330.344505391 c 0
 741.608651451 558.229662505 594.831483005 663.057865136 448.350938349 663.057865136 c 0
 310.452222363 663.057865136 223.517464139 574 220.442382812 574 c 1
 187.442382812 625 l 1
 237.126537827 662.855611436 325.646866457 712.005017302 443.381516012 712.005017302 c 0
 666.342109112 712.005017302 817.450049384 548.454112945 817.450049384 308.62636563 c 0
 817.450049384 145.955633454 764.575054261 -41.0517111095 604.110336323 -41.0517111095 c 0
 536.51562506 -41.0517111095 482.781066421 -11.0987465788 463.442382812 51 c 1
 440.54495888 -16.622080892 372.088849063 -41.0022811445 313.973389848 -41.0022811445 c 0
 220.16162493 -41.0022811445 134.334607405 11.8777429797 134.334607405 134.579525331 c 0
EndSplineSet
Fore
SplineSet
447 305 m 1
 449.172104173 315.696674474 450.227583862 325.934097094 450.227583862 335.647527588 c 0
 450.227583862 399.63689724 404.421805161 440.886021268 330.291200025 440.886021268 c 0
 324.0576198 440.886021268 317.623755106 440.594349264 311 440 c 1
 261 358 l 1
 231 361 207 378 207 415 c 0
 207 482 279 507 332 507 c 0
 412 507 487.65625 457.983398438 492 373 c 0
 492.388618557 365.397094946 492.567825481 358.516494322 492.567825481 352.237104646 c 0
 492.567825481 317.047900947 486.940023662 300.739084134 481 282 c 1
 447 305 l 1
134.334607405 134.579525331 m 0
 134.334607405 273.21555106 276.58899028 332.18359375 393.307128906 332.18359375 c 0
 454.500976562 332.18359375 469.442382812 319 469.442382812 319 c 1
 479.442382812 293 l 1
 471.567196909 296.634701186 462.593419369 297.931916171 452.991335062 297.931916171 c 0
 430.892048119 297.931916171 405.464654565 291.060639286 382.442382812 290 c 0
 286.770582104 285.705446842 205.435199046 248.749672508 205.435199046 159.93749759 c 0
 205.435199046 112.734028958 248.164467032 70.9988908464 325.597222753 70.9988908464 c 0
 391.371029174 70.9988908464 447.442382812 111.407170368 447.442382812 205 c 1
 454.446289062 205.030273438 479.297851562 205.259765625 486 205.6796875 c 1
 486 108.131855964 550.38151485 70.9972351985 605.857616037 70.9972351985 c 0
 688.250858861 70.9972351985 741.608651451 153.813745779 741.608651451 330.344505391 c 0
 741.608651451 558.229662505 594.831483005 663.057865136 448.350938349 663.057865136 c 0
 310.452222363 663.057865136 223.517464139 574 220.442382812 574 c 1
 187.442382812 625 l 1
 237.126537827 662.855611436 325.646866457 712.005017302 443.381516012 712.005017302 c 0
 666.342109112 712.005017302 817.450049384 548.454112945 817.450049384 308.62636563 c 0
 817.450049384 145.955633454 764.575054261 -41.0517111095 604.110336323 -41.0517111095 c 0
 536.51562506 -41.0517111095 482.781066421 -11.0987465788 463.442382812 51 c 1
 440.54495888 -16.622080892 372.088849063 -41.0022811445 313.973389848 -41.0022811445 c 0
 220.16162493 -41.0022811445 134.334607405 11.8777429797 134.334607405 134.579525331 c 0
>>>>>>> 9091ca3d42bc76a5da6ebc1602c27821778b9009
EndSplineSet
EndChar

StartChar: si_Dda
Encoding: 36 3497 40
GlifName: si_D_da
<<<<<<< HEAD
Width: 917
VWidth: 16
Flags: HMW
LayerCount: 2
Back
SplineSet
121 162 m 4
 123 301 264 381 375 382 c 5
 365 350 l 5
 274 350 191 267 191 190 c 4
 191 131 240 74 319 74 c 4
 399 74 444 131 444 218 c 5
 457 223 472 226 485 223 c 5
 485 124 537 70 618 70 c 4
 735 70 793 221 793 358 c 4
 793 595 656 710 453 710 c 4
 313 710 218 638 215 638 c 5
 200 654 194 684 199 704 c 5
 251 736 341 769 467 769 c 4
 689 769 861 605 861 358 c 4
 861 192 795 -30 614 -30 c 4
 513 -30 458 24 454 107 c 5
 472 107 l 5
 474 21 401 -29 315 -30 c 4
 203 -31 119 43 121 162 c 4
40 386 m 5
 454 383 l 5
 449 341 l 5
 146 341 l 5
 42 324 l 5
 31 338 24 367 40 386 c 5
179 469 m 4
 179 536 248 560 301 560 c 4
 391 560 462 510 462 410 c 4
 462 376 455 360 449 341 c 5
 416 363 l 5
 418 374 419 384 419 394 c 4
 419 458 373 494 299 494 c 4
 293 494 287 494 280 493 c 5
 233 415 l 5
 203 418 179 432 179 469 c 4
EndSplineSet
Fore
SplineSet
121 162 m 4
 123 301 264 381 375 382 c 5
 365 350 l 5
 274 350 191 267 191 190 c 4
 191 131 240 74 319 74 c 4
 399 74 444 131 444 218 c 5
 457 223 472 226 485 223 c 5
 485 124 537 70 618 70 c 4
 735 70 793 221 793 358 c 4
 793 595 656 710 453 710 c 4
 313 710 218 638 215 638 c 5
 200 654 194 684 199 704 c 5
 251 736 341 769 467 769 c 4
 689 769 861 605 861 358 c 4
 861 192 795 -30 614 -30 c 4
 513 -30 458 24 454 107 c 5
 472 107 l 5
 474 21 401 -29 315 -30 c 4
 203 -31 119 43 121 162 c 4
40 386 m 5
 454 383 l 5
 449 341 l 5
 146 341 l 5
 42 324 l 5
 31 338 24 367 40 386 c 5
179 469 m 4
 179 536 248 560 301 560 c 4
 391 560 462 510 462 410 c 4
 462 376 455 360 449 341 c 5
 416 363 l 5
 418 374 419 384 419 394 c 4
 419 458 373 494 299 494 c 4
 293 494 287 494 280 493 c 5
 233 415 l 5
 203 418 179 432 179 469 c 4
=======
Width: 880
VWidth: -14
Flags: HMW
LayerCount: 3
Back
SplineSet
419.9609375 685.259765625 m 0
 330.626904612 685.259765625 260.679150602 654.611239207 219.7890625 630.07421875 c 1
 206.64166512 638.690868362 197.13671875 675.057617188 208.092773438 698.413085938 c 1
 265.267578125 725.336914062 324.510464651 739.006835938 421.509765625 739.006835938 c 0
 648.682356593 739.006835938 825.450195312 574.588166798 825.450195312 316.625 c 0
 825.450195312 150.355622609 769.649213195 -42 601.009765625 -42 c 0
 525.294079316 -42 465.104327053 -11.0987465788 443.442382812 51 c 1
 420.08559888 -16.6407284114 350.243275455 -42 290.967773438 -42 c 0
 192.490000084 -42 101.413085938 10.6818988978 101.413085938 131.486328125 c 0
 101.413085938 271.767770741 215.656035683 351.260405393 313.442382812 352 c 0
 304.166992188 320.391601562 l 1
 228.461176063 320.391601562 172.439453125 251.797517427 172.439453125 176.115234375 c 0
 172.439453125 110.336027146 215.283658113 61 293.64453125 61 c 0
 365.165152991 61 427.442382812 101.407262976 427.442382812 195 c 1
 434.446289399 199.26831435 459.297851562 203.076171875 466 197.6796875 c 1
 466 102.482421875 532.490043127 61 611.086914062 61 c 0
 695.497523747 61 754.629882812 157.26038484 754.629882812 329.989257812 c 0
 754.629882812 536.509180506 637.416850847 685.259765625 419.9609375 685.259765625 c 0
29 365 m 5
 443 362 l 1
 438 320 l 1
 135 320 l 1
 31 303 l 5
 20.3193359375 317.057617188 13.3515625 346.249023438 29 365 c 5
405 342 m 1
 407.172074024 352.696651211 408.227539062 362.934051568 408.227539062 372.647460938 c 0
 408.227539062 436.636701423 362.421707046 477.885742188 288.291015625 477.885742188 c 0
 282.057494985 477.885742188 275.623691791 477.594162055 269 477 c 1
 219 395 l 1
 189 398 165 415 165 452 c 0
 165 519 237 544 290 544 c 0
 380.079106345 544 450.567382812 488.989632509 450.567382812 389.237304688 c 0
 450.567382812 355.048002208 443.940220452 338.739311954 438 320 c 1
 405 342 l 1
EndSplineSet
Fore
SplineSet
419.9609375 685.259765625 m 0
 330.626904612 685.259765625 260.679150602 654.611239207 219.7890625 630.07421875 c 1
 206.64166512 638.690868362 197.13671875 675.057617188 208.092773438 698.413085938 c 1
 265.267578125 725.336914062 324.510464651 739.006835938 421.509765625 739.006835938 c 0
 648.682356593 739.006835938 825.450195312 574.588166798 825.450195312 316.625 c 0
 825.450195312 150.355622609 769.649213195 -42 601.009765625 -42 c 0
 525.294079316 -42 465.104327053 -11.0987465788 443.442382812 51 c 1
 420.08559888 -16.6407284114 350.243275455 -42 290.967773438 -42 c 0
 192.490000084 -42 101.413085938 10.6818988978 101.413085938 131.486328125 c 0
 101.413085938 271.767770741 215.656035683 351.260405393 313.442382812 352 c 0
 304.166992188 320.391601562 l 1
 228.461176063 320.391601562 172.439453125 251.797517427 172.439453125 176.115234375 c 0
 172.439453125 110.336027146 215.283658113 61 293.64453125 61 c 0
 365.165152991 61 427.442382812 101.407262976 427.442382812 195 c 1
 434.446289399 199.26831435 459.297851562 203.076171875 466 197.6796875 c 1
 466 102.482421875 532.490043127 61 611.086914062 61 c 0
 695.497523747 61 754.629882812 157.26038484 754.629882812 329.989257812 c 0
 754.629882812 536.509180506 637.416850847 685.259765625 419.9609375 685.259765625 c 0
29 365 m 5
 443 362 l 1
 438 320 l 1
 135 320 l 1
 31 303 l 5
 20.3193359375 317.057617188 13.3515625 346.249023438 29 365 c 5
405 342 m 1
 407.172074024 352.696651211 408.227539062 362.934051568 408.227539062 372.647460938 c 0
 408.227539062 436.636701423 362.421707046 477.885742188 288.291015625 477.885742188 c 0
 282.057494985 477.885742188 275.623691791 477.594162055 269 477 c 1
 219 395 l 1
 189 398 165 415 165 452 c 0
 165 519 237 544 290 544 c 0
 380.079106345 544 450.567382812 488.989632509 450.567382812 389.237304688 c 0
 450.567382812 355.048002208 443.940220452 338.739311954 438 320 c 1
 405 342 l 1
>>>>>>> 9091ca3d42bc76a5da6ebc1602c27821778b9009
EndSplineSet
EndChar

StartChar: si_Nna
Encoding: 38 3499 42
GlifName: si_N_na
<<<<<<< HEAD
Width: 1394
VWidth: 30
Flags: HMW
LayerCount: 2
Back
SplineSet
761 315 m 1
 750 481 852 516 902 516 c 0
 948 516 1012 490 1017 409 c 1
 1017 403 l 1
 1028 486 1099 516 1149 516 c 0
 1254 516 1339 442 1339 259 c 0
 1339 120 1289 -30 1133 -30 c 0
 1034 -30 964 18 964 172 c 1
 983 180 1003 177 1011 172 c 1
 1012 64 1067 39 1123 39 c 0
 1207 39 1234 147 1236 238 c 0
 1239 397 1209 458 1140 458 c 0
 1083 458 1045 388 1045 266 c 1
 1030 258 1003 255 991 263 c 1
 990 388 960 457 900 458 c 0
 797 460 806 294 775 174 c 1
 761 315 l 1
35 125 m 257
 264 362 713 693 977 856 c 257
 993 851 1011 825 1012 809 c 257
 777 678 310 335 146 162 c 257
 221 162 268 57 459 57 c 256
 622 57 703 175 703 300 c 256
 703 461 578 554 458 554 c 256
 324 554 240 474 240 373 c 256
 240 211 398 194 462 194 c 0
 494 194 531 220 531 263 c 256
 531 304 504 337 463 337 c 256
 422 337 395 304 395 263 c 256
 395 222 424 192 455 192 c 257
 455 146 l 257
 406 146 360 205 360 264 c 256
 360 333 412 385 481 385 c 256
 556 385 597 331 597 272 c 256
 597 200 545 135 446 135 c 256
 305 135 196 222 196 356 c 256
 196 515 332 615 489 615 c 256
 665 615 794 479 794 292 c 256
 794 173 728 -32 466 -32 c 256
 249 -32 237 123 134 123 c 256
 101 123 83 104 67 90 c 257
 43 98 31 114 35 125 c 257
EndSplineSet
Fore
SplineSet
761 315 m 1
 750 481 852 516 902 516 c 0
 948 516 1012 490 1017 409 c 1
 1017 403 l 1
 1028 486 1099 516 1149 516 c 0
 1254 516 1339 442 1339 259 c 0
 1339 120 1289 -30 1133 -30 c 0
 1034 -30 964 18 964 172 c 1
 983 180 1003 177 1011 172 c 1
 1012 64 1067 39 1123 39 c 0
 1207 39 1234 147 1236 238 c 0
 1239 397 1209 458 1140 458 c 0
 1083 458 1045 388 1045 266 c 1
 1030 258 1003 255 991 263 c 1
 990 388 960 457 900 458 c 0
 797 460 806 294 775 174 c 1
 761 315 l 1
35 125 m 257
 264 362 713 693 977 856 c 257
 993 851 1011 825 1012 809 c 257
 777 678 310 335 146 162 c 257
 221 162 268 57 459 57 c 256
 622 57 703 175 703 300 c 256
 703 461 578 554 458 554 c 256
 324 554 240 474 240 373 c 256
 240 211 398 194 462 194 c 0
 494 194 531 220 531 263 c 256
 531 304 504 337 463 337 c 256
 422 337 395 304 395 263 c 256
 395 222 424 192 455 192 c 257
 455 146 l 257
 406 146 360 205 360 264 c 256
 360 333 412 385 481 385 c 256
 556 385 597 331 597 272 c 256
 597 200 545 135 446 135 c 256
 305 135 196 222 196 356 c 256
 196 515 332 615 489 615 c 256
 665 615 794 479 794 292 c 256
 794 173 728 -32 466 -32 c 256
 249 -32 237 123 134 123 c 256
 101 123 83 104 67 90 c 257
 43 98 31 114 35 125 c 257
=======
Width: 1391
VWidth: 0
Flags: HMW
LayerCount: 3
Back
SplineSet
882.641601562 438 m 0
 779.407226562 439.573242188 789.25390625 274.489257812 758 154 c 1
 743.650390625 294.952148438 l 1
 733.047851562 461.182617188 833.89453125 496 884.39453125 496 c 0
 930.701171875 496 995.076171875 469.759765625 1000 389 c 1
 1000 383 l 1
 1011.10546875 466.3984375 1081.39453125 496 1131.18554688 496 c 0
 1236.55078125 496 1322.02246094 421.87109375 1322.02246094 239.342773438 c 0
 1322.02246094 100.765625 1271.69140625 -50.0009765625 1115.8125 -50.0009765625 c 0
 1017.11328125 -50.0009765625 946.904296875 -2.419921875 946.904296875 152 c 1
 965.87890625 160.215820312 985.612304688 156.944335938 994 152 c 1
 995.497070312 43.7373046875 1049.10546875 18.9990234375 1105.32910156 18.9990234375 c 0
 1189.765625 18.9990234375 1217.2421875 126.62109375 1219.04394531 217.5859375 c 0
 1222.04394531 376.262695312 1191.49316406 438 1122.24511719 438 c 0
 1065.09082031 438 1027.87304688 367.790039062 1027.87304688 246 c 1
 1012.91503906 237.690429688 985.958007812 234.689453125 974 243 c 1
 972.920898438 367.759765625 943.047851562 437.206054688 882.641601562 438 c 0
222.620117188 352.629882812 m 256
 222.620117188 190.885742188 380.401367188 173.98828125 444.173828125 173.98828125 c 0
 475.994140625 173.98828125 513.83984375 199.447265625 513.83984375 242.740234375 c 256
 513.83984375 283.330078125 485.860351562 316.540039062 445.26953125 316.540039062 c 256
 404.6796875 316.540039062 377.469726562 283.330078125 377.469726562 242.740234375 c 256
 377.469726562 202.150390625 406.6796875 171.940429688 437.26953125 171.940429688 c 257
 437.26953125 126.26953125 l 257
 388.23046875 126.26953125 343.030273438 184.76953125 343.030273438 243.809570312 c 256
 343.030273438 312.849609375 394.23046875 364.75 463.26953125 364.75 c 256
 538.309570312 364.75 579.509765625 310.549804688 579.509765625 251.509765625 c 256
 579.509765625 179.440429688 527.5390625 114.66015625 428.990234375 114.66015625 c 256
 287.6171875 114.66015625 178.1796875 202.720703125 178.1796875 336.48046875 c 256
 178.1796875 495.790039062 314.600585938 595.049804688 471.1796875 595.049804688 c 256
 647.391601562 595.049804688 776.700195312 458.84375 776.700195312 271.83984375 c 256
 776.700195312 152.530273438 710.125976562 -52 448.509765625 -52 c 256
 231.471679688 -52 220.27734375 102.91015625 116.91015625 102.91015625 c 256
 83.7001953125 102.91015625 65.08984375 83.919921875 49.259765625 69.7001953125 c 257
 24.9208984375 78.0771484375 13.1708984375 94.18359375 17.4296875 105.219726562 c 257
 246.334960938 342.590820312 696.352539062 672.549804688 959.969726562 835.549804688 c 261
 975.79568244 830.696846383 993.618368672 804.708602299 994.5703125 788.969726562 c 261
 759.614257812 658.169921875 292.568359375 315.106445312 128.360351562 141.889648438 c 257
 203.625 141.889648438 250.989257812 37.330078125 441.66015625 37.330078125 c 256
 604.568359375 37.330078125 685.280273438 154.669921875 685.280273438 280.129882812 c 256
 685.280273438 440.740234375 560.46484375 534.299804688 440.719726562 534.299804688 c 256
 306.999023438 534.299804688 222.620117188 453.1953125 222.620117188 352.629882812 c 256
EndSplineSet
Fore
SplineSet
882.641601562 438 m 0
 779.407226562 439.573242188 789.25390625 274.489257812 758 154 c 1
 743.650390625 294.952148438 l 1
 733.047851562 461.182617188 833.89453125 496 884.39453125 496 c 0
 930.701171875 496 995.076171875 469.759765625 1000 389 c 1
 1000 383 l 1
 1011.10546875 466.3984375 1081.39453125 496 1131.18554688 496 c 0
 1236.55078125 496 1322.02246094 421.87109375 1322.02246094 239.342773438 c 0
 1322.02246094 100.765625 1271.69140625 -50.0009765625 1115.8125 -50.0009765625 c 0
 1017.11328125 -50.0009765625 946.904296875 -2.419921875 946.904296875 152 c 1
 965.87890625 160.215820312 985.612304688 156.944335938 994 152 c 1
 995.497070312 43.7373046875 1049.10546875 18.9990234375 1105.32910156 18.9990234375 c 0
 1189.765625 18.9990234375 1217.2421875 126.62109375 1219.04394531 217.5859375 c 0
 1222.04394531 376.262695312 1191.49316406 438 1122.24511719 438 c 0
 1065.09082031 438 1027.87304688 367.790039062 1027.87304688 246 c 1
 1012.91503906 237.690429688 985.958007812 234.689453125 974 243 c 1
 972.920898438 367.759765625 943.047851562 437.206054688 882.641601562 438 c 0
222.620117188 352.629882812 m 256
 222.620117188 190.885742188 380.401367188 173.98828125 444.173828125 173.98828125 c 0
 475.994140625 173.98828125 513.83984375 199.447265625 513.83984375 242.740234375 c 256
 513.83984375 283.330078125 485.860351562 316.540039062 445.26953125 316.540039062 c 256
 404.6796875 316.540039062 377.469726562 283.330078125 377.469726562 242.740234375 c 256
 377.469726562 202.150390625 406.6796875 171.940429688 437.26953125 171.940429688 c 257
 437.26953125 126.26953125 l 257
 388.23046875 126.26953125 343.030273438 184.76953125 343.030273438 243.809570312 c 256
 343.030273438 312.849609375 394.23046875 364.75 463.26953125 364.75 c 256
 538.309570312 364.75 579.509765625 310.549804688 579.509765625 251.509765625 c 256
 579.509765625 179.440429688 527.5390625 114.66015625 428.990234375 114.66015625 c 256
 287.6171875 114.66015625 178.1796875 202.720703125 178.1796875 336.48046875 c 256
 178.1796875 495.790039062 314.600585938 595.049804688 471.1796875 595.049804688 c 256
 647.391601562 595.049804688 776.700195312 458.84375 776.700195312 271.83984375 c 256
 776.700195312 152.530273438 710.125976562 -52 448.509765625 -52 c 256
 231.471679688 -52 220.27734375 102.91015625 116.91015625 102.91015625 c 256
 83.7001953125 102.91015625 65.08984375 83.919921875 49.259765625 69.7001953125 c 257
 24.9208984375 78.0771484375 13.1708984375 94.18359375 17.4296875 105.219726562 c 257
 246.334960938 342.590820312 696.352539062 672.549804688 959.969726562 835.549804688 c 261
 975.79568244 830.696846383 993.618368672 804.708602299 994.5703125 788.969726562 c 261
 759.614257812 658.169921875 292.568359375 315.106445312 128.360351562 141.889648438 c 257
 203.625 141.889648438 250.989257812 37.330078125 441.66015625 37.330078125 c 256
 604.568359375 37.330078125 685.280273438 154.669921875 685.280273438 280.129882812 c 256
 685.280273438 440.740234375 560.46484375 534.299804688 440.719726562 534.299804688 c 256
 306.999023438 534.299804688 222.620117188 453.1953125 222.620117188 352.629882812 c 256
>>>>>>> 9091ca3d42bc76a5da6ebc1602c27821778b9009
EndSplineSet
EndChar

StartChar: si_Tha
Encoding: 41 3502 44
GlifName: si_T_ha
<<<<<<< HEAD
Width: 802
VWidth: 16
Flags: HMW
LayerCount: 2
Back
SplineSet
302 764 m 1
 341 778 l 1
 429 746 411 646 443 586 c 0
 473 531 556 522 649 563 c 1
 672 526 l 1
 599 479 441 451 389 556 c 0
 356 621 364 728 302 764 c 1
50 253 m 0
 50 432 183 531 315 531 c 1
 321 521 327 485 320 466 c 5
 185 466 107 389 107 279 c 0
 107 153 217 64 391 64 c 0
 586 64 673 226 675 376 c 0
 677 622 478 735 302 763 c 1
 302 779 297 795 312 811 c 1
 573 771 747 591 747 361 c 0
 747 131 606 -36 389 -36 c 0
 155 -36 50 108 50 253 c 0
EndSplineSet
Fore
SplineSet
302 764 m 1
 341 778 l 1
 429 746 411 646 443 586 c 0
 473 531 556 522 649 563 c 1
 672 526 l 1
 599 479 441 451 389 556 c 0
 356 621 364 728 302 764 c 1
50 253 m 0
 50 432 183 531 315 531 c 1
 321 521 327 485 320 466 c 5
 185 466 107 389 107 279 c 0
 107 153 217 64 391 64 c 0
 586 64 673 226 675 376 c 0
 677 622 478 735 302 763 c 1
 302 779 297 795 312 811 c 1
 573 771 747 591 747 361 c 0
 747 131 606 -36 389 -36 c 0
 155 -36 50 108 50 253 c 0
=======
Width: 811
VWidth: -14
Flags: HMW
LayerCount: 3
Back
SplineSet
310.81640625 734.124023438 m 1
 350 748.124023438 l 1
 437.693359375 716.4140625 419.575195312 616.358398438 452.033203125 556.356445312 c 0
 481.755859375 501.41015625 564.594726562 491.95703125 658 533 c 1
 681 496 l 1
 608.212890625 449.369140625 450.287109375 421.567382812 398.029296875 526.12109375 c 0
 365.484375 591.235351562 372.3984375 697.697265625 310.81640625 734.124023438 c 1
408.971679688 40.9716796875 m 0
 604.291992188 40.9716796875 682.483398438 195.509765625 684 346 c 0
 686.436523438 591.587890625 487.467773438 705.0703125 311 733 c 1
 321 781 l 1
 582.01171875 741.120117188 756 561.309570312 756 331 c 0
 756 100.676757812 620.922851562 -58.578125 404.182617188 -58.578125 c 0
 169.877929688 -58.578125 58.841796875 77.7734375 58.841796875 223.12109375 c 0
 58.841796875 412.412109375 192.012695312 500.8046875 323.893554688 500.8046875 c 0
 328.850585938 449.663085938 l 0
 203.975585938 449.663085938 128.99609375 363.698242188 128.99609375 253.989257812 c 0
 128.99609375 128.466796875 234.825195312 40.9716796875 408.971679688 40.9716796875 c 0
EndSplineSet
Fore
SplineSet
310.81640625 734.124023438 m 1
 350 748.124023438 l 1
 437.693359375 716.4140625 419.575195312 616.358398438 452.033203125 556.356445312 c 0
 481.755859375 501.41015625 564.594726562 491.95703125 658 533 c 1
 681 496 l 1
 608.212890625 449.369140625 450.287109375 421.567382812 398.029296875 526.12109375 c 0
 365.484375 591.235351562 372.3984375 697.697265625 310.81640625 734.124023438 c 1
408.971679688 40.9716796875 m 0
 604.291992188 40.9716796875 682.483398438 195.509765625 684 346 c 0
 686.436523438 591.587890625 487.467773438 705.0703125 311 733 c 1
 321 781 l 1
 582.01171875 741.120117188 756 561.309570312 756 331 c 0
 756 100.676757812 620.922851562 -58.578125 404.182617188 -58.578125 c 0
 169.877929688 -58.578125 58.841796875 77.7734375 58.841796875 223.12109375 c 0
 58.841796875 412.412109375 192.012695312 500.8046875 323.893554688 500.8046875 c 0
 328.850585938 449.663085938 l 0
 203.975585938 449.663085938 128.99609375 363.698242188 128.99609375 253.989257812 c 0
 128.99609375 128.466796875 234.825195312 40.9716796875 408.971679688 40.9716796875 c 0
>>>>>>> 9091ca3d42bc76a5da6ebc1602c27821778b9009
EndSplineSet
EndChar

StartChar: si_Da
Encoding: 42 3503 45
GlifName: si_D_a
<<<<<<< HEAD
Width: 661
VWidth: -17
Flags: HMW
LayerCount: 2
Back
SplineSet
45 193 m 0
 45 351 211 424 404 424 c 0
 462 424 503 415 503 415 c 1
 503 417 492 405 492 408 c 0
 492 495 399 529 340 529 c 0
 333 529 327 529 322 528 c 1
 266 439 l 1
 227 442 207 471 207 501 c 0
 207 571 277 601 340 601 c 0
 425 601 527 549 527 440 c 0
 527 400 519 376 517 373 c 1
 484 376 453 377 425 377 c 0
 244 377 155 321 155 213 c 0
 155 120 238 52 372 52 c 0
 425 52 506 67 553 91 c 1
 565 87 568 59 563 49 c 1
 470 8 430 -66 418 -118 c 0
 414 -134 411 -153 411 -174 c 0
 411 -233 437 -304 549 -330 c 1
 548 -340 539 -351 526 -359 c 1
 517 -360 508 -361 500 -361 c 0
 375 -361 320 -263 320 -195 c 0
 320 -111 376 -3 513 46 c 1
 497 32 l 1
 430 6 365 -6 306 -6 c 0
 155 -6 45 72 45 193 c 0
EndSplineSet
Fore
SplineSet
55 202.538085938 m 0
 55 360.041015625 220.904296875 434.005859375 413.557617188 434.005859375 c 0
 471.249023438 434.005859375 495.015625 425 495.015625 425 c 1
 495.015625 427.5 484.015625 415.474609375 484.015625 418 c 0
 484.015625 505.44140625 409.334960938 539.203125 350.072265625 539.203125 c 0
 343.548828125 539.203125 337.469726562 538.79296875 332.015625 538 c 1
 257.015625 439 l 1
 218.368164062 441.520507812 186.760742188 480.239257812 186.760742188 510.63671875 c 0
 186.760742188 580.732421875 256.716796875 621 330.015625 621 c 0
 435.252929688 621 536.80078125 559.046875 536.80078125 449.775390625 c 0
 536.80078125 409.609375 529.015625 369.321289062 527.015625 366 c 1
 493.786132812 368.981445312 463.032226562 370.431640625 434.676757812 370.431640625 c 0
 262.321737998 370.431640625 225.227539062 290.80859375 225.227539062 223.088867188 c 0
 225.227539062 160.033203125 293.237239986 92.123046875 391.541992188 92.123046875 c 0
 444.654296875 92.123046875 525.810546875 106.853515625 573.015625 131 c 1
 585.103515625 126.50390625 607.823242188 98.857421875 603.015625 89 c 1
 509.79296875 47.724609375 459.576171875 -55.525390625 448.015625 -108 c 0
 444.08203125 -123.880859375 440.801757812 -143.514648438 440.801757812 -164.483398438 c 0
 440.801757812 -223.854492188 457.104492188 -293.924804688 569.374023438 -319.80859375 c 1
 567.901017461 -329.6328125 558.775390625 -351.45703125 546.106445312 -359.28125 c 1
 537.046875 -360.194335938 528.325195312 -360.630859375 519.93359375 -360.630859375 c 0
 382.559902319 -360.630859375 289.922851562 -277.846315523 289.922851562 -185.143554688 c 4
 289.922851562 -56.5229672316 414.960101224 34.9441668101 533.015625 86 c 5
 517.015625 42 l 1
 450.030273438 16.193359375 384.991210938 4.3271484375 326.096679688 4.3271484375 c 0
 175.448242188 4.3271484375 55 81.9677734373 55 202.538085938 c 0
=======
Width: 619
VWidth: -17
Flags: HMW
LayerCount: 3
Back
SplineSet
45 162.538085938 m 0
 45 320.041015625 210.904296875 394.005859375 403.557617188 394.005859375 c 0
 461.249023438 394.005859375 503.015625 385 503.015625 385 c 1
 503.015625 387.5 492.015625 375.474609375 492.015625 378 c 0
 492.015625 465.44140625 399.334960938 499.203125 340.072265625 499.203125 c 0
 333.548828125 499.203125 327.469726562 498.79296875 322.015625 498 c 1
 266.015625 409 l 1
 227.368164062 411.520507812 206.760742188 440.239257812 206.760742188 470.63671875 c 0
 206.760742188 540.732216144 276.717224938 571 340.015625 571 c 0
 425.252633458 571 526.80078125 519.046658633 526.80078125 409.775390625 c 0
 526.80078125 369.609077039 519.015625 346.321308109 517.015625 343 c 1
 483.786132812 345.981445312 453.032226562 347.431640625 424.676757812 347.431640625 c 0
 244.092503061 347.431640625 155.227539062 290.808438099 155.227539062 183.088867188 c 0
 155.227539062 90.033203125 237.927734375 22.123046875 371.541992188 22.123046875 c 0
 424.654296875 22.123046875 505.810546875 36.853515625 553.015625 61 c 5
 565.103515625 56.50390625 567.823242188 28.857421875 563.015625 19 c 5
 469.79296875 -22.275390625 429.576171875 -95.525390625 418.015625 -148 c 0
 414.08203125 -163.880859375 410.801757812 -183.514648438 410.801757812 -204.483398438 c 0
 410.801757812 -263.854492188 437.104492188 -333.924804688 549.374023438 -359.80859375 c 1
 547.901017461 -369.6328125 538.774936057 -381.45703125 526.106445312 -389.28125 c 1
 517.046875 -390.194335938 508.325195312 -390.630859375 499.93359375 -390.630859375 c 0
 374.504882812 -390.630859375 319.922851562 -293.12890625 319.922851562 -225.143554688 c 0
 319.922851562 -141.266601562 376.318359375 -33.1728515625 513.015625 16 c 1
 497.015625 2 l 1
 430.030273438 -23.806640625 364.991210938 -35.6728515625 306.096679688 -35.6728515625 c 0
 155.448242188 -35.6728515625 45 41.9677734375 45 162.538085938 c 0
EndSplineSet
Fore
SplineSet
45 162.538085938 m 0
 45 320.041015625 210.904296875 394.005859375 403.557617188 394.005859375 c 0
 461.249023438 394.005859375 503.015625 385 503.015625 385 c 1
 503.015625 387.5 492.015625 375.474609375 492.015625 378 c 0
 492.015625 465.44140625 399.334960938 499.203125 340.072265625 499.203125 c 0
 333.548828125 499.203125 327.469726562 498.79296875 322.015625 498 c 1
 266.015625 409 l 1
 227.368164062 411.520507812 206.760742188 440.239257812 206.760742188 470.63671875 c 0
 206.760742188 540.732216144 276.717224938 571 340.015625 571 c 0
 425.252633458 571 526.80078125 519.046658633 526.80078125 409.775390625 c 0
 526.80078125 369.609077039 519.015625 346.321308109 517.015625 343 c 1
 483.786132812 345.981445312 453.032226562 347.431640625 424.676757812 347.431640625 c 0
 244.092503061 347.431640625 155.227539062 290.808438099 155.227539062 183.088867188 c 0
 155.227539062 90.033203125 237.927734375 22.123046875 371.541992188 22.123046875 c 0
 424.654296875 22.123046875 505.810546875 36.853515625 553.015625 61 c 5
 565.103515625 56.50390625 567.823242188 28.857421875 563.015625 19 c 5
 469.79296875 -22.275390625 429.576171875 -95.525390625 418.015625 -148 c 0
 414.08203125 -163.880859375 410.801757812 -183.514648438 410.801757812 -204.483398438 c 0
 410.801757812 -263.854492188 437.104492188 -333.924804688 549.374023438 -359.80859375 c 1
 547.901017461 -369.6328125 538.774936057 -381.45703125 526.106445312 -389.28125 c 1
 517.046875 -390.194335938 508.325195312 -390.630859375 499.93359375 -390.630859375 c 0
 374.504882812 -390.630859375 319.922851562 -293.12890625 319.922851562 -225.143554688 c 0
 319.922851562 -141.266601562 376.318359375 -33.1728515625 513.015625 16 c 1
 497.015625 2 l 1
 430.030273438 -23.806640625 364.991210938 -35.6728515625 306.096679688 -35.6728515625 c 0
 155.448242188 -35.6728515625 45 41.9677734375 45 162.538085938 c 0
>>>>>>> 9091ca3d42bc76a5da6ebc1602c27821778b9009
EndSplineSet
EndChar

StartChar: si_Dha
Encoding: 43 3504 46
GlifName: si_D_ha
<<<<<<< HEAD
Width: 865
VWidth: 16
Flags: HMW
LayerCount: 2
Back
SplineSet
50 222 m 4
 50 394 188 501 312 501 c 4
 372 501 403 482 403 482 c 5
 404 462 400 446 390 437 c 5
 367 448 338 453 308 453 c 4
 215 453 120 365 120 250 c 4
 120 160 177 74 268 74 c 4
 348 74 393 131 393 218 c 5
 406 223 421 226 434 223 c 5
 434 124 486 70 567 70 c 4
 684 70 742 221 742 358 c 4
 742 595 602 710 402 710 c 4
 262 710 167 638 164 638 c 5
 149 654 143 684 148 704 c 5
 200 736 290 769 416 769 c 4
 638 769 810 605 810 358 c 4
 810 192 744 -30 563 -30 c 4
 462 -30 407 24 403 107 c 5
 421 107 l 5
 423 21 350 -29 264 -30 c 4
 140 -31 50 66 50 222 c 4
EndSplineSet
Fore
SplineSet
50 222 m 4
 50 394 188 501 312 501 c 4
 372 501 403 482 403 482 c 5
 404 462 400 446 390 437 c 5
 367 448 338 453 308 453 c 4
 215 453 120 365 120 250 c 4
 120 160 177 74 268 74 c 4
 348 74 393 131 393 218 c 5
 406 223 421 226 434 223 c 5
 434 124 486 70 567 70 c 4
 684 70 742 221 742 358 c 4
 742 595 602 710 402 710 c 4
 262 710 167 638 164 638 c 5
 149 654 143 684 148 704 c 5
 200 736 290 769 416 769 c 4
 638 769 810 605 810 358 c 4
 810 192 744 -30 563 -30 c 4
 462 -30 407 24 403 107 c 5
 421 107 l 5
 423 21 350 -29 264 -30 c 4
 140 -31 50 66 50 222 c 4
=======
Width: 845
VWidth: -14
Flags: HMW
AnchorPoint: "si_MaU" 739 211 basechar 0
LayerCount: 3
Back
SplineSet
254.680664062 -40 m 4
 151.012517581 -41.212656981 48.37890625 36.5471136398 48.37890625 192.37890625 c 0
 48.37890625 364.814917227 177.972814592 450.603515625 301.880859375 450.603515625 c 0
 361.659179688 450.603515625 393.442382812 432 393.442382812 432 c 1
 394.306086425 412.052077755 390.771953197 396.291186497 380.442382812 387 c 1
 357.262695312 397.698242188 327.745117188 403.247070312 298.212890625 403.247070312 c 0
 205.085509018 403.247070312 118.438476562 334.483238394 118.438476562 219.955078125 c 0
 118.438476562 130.174879182 167.62844221 64 258.694335938 64 c 0
 338.549257812 64 383.442382812 121.157226562 383.442382812 208 c 1
 396.069335938 212.856445312 410.75390625 215.182617188 424 212.6796875 c 1
 424 113.965820312 476.127551075 60 557.565429688 60 c 0
 674.377602892 60 721.998046875 191.377929688 721.998046875 328.465820312 c 0
 721.998046875 565.487304688 592.2265625 680.056640625 392.532226562 680.056640625 c 0
 252.923828125 680.056640625 157.541992188 608 154.442382812 608 c 1
 139.510742188 623.830078125 133.51953125 653.52734375 138.442382812 674 c 1
 190.578125 706.124023438 280.383224775 739.004882812 406.391601562 739.004882812 c 0
 628.323534956 739.004882812 790.85879754 574.848439666 790.85879754 327.71325897 c 0
 790.85879754 161.296690931 733.641225607 -40 552.311523438 -40 c 0
 451.183621723 -40 397.350218409 14.40625 393.442382812 97 c 1
 411 97 l 1
 403.604492188 10.875 348.517578125 -38.90234375 254.680664062 -40 c 4
EndSplineSet
Fore
SplineSet
254.680664062 -40 m 4
 151.012517581 -41.212656981 48.37890625 36.5471136398 48.37890625 192.37890625 c 0
 48.37890625 364.814917227 177.972814592 450.603515625 301.880859375 450.603515625 c 0
 361.659179688 450.603515625 393.442382812 432 393.442382812 432 c 1
 394.306086425 412.052077755 390.771953197 396.291186497 380.442382812 387 c 1
 357.262695312 397.698242188 327.745117188 403.247070312 298.212890625 403.247070312 c 0
 205.085509018 403.247070312 118.438476562 334.483238394 118.438476562 219.955078125 c 0
 118.438476562 130.174879182 167.62844221 64 258.694335938 64 c 0
 338.549257812 64 383.442382812 121.157226562 383.442382812 208 c 1
 396.069335938 212.856445312 410.75390625 215.182617188 424 212.6796875 c 1
 424 113.965820312 476.127551075 60 557.565429688 60 c 0
 674.377602892 60 721.998046875 191.377929688 721.998046875 328.465820312 c 0
 721.998046875 565.487304688 592.2265625 680.056640625 392.532226562 680.056640625 c 0
 252.923828125 680.056640625 157.541992188 608 154.442382812 608 c 1
 139.510742188 623.830078125 133.51953125 653.52734375 138.442382812 674 c 1
 190.578125 706.124023438 280.383224775 739.004882812 406.391601562 739.004882812 c 0
 628.323534956 739.004882812 790.85879754 574.848439666 790.85879754 327.71325897 c 0
 790.85879754 161.296690931 733.641225607 -40 552.311523438 -40 c 0
 451.183621723 -40 397.350218409 14.40625 393.442382812 97 c 1
 411 97 l 1
 403.604492188 10.875 348.517578125 -38.90234375 254.680664062 -40 c 4
>>>>>>> 9091ca3d42bc76a5da6ebc1602c27821778b9009
EndSplineSet
EndChar

StartChar: si_Nda
Encoding: 45 3507 47
GlifName: si_N_da
<<<<<<< HEAD
Width: 674
VWidth: 13
Flags: HMW
LayerCount: 2
Back
SplineSet
42 249 m 0
 23 440 136 593 366 592 c 0
 421 592 459 590 465 588 c 1
 466 524 l 1
 331 544 l 1
 193 538 93 413 95 258 c 0
 96 210 136 145 200 122 c 1
 167 80 l 1
 96 115 50 174 42 249 c 0
EndSplineSet
Refer: 45 3503 N 1 0 0 1 55 0 2
Fore
SplineSet
42 249 m 0
 23 440 136 593 366 592 c 0
 421 592 459 590 465 588 c 1
 466 524 l 1
 331 544 l 1
 193 538 93 413 95 258 c 0
 96 210 136 145 200 122 c 1
 167 80 l 1
 96 115 50 174 42 249 c 0
EndSplineSet
Refer: 45 3503 N 1 0 0 1 55 0 2
=======
Width: 619
VWidth: -17
Flags: HMW
LayerCount: 3
Back
SplineSet
-13 219.418945312 m 0
 -32.4010329841 410.394084821 80.4908958872 563.844662823 310.908203125 562.3671875 c 0
 365.83106657 562.07717953 403.207413429 559.771713481 409.51171875 558 c 1
 410.51171875 494 l 1
 275.51171875 514 l 5
 137.805361181 508.287248909 37.6474035407 382.89014715 39.51171875 228 c 0
 40.0752563291 179.543392028 80.5851862981 114.757237663 144.51171875 91.7021484375 c 1
 111.51171875 49.6884765625 l 1
 40.655313396 84.8815033959 -4.7063200283 144.917899838 -13 219.418945312 c 0
EndSplineSet
Refer: 45 3503 N 1 0 0 1 0 0 2
Fore
SplineSet
-13 219.418945312 m 0
 -32.4010329841 410.394084821 80.4908958872 563.844662823 310.908203125 562.3671875 c 0
 365.83106657 562.07717953 403.207413429 559.771713481 409.51171875 558 c 1
 410.51171875 494 l 1
 275.51171875 514 l 5
 137.805361181 508.287248909 37.6474035407 382.89014715 39.51171875 228 c 0
 40.0752563291 179.543392028 80.5851862981 114.757237663 144.51171875 91.7021484375 c 1
 111.51171875 49.6884765625 l 1
 40.655313396 84.8815033959 -4.7063200283 144.917899838 -13 219.418945312 c 0
EndSplineSet
Refer: 45 3503 N 1 0 0 1 0 0 2
>>>>>>> 9091ca3d42bc76a5da6ebc1602c27821778b9009
EndChar

StartChar: si_Pha
Encoding: 47 3509 48
GlifName: si_P_ha
<<<<<<< HEAD
Width: 802
VWidth: 16
Flags: HMW
LayerCount: 2
Back
SplineSet
302 767 m 1
 341 788 l 1
 429 756 411 656 443 596 c 0
 473 541 556 532 649 573 c 1
 672 536 l 1
 599 489 441 461 389 566 c 0
 356 631 364 731 302 767 c 1
317.815429688 413.940429688 m 1
 329 414 l 1
 332 479 287 520 222 520 c 0
 215 520 207 519 199 518 c 1
 154 437 l 1
 123.361328125 435.872070312 100 455.271484375 100 492 c 0
 100 553 162 580 211 580 c 0
 287.34375 580 368.32307693 527.364596117 367.955006554 430.0000008 c 0
 367.831487839 397.325951356 357 358 357 358 c 1
 344 360 331.798828125 361.5625 315.525390625 361.5625 c 0
 222 361.5625 107 313.715820312 107 215 c 0
 107 124 210 74 386 74 c 0
 610 74 684 227 686 380 c 0
 689 629 488 738 302 766 c 1
 296 780 294 814 307 824 c 1
 568 784 747 601 747 371 c 0
 747 134 609 -26 382 -26 c 0
 149 -26 50 78 50 193 c 0
 50 346.273090168 183.217773438 411.700195312 317.815429688 413.940429688 c 1
EndSplineSet
Fore
SplineSet
302 767 m 1
 341 788 l 1
 429 756 411 656 443 596 c 0
 473 541 556 532 649 573 c 1
 672 536 l 1
 599 489 441 461 389 566 c 0
 356 631 364 731 302 767 c 1
317.815429688 413.940429688 m 1
 329 414 l 1
 332 479 287 520 222 520 c 0
 215 520 207 519 199 518 c 1
 154 437 l 1
 123.361328125 435.872070312 100 455.271484375 100 492 c 0
 100 553 162 580 211 580 c 0
 287.34375 580 368.32307693 527.364596117 367.955006554 430.0000008 c 0
 367.831487839 397.325951356 357 358 357 358 c 1
 344 360 331.798828125 361.5625 315.525390625 361.5625 c 0
 222 361.5625 107 313.715820312 107 215 c 0
 107 124 210 74 386 74 c 0
 610 74 684 227 686 380 c 0
 689 629 488 738 302 766 c 1
 296 780 294 814 307 824 c 1
 568 784 747 601 747 371 c 0
 747 134 609 -26 382 -26 c 0
 149 -26 50 78 50 193 c 0
 50 346.273090168 183.217773438 411.700195312 317.815429688 413.940429688 c 1
=======
Width: 775
VWidth: -14
Flags: HMW
LayerCount: 3
Back
SplineSet
274.81640625 727.124023438 m 1
 314 748.124023438 l 1
 401.693359375 716.4140625 383.57561281 616.358624281 416.033203125 556.356445312 c 0
 445.755859375 501.41015625 528.594726562 491.95703125 622 533 c 1
 645 496 l 1
 572.212890625 449.369140625 414.286663057 421.567159736 362.029296875 526.12109375 c 0
 329.484375 591.235351562 336.3984375 690.697265625 274.81640625 727.124023438 c 1
362.971679688 33.9716796875 m 0
 575.337110166 33.9716796875 646.384765625 192.056640625 648 346 c 0
 650.489257812 591.587890625 455.252929688 698.0703125 275 726 c 5
 269.071289062 739.521484375 266.564453125 773.75 280 784 c 5
 541.01171875 744.120117188 720 561.309570312 720 331 c 0
 720 100.676757812 584.083007812 -58.578125 361.182617188 -58.578125 c 0
 123.952148438 -58.578125 22.841796875 43.8911661279 22.841796875 153.12109375 c 0
 22.841796875 308.888558903 161.037030919 373.8046875 297.893554688 373.8046875 c 0
 302.850585938 323.663085938 l 0
 171.727539062 323.663085938 92.99609375 275.667462156 92.99609375 183.989257812 c 0
 92.99609375 95.5899659666 190.545298558 33.9716796875 362.971679688 33.9716796875 c 0
276.998046875 373.61328125 m 0
 285.138671875 373.61328125 293.157226562 373.403320312 301 373 c 1
 303.905273438 437.873046875 259.541992188 479.6875 195.030273438 479.6875 c 0
 187.611328125 479.6875 179.92578125 479.134765625 172 478 c 1
 146 397 l 1
 141.353515625 396.298828125 136.861328125 395.95703125 132.543945312 395.95703125 c 0
 98.09375 395.95703125 74.8876953125 417.703125 74.8876953125 451.693359375 c 0
 74.8876953125 517.354492188 137.708007812 540 184 540 c 0
 258.817382812 540 337.422855934 491.442382993 341.139648438 401.66015625 c 0
 342.537109375 367.903320312 330 318 330 318 c 1
 306.952148438 320.931640625 286.91796875 322.381835938 266.174804688 322.381835938 c 0
 266.146484375 322.381835938 276.951558304 373.61328125 276.998046875 373.61328125 c 0
EndSplineSet
Fore
SplineSet
274.81640625 727.124023438 m 1
 314 748.124023438 l 1
 401.693359375 716.4140625 383.57561281 616.358624281 416.033203125 556.356445312 c 0
 445.755859375 501.41015625 528.594726562 491.95703125 622 533 c 1
 645 496 l 1
 572.212890625 449.369140625 414.286663057 421.567159736 362.029296875 526.12109375 c 0
 329.484375 591.235351562 336.3984375 690.697265625 274.81640625 727.124023438 c 1
362.971679688 33.9716796875 m 0
 575.337110166 33.9716796875 646.384765625 192.056640625 648 346 c 0
 650.489257812 591.587890625 455.252929688 698.0703125 275 726 c 5
 269.071289062 739.521484375 266.564453125 773.75 280 784 c 5
 541.01171875 744.120117188 720 561.309570312 720 331 c 0
 720 100.676757812 584.083007812 -58.578125 361.182617188 -58.578125 c 0
 123.952148438 -58.578125 22.841796875 43.8911661279 22.841796875 153.12109375 c 0
 22.841796875 308.888558903 161.037030919 373.8046875 297.893554688 373.8046875 c 0
 302.850585938 323.663085938 l 0
 171.727539062 323.663085938 92.99609375 275.667462156 92.99609375 183.989257812 c 0
 92.99609375 95.5899659666 190.545298558 33.9716796875 362.971679688 33.9716796875 c 0
276.998046875 373.61328125 m 0
 285.138671875 373.61328125 293.157226562 373.403320312 301 373 c 1
 303.905273438 437.873046875 259.541992188 479.6875 195.030273438 479.6875 c 0
 187.611328125 479.6875 179.92578125 479.134765625 172 478 c 1
 146 397 l 1
 141.353515625 396.298828125 136.861328125 395.95703125 132.543945312 395.95703125 c 0
 98.09375 395.95703125 74.8876953125 417.703125 74.8876953125 451.693359375 c 0
 74.8876953125 517.354492188 137.708007812 540 184 540 c 0
 258.817382812 540 337.422855934 491.442382993 341.139648438 401.66015625 c 0
 342.537109375 367.903320312 330 318 330 318 c 1
 306.952148438 320.931640625 286.91796875 322.381835938 266.174804688 322.381835938 c 0
 266.146484375 322.381835938 276.951558304 373.61328125 276.998046875 373.61328125 c 0
>>>>>>> 9091ca3d42bc76a5da6ebc1602c27821778b9009
EndSplineSet
EndChar

StartChar: si_Ba
Encoding: 48 3510 49
GlifName: si_B_a
<<<<<<< HEAD
Width: 871
VWidth: 6
Flags: HMW
LayerCount: 2
Back
SplineSet
50 167 m 4
 50 341 172 451 310 451 c 4
 409 451 516 390 516 262 c 4
 516 258 515 254 515 250 c 5
 503 236 l 5
 476 229 437 199 437 147 c 4
 437 95 488 67 556 67 c 4
 680 67 741 187 748 333 c 4
 757 545 649 706 364 706 c 4
 248 706 148 642 148 642 c 4
 142 640 121 676 135 709 c 5
 135 709 223 766 371 766 c 4
 635 766 815 603 815 335 c 4
 815 121 726 -41 556 -41 c 4
 428 -41 377 34 377 112 c 4
 377 194 434 255 486 267 c 5
 474 252 l 5
 421 331 357 353 300 353 c 4
 195 353 103 284 103 146 c 4
 103 62 139 -2 212 -2 c 4
 253 -2 272 31 272 58 c 4
 272 91 252 117 220 117 c 4
 194 117 171 97 171 60 c 4
 171 33 187 -1 230 -6 c 5
 233 -17 l 5
 174 -15 132 12 132 63 c 4
 132 120 175 168 235 168 c 4
 281 168 334 133 334 67 c 4
 334 15 295 -43 214 -43 c 4
 94 -43 50 74 50 167 c 4
EndSplineSet
Fore
SplineSet
50 167 m 4
 50 341 172 451 310 451 c 4
 409 451 516 390 516 262 c 4
 516 258 515 254 515 250 c 5
 503 236 l 5
 476 229 437 199 437 147 c 4
 437 95 488 67 556 67 c 4
 680 67 741 187 748 333 c 4
 757 545 649 706 364 706 c 4
 248 706 148 642 148 642 c 4
 142 640 121 676 135 709 c 5
 135 709 223 766 371 766 c 4
 635 766 815 603 815 335 c 4
 815 121 726 -41 556 -41 c 4
 428 -41 377 34 377 112 c 4
 377 194 434 255 486 267 c 5
 474 252 l 5
 421 331 357 353 300 353 c 4
 195 353 103 284 103 146 c 4
 103 62 139 -2 212 -2 c 4
 253 -2 272 31 272 58 c 4
 272 91 252 117 220 117 c 4
 194 117 171 97 171 60 c 4
 171 33 187 -1 230 -6 c 5
 233 -17 l 5
 174 -15 132 12 132 63 c 4
 132 120 175 168 235 168 c 4
 281 168 334 133 334 67 c 4
 334 15 295 -43 214 -43 c 4
 94 -43 50 74 50 167 c 4
=======
Width: 835
VWidth: -24
Flags: HMW
LayerCount: 3
Back
SplineSet
356.719726562 736.170898438 m 0
 608.471985605 736.170898438 780.819335938 576.395507812 780.819335938 314.8359375 c 0
 780.819335938 103.4123831 698.696709765 -57 541.998046875 -57 c 0
 413.805855287 -57 362.73828125 17.5883587458 362.73828125 95.5048828125 c 0
 362.73828125 177.607421875 419.689453125 239.149414062 472 251 c 1
 459.032226562 236 l 1
 405.962890625 314.694335938 343.040039062 337.40234375 285.7265625 337.40234375 c 0
 180.359375 337.40234375 88.2646484375 267.654296875 88.2646484375 129.993164062 c 0
 88.2646484375 46.3876953125 124.56640625 -18.2998046875 197.130859375 -18.2998046875 c 0
 238.424804688 -18.2998046875 257.41015625 15.0498046875 257.41015625 42.18359375 c 0
 257.41015625 75.2587890625 237.345703125 100.944335938 205.645507812 100.944335938 c 0
 180.131835938 100.944335938 156.920898438 81.2216796875 156.920898438 43.95703125 c 0
 156.920898438 16.765625 173.3671875 -16.7626953125 215.888671875 -22.09375 c 1
 218.706054688 -33.3828125 l 1
 160.139648438 -31.2861328125 117.353515625 -4.029296875 117.353515625 46.935546875 c 0
 117.353515625 104.098632812 160.522460938 151.697265625 220.788085938 151.697265625 c 0
 267.067382812 151.697265625 319.776367188 117.247070493 319.776367188 51.1015625 c 0
 319.776367188 -0.927734375 280.615234375 -58.7978515625 199.735351562 -58.7978515625 c 0
 80.111328125 -58.7978515625 35.5205078125 58.345703125 35.5205078125 151.451171875 c 0
 35.5205078125 325.930664062 157.985351562 434.862304688 295.784179688 434.862304688 c 0
 395.133789062 434.862304688 501.083984375 373.58203125 501.083984375 245.984375 c 0
 501.083984375 242.052734375 500.983398438 238.057617188 500.779296875 234 c 1
 488.501953125 220 l 1
 461.44921875 212.868164062 422.287109375 182.701171875 422.287109375 131.16015625 c 0
 422.287109375 78.955078125 474.200446899 50.6875 541.715820312 50.6875 c 0
 652.413777348 50.6875 706.782086862 168.639196666 713.068359375 312.538085938 c 0
 722.068359375 518.55683563 619.599044899 675.955078125 349.274414062 675.955078125 c 0
 232.85546875 675.955078125 134.091351958 611.837923945 134 612 c 2
 128.357862056 610.323798141 106.930664062 645.533203125 121 679 c 5
 121 679 208.478278037 736.170898438 356.719726562 736.170898438 c 0
EndSplineSet
Fore
SplineSet
356.719726562 736.170898438 m 0
 608.471985605 736.170898438 780.819335938 576.395507812 780.819335938 314.8359375 c 0
 780.819335938 103.4123831 698.696709765 -57 541.998046875 -57 c 0
 413.805855287 -57 362.73828125 17.5883587458 362.73828125 95.5048828125 c 0
 362.73828125 177.607421875 419.689453125 239.149414062 472 251 c 1
 459.032226562 236 l 1
 405.962890625 314.694335938 343.040039062 337.40234375 285.7265625 337.40234375 c 0
 180.359375 337.40234375 88.2646484375 267.654296875 88.2646484375 129.993164062 c 0
 88.2646484375 46.3876953125 124.56640625 -18.2998046875 197.130859375 -18.2998046875 c 0
 238.424804688 -18.2998046875 257.41015625 15.0498046875 257.41015625 42.18359375 c 0
 257.41015625 75.2587890625 237.345703125 100.944335938 205.645507812 100.944335938 c 0
 180.131835938 100.944335938 156.920898438 81.2216796875 156.920898438 43.95703125 c 0
 156.920898438 16.765625 173.3671875 -16.7626953125 215.888671875 -22.09375 c 1
 218.706054688 -33.3828125 l 1
 160.139648438 -31.2861328125 117.353515625 -4.029296875 117.353515625 46.935546875 c 0
 117.353515625 104.098632812 160.522460938 151.697265625 220.788085938 151.697265625 c 0
 267.067382812 151.697265625 319.776367188 117.247070493 319.776367188 51.1015625 c 0
 319.776367188 -0.927734375 280.615234375 -58.7978515625 199.735351562 -58.7978515625 c 0
 80.111328125 -58.7978515625 35.5205078125 58.345703125 35.5205078125 151.451171875 c 0
 35.5205078125 325.930664062 157.985351562 434.862304688 295.784179688 434.862304688 c 0
 395.133789062 434.862304688 501.083984375 373.58203125 501.083984375 245.984375 c 0
 501.083984375 242.052734375 500.983398438 238.057617188 500.779296875 234 c 1
 488.501953125 220 l 1
 461.44921875 212.868164062 422.287109375 182.701171875 422.287109375 131.16015625 c 0
 422.287109375 78.955078125 474.200446899 50.6875 541.715820312 50.6875 c 0
 652.413777348 50.6875 706.782086862 168.639196666 713.068359375 312.538085938 c 0
 722.068359375 518.55683563 619.599044899 675.955078125 349.274414062 675.955078125 c 0
 232.85546875 675.955078125 134.091351958 611.837923945 134 612 c 2
 128.357862056 610.323798141 106.930664062 645.533203125 121 679 c 5
 121 679 208.478278037 736.170898438 356.719726562 736.170898438 c 0
>>>>>>> 9091ca3d42bc76a5da6ebc1602c27821778b9009
EndSplineSet
EndChar

StartChar: si_Bha
Encoding: 49 3511 50
GlifName: si_B_ha
<<<<<<< HEAD
Width: 1101
VWidth: 6
Flags: HMW
LayerCount: 2
Back
SplineSet
61 353 m 5
 56 375 55 394 61 410 c 5
 440 410 l 5
 442 368 l 5
 146 368 l 5
 61 353 l 5
EndSplineSet
Refer: 57 3524 N 1 0 0 1 95 0 2
Fore
SplineSet
61 353 m 5
 56 375 55 394 61 410 c 5
 440 410 l 5
 442 368 l 5
 146 368 l 5
 61 353 l 5
EndSplineSet
Refer: 57 3524 N 1 0 0 1 95 0 2
=======
Width: 1023
VWidth: -24
Flags: HMW
LayerCount: 3
Back
SplineSet
22 395 m 5
 402 395 l 1
 402 346 l 1
 106 346 l 1
 22 323 l 1
 18.4090394013 335.272548887 15.8779296875 380.91796875 22 395 c 5
EndSplineSet
Refer: 57 3524 N 1 0 0 1 58 0 2
Fore
SplineSet
22 395 m 5
 402 395 l 1
 402 346 l 1
 106 346 l 1
 22 323 l 1
 18.4090394013 335.272548887 15.8779296875 380.91796875 22 395 c 5
EndSplineSet
Refer: 57 3524 N 1 0 0 1 58 0 2
>>>>>>> 9091ca3d42bc76a5da6ebc1602c27821778b9009
EndChar

StartChar: si_Ma
Encoding: 50 3512 51
GlifName: si_M_a
<<<<<<< HEAD
Width: 855
VWidth: -14
Flags: HMW
LayerCount: 2
Back
SplineSet
70 292 m 0
 69 448 144 512 211 512 c 0
 256 512 284 486 285 421 c 0
 286 294 373 280 433 281 c 0
 517 282 560 325 561 388 c 0
 563 456 514 510 438 499 c 0
 404 494 381 467 381 432 c 0
 381 414 394 388 428 388 c 0
 463 388 480 419 480 446 c 0
 480 468 474 487 463 505 c 1
 489 504 l 1
 505 489 516 464 516 440 c 0
 516 390 484 342 424 342 c 0
 382 342 334 367 334 428 c 0
 334 482 377 534 451 534 c 0
 547 534 599 467 599 390 c 0
 599 305 544 217 425 217 c 0
 377 217 327 231 291 265 c 0
 260 293 245 341 243 405 c 0
 242 454 230 474 205 474 c 0
 157 474 127 409 128 317 c 0
 130 168 264 75 430 74 c 0
 653 73 737 210 743 359 c 0
 750 545 648 709 420 709 c 0
 306 709 218 653 215 653 c 1
 205 659 193 690 200 715 c 1
 200 715 291 765 432 762 c 0
 668 756 805 578 805 364 c 0
 805 126 659 -28 435 -28 c 0
 206 -28 70 113 70 292 c 0
EndSplineSet
Fore
SplineSet
52.5693359375 304.502929688 m 1
 51.9892578125 485.962890625 138.442382812 541.139648438 208.60546875 543.034179688 c 0
 247.416015625 544.08203125 279.130859375 533.194335938 288 518 c 1
 292.6953125 503.458007812 288.434570312 480.260742188 288.819335938 445 c 0
 290.170898438 321.05078125 379.706054688 293.208984375 440.0703125 293.998046875 c 0
 504.4765625 294.83984375 567.469726562 342.065429688 569.05078125 409.48046875 c 0
 570.657226562 477.975585938 521.015625 531.263671875 445.439453125 520.001953125 c 0
 411.262695312 514.909179688 388.991210938 487.8359375 388.991210938 453.051757812 c 0
 388.991210938 434.942382812 406.217773438 409.55859375 440.282226562 409.55859375 c 0
 485.125976562 409.55859375 501.998046875 444.239257812 501.998046875 475.853515625 c 0
 501.998046875 494.8515625 498.413085938 510.232421875 491 525.561523438 c 1
 497 524.561523438 l 1
 528.02734375 514.4296875 549.123046875 496.694335938 549.123046875 480.515625 c 0
 549.123046875 410.379882812 516.10546875 344.997070312 439.306640625 344.997070312 c 0
 392.184570312 344.997070312 331.993164062 374.120117188 331.993164062 449.010742188 c 0
 331.993164062 512.849609375 382.033203125 575 469 575 c 0
 575.162109375 575 633.001953125 498.352539062 633.001953125 411.115234375 c 0
 633.001953125 310.820969334 573.055303812 207.031098851 436.486328125 205.986328125 c 4
 298.697288854 204.923266629 225.226649038 282.698817406 224 406 c 0
 223.53125 455.258789062 216.234375 475.005859375 199.852539062 475.005859375 c 0
 168.880859375 475.005859375 154.462890625 434.623046875 155.3828125 366.059570312 c 0
 157.221679688 228.984375 272.499023438 134.041015625 437.830078125 132.991210938 c 0
 616.333007812 131.857421875 707.0234375 250.78515625 712.274414062 384 c 0
 718.734375 547.874023438 620.881835938 670.03515625 417.681640625 670.03515625 c 0
 296.522460938 670.03515625 213.905273438 612 211 612 c 1
 201.29296875 620.802734375 188.869140625 674.045898438 196 709 c 1
 196 709 279.751953125 774.341796875 437.225585938 770.00390625 c 0
 678.401367188 763.360351562 822.955078125 591.54296875 822.955078125 379 c 0
 822.955078125 132.706054688 668.344726562 -27 433 -27 c 0
 201.329101562 -27 52.921875 117.38671875 52.5693359375 304.502929688 c 1
=======
Width: 847
VWidth: -14
Flags: HMWO
LayerCount: 3
Back
SplineSet
57.5693359375 261.502929688 m 1
 57.0126953125 417.208984375 131.138671875 482.034179688 198.60546875 482.034179688 c 0
 243.801757812 482.034179688 272.220703125 456.068359375 272.819335938 391 c 0
 273.984375 264.290039062 359.704101562 250.401367188 420.0703125 250.998046875 c 0
 504.4765625 251.78125 547.6171875 295.732421875 549.05078125 358.48046875 c 0
 550.657226562 426.975585938 501.015625 480.262695312 425.439453125 469.001953125 c 0
 391.262695312 463.909179688 368.991210938 436.8359375 368.991210938 402.051757812 c 0
 368.991210938 383.942382812 381.217773438 357.55859375 415.282226562 357.55859375 c 0
 450.533203125 357.55859375 467.998046875 388.53125 467.998046875 415.853515625 c 0
 467.998046875 438.291015625 462.456054688 456.45703125 451 474.561523438 c 1
 477 473.561523438 l 1
 492.55078125 458.829101562 503.123046875 433.040039062 503.123046875 409.515625 c 0
 503.123046875 359.837890625 471.30078125 311.997070312 411.306640625 311.997070312 c 0
 368.9296875 311.997070312 321.993164062 337.249023438 321.993164062 398.010742188 c 0
 321.993164062 451.715820312 364.728515625 504 439 504 c 0
 534.8046875 504 587.001953125 436.70703125 587.001953125 360.115234375 c 0
 587.001953125 275.466796875 531.889648438 186.986328125 412.486328125 186.986328125 c 0
 364.390625 186.986328125 314.6328125 200.767578125 279 234.584960938 c 0
 248.178710938 262.171875 232.578125 310.588867188 231 375 c 0
 229.736328125 424.258789062 218.150390625 444.005859375 192.852539062 444.005859375 c 0
 144.536132812 444.005859375 114.169921875 379.075195312 115.3828125 287.059570312 c 0
 117.352539062 137.694335938 251.499023438 45.0390625 417.830078125 43.9912109375 c 0
 640.590820312 42.5888671875 724.75 180.20703125 730.274414062 329 c 0
 737.161132812 514.502929688 635.34765625 679.03515625 407.681640625 679.03515625 c 0
 292.384765625 679.03515625 203.764648438 611 201 611 c 1
 191.29296875 617.779296875 178.869140625 651.081054688 186 678 c 1
 186 678 271.182617188 736.00390625 414.225585938 732.00390625 c 4
 653.69140625 725.307617188 792.955078125 548.2265625 792.955078125 334 c 0
 792.955078125 95.5927734375 647.450195312 -58 423 -58 c 0
 193.950195312 -58 57.93359375 82.853515625 57.5693359375 261.502929688 c 1
EndSplineSet
Fore
SplineSet
41.5693359375 258.502929688 m 1
 40.9892578125 431.26953125 118.67578125 484.471679688 188.60546875 492.034179688 c 0
 216.346679688 495.034179688 257.130859375 486.125 268 477 c 1
 272.6953125 460.465820312 268.381835938 434.090820312 268.819335938 394 c 0
 270.170898438 270.05078125 359.706259995 242.209081972 420.0703125 242.998046875 c 0
 484.4765625 243.83984375 547.469726562 291.065429688 549.05078125 358.48046875 c 0
 550.657226562 426.975585938 501.015625 480.262695312 425.439453125 469.001953125 c 0
 391.262695312 463.909179688 368.991210938 436.8359375 368.991210938 402.051757812 c 0
 368.991210938 383.942382812 386.217773438 358.55859375 420.282226562 358.55859375 c 0
 462.219726562 358.55859375 477.998046875 388.53125 477.998046875 415.853515625 c 0
 477.998046875 438.291015625 475.716796875 456.45703125 471 474.561523438 c 1
 477 473.561523438 l 1
 510.408203125 461.12890625 533.123046875 439.3671875 533.123046875 419.515625 c 0
 533.123046875 354.555664062 498.90234375 293.997070312 419.306640625 293.997070312 c 0
 372.184570312 293.997070312 311.993164062 323.120117188 311.993164062 398.010742188 c 0
 311.993164062 461.849609375 362.033203125 524 449 524 c 0
 555.162109375 524 613.001953125 447.352539062 613.001953125 360.115234375 c 0
 613.001953125 260.798828125 554.88671875 157.970703125 422.486328125 156.986328125 c 0
 280.806640625 155.93359375 205.161132812 232.931640625 204 355 c 0
 203.53125 404.258789062 195.234375 424.005859375 185.852539062 424.005859375 c 0
 151.880859375 424.005859375 136.462890625 382.623046875 137.3828125 314.059570312 c 0
 139.221679688 176.984375 272.499059413 93.0407332982 417.830078125 91.9912109375 c 0
 596.331054688 90.7021484375 687.40234375 215.078125 692.274414062 343 c 0
 698.734375 512.603515625 591.233398438 639.03515625 397.681640625 639.03515625 c 4
 282.384765625 639.03515625 203.764648438 581 201 581 c 1
 191.29296875 589.802734375 178.869140625 643.045898438 186 678 c 1
 186 678 269.753782591 743.417243141 427.225585938 739.00390625 c 0
 672.1484375 732.139648438 802.955078125 554.609375 802.955078125 335 c 0
 802.955078125 96.5927734375 651.516601562 -58 421 -58 c 0
 194.45703125 -58 41.9296875 79.853515625 41.5693359375 258.502929688 c 1
>>>>>>> 9091ca3d42bc76a5da6ebc1602c27821778b9009
EndSplineSet
EndChar

StartChar: si_Mba
Encoding: 51 3513 52
GlifName: si_M_ba
<<<<<<< HEAD
Width: 865
VWidth: 16
Flags: HMW
LayerCount: 2
Back
SplineSet
50 272 m 1
 50 160 92 -32 249 -32 c 0
 315 -32 385 0 385 99 c 0
 385 100 349 106 349 129 c 0
 349 155 379 165 412 165 c 0
 444 165 476 155 476 129 c 0
 476 106 434 99 434 99 c 1
 431 1 489 -33 569 -33 c 0
 750 -33 810 219 810 357 c 0
 810 573 646 773 400 773 c 0
 248 773 139 694 139 694 c 1
 164 647 l 1
 165 647 263 714 397 714 c 0
 627 714 739 563 739 356 c 0
 739 225 683 65 554 65 c 0
 510 65 490 75 478 86 c 1
 497 91 527 108 527 141 c 0
 527 179 482 213 415 213 c 0
 340 213 296 177 296 137 c 0
 296 108 320 94 340 86 c 1
 325 73 311 65 275 65 c 0
 157 65 112 189 110 295 c 0
 108 381 149 484 207 484 c 0
 235 484 244 463 249 421 c 0
 256 366 269 326 298 300 c 0
 333 268 381 255 428 255 c 0
 540 255 591 332 591 406 c 0
 591 483 537 550 439 550 c 0
 367 550 326 498 326 444 c 0
 326 382 372 356 408 356 c 0
 473 356 507 405 507 456 c 0
 507 480 497 505 481 520 c 1
 455 521 l 1
 466 503 472 484 472 462 c 0
 472 435 454 404 419 404 c 0
 385 404 373 430 373 448 c 0
 373 481 396 506 430 511 c 0
 506 522 555 470 553 404 c 0
 552 345 511 305 432 304 c 0
 372 303 287 327 286 427 c 0
 285 499 258 528 213 528 c 0
 126 528 52 427 50 272 c 1
EndSplineSet
Fore
SplineSet
50 272 m 1
 50 160 92 -32 249 -32 c 0
 315 -32 385 0 385 99 c 0
 385 100 349 106 349 129 c 0
 349 155 379 165 412 165 c 0
 444 165 476 155 476 129 c 0
 476 106 434 99 434 99 c 1
 431 1 489 -33 569 -33 c 0
 750 -33 810 219 810 357 c 0
 810 573 646 773 400 773 c 0
 248 773 139 694 139 694 c 1
 164 647 l 1
 165 647 263 714 397 714 c 0
 627 714 739 563 739 356 c 0
 739 225 683 65 554 65 c 0
 510 65 490 75 478 86 c 1
 497 91 527 108 527 141 c 0
 527 179 482 213 415 213 c 0
 340 213 296 177 296 137 c 0
 296 108 320 94 340 86 c 1
 325 73 311 65 275 65 c 0
 157 65 112 189 110 295 c 0
 108 381 149 484 207 484 c 0
 235 484 244 463 249 421 c 0
 256 366 269 326 298 300 c 0
 333 268 381 255 428 255 c 0
 540 255 591 332 591 406 c 0
 591 483 537 550 439 550 c 0
 367 550 326 498 326 444 c 0
 326 382 372 356 408 356 c 0
 473 356 507 405 507 456 c 0
 507 480 497 505 481 520 c 1
 455 521 l 1
 466 503 472 484 472 462 c 0
 472 435 454 404 419 404 c 0
 385 404 373 430 373 448 c 0
 373 481 396 506 430 511 c 0
 506 522 555 470 553 404 c 0
 552 345 511 305 432 304 c 0
 372 303 287 327 286 427 c 0
 285 499 258 528 213 528 c 0
 126 528 52 427 50 272 c 1
=======
Width: 864
VWidth: -14
Flags: HMW
LayerCount: 3
Back
SplineSet
205.852539062 454.005859375 m 0
 233.803204451 454.005859375 242.759034668 433.427770076 248 391 c 0
 254.830838056 335.701556271 268.247450388 295.94237603 297 269.584960938 c 0
 331.564999753 237.89928233 379.831719013 224.986328125 426.486328125 224.986328125 c 0
 538.363569733 224.986328125 590.001953125 302.223235902 590.001953125 376.115234375 c 0
 590.001953125 452.70658352 536.394132508 520 438 520 c 0
 366.267566929 520 324.993164062 467.715820312 324.993164062 414.010742188 c 0
 324.993164062 351.836115554 371.015456832 325.997070312 407.306640625 325.997070312 c 0
 471.874293247 325.997070312 506.123046875 374.819054066 506.123046875 425.515625 c 0
 506.123046875 449.040280755 495.550383764 474.828923076 480 489.561523438 c 1
 454 490.561523438 l 1
 465.456054688 472.457229511 470.998046875 454.291413674 470.998046875 431.853515625 c 0
 470.998046875 404.53125 453.532817296 373.55859375 418.282226562 373.55859375 c 0
 384.217966138 373.55859375 371.991210938 399.942501537 371.991210938 418.051757812 c 0
 371.991210938 450.757911637 394.281463237 476.096542872 428.439453125 481.001953125 c 0
 504.015623489 491.855405632 553.56362217 440.497375915 552.05078125 374.48046875 c 0
 550.706500311 315.819132488 510.241810902 274.690184563 431.0703125 273.998046875 c 0
 371.114077662 273.473893984 285.939295436 297.041738546 284.819335938 397 c 0
 284.010232216 469.213862649 256.193157738 498.034179688 211.60546875 498.034179688 c 0
 124.372671991 498.034179688 50.5805112478 396.835629819 48.9140625 242.122070312 c 1
 48.9140625 130.210177103 91.1175208307 -62.017578125 247.915039062 -62.017578125 c 0
 313.910643768 -62.017578125 384.005859375 -29.5061975943 384.005859375 69 c 0
 384.005859375 69.5627510369 347.991210938 76.3088445645 347.991210938 99 c 0
 347.991210938 124.932098259 377.379604291 135.1015625 410.752929688 135.1015625 c 0
 442.497072774 135.1015625 475.021484375 124.991671676 475.021484375 99 c 0
 475.021484375 76.4270187131 433 69 433 69 c 1
 430.131665826 -28.7576319761 488.077123094 -63.013671875 567.75390625 -63.013671875 c 0
 748.831667446 -63.013671875 809.024414062 189.441084981 809.024414062 327.23046875 c 0
 809.024414062 542.883476947 645.539136323 743.002929688 399.252929688 743.002929688 c 0
 247.35921809 743.002929688 138 664 138 664 c 1
 163 617 l 1
 166.138473252 617 254.36090417 682.588337589 389 684 c 0
 391.423989222 684.025415014 393.832818422 684.038085938 396.2265625 684.038085938 c 0
 626.288225583 684.038085938 738.29296875 533.004958422 738.29296875 325.692382812 c 0
 738.29296875 194.342093258 682.68660063 35 553.271484375 35 c 0
 509.503962434 35 488.729801384 44.7586932295 477 56 c 1
 496.110399433 60.905325336 526 77.6028891261 526 111 c 0
 526 149.26130852 481.050220731 183.0390625 414.249023438 183.0390625 c 0
 339.247467821 183.0390625 294.9765625 147.30129695 294.9765625 107 c 0
 294.9765625 78.1966179958 318.5703125 63.8141249246 339 56 c 1
 323.938792257 42.5627366219 309.269203332 35 273.651367188 35 c 0
 155.778896241 35 111.462975923 159.339365892 108.997070312 265.384765625 c 0
 107 351.268068964 147.634298274 454.005859375 205.852539062 454.005859375 c 0
EndSplineSet
Fore
SplineSet
205.852539062 454.005859375 m 0
 233.803204451 454.005859375 242.759034668 433.427770076 248 391 c 0
 254.830838056 335.701556271 268.247450388 295.94237603 297 269.584960938 c 0
 331.564999753 237.89928233 379.831719013 224.986328125 426.486328125 224.986328125 c 0
 538.363569733 224.986328125 590.001953125 302.223235902 590.001953125 376.115234375 c 0
 590.001953125 452.70658352 536.394132508 520 438 520 c 0
 366.267566929 520 324.993164062 467.715820312 324.993164062 414.010742188 c 0
 324.993164062 351.836115554 371.015456832 325.997070312 407.306640625 325.997070312 c 0
 471.874293247 325.997070312 506.123046875 374.819054066 506.123046875 425.515625 c 0
 506.123046875 449.040280755 495.550383764 474.828923076 480 489.561523438 c 1
 454 490.561523438 l 1
 465.456054688 472.457229511 470.998046875 454.291413674 470.998046875 431.853515625 c 0
 470.998046875 404.53125 453.532817296 373.55859375 418.282226562 373.55859375 c 0
 384.217966138 373.55859375 371.991210938 399.942501537 371.991210938 418.051757812 c 0
 371.991210938 450.757911637 394.281463237 476.096542872 428.439453125 481.001953125 c 0
 504.015623489 491.855405632 553.56362217 440.497375915 552.05078125 374.48046875 c 0
 550.706500311 315.819132488 510.241810902 274.690184563 431.0703125 273.998046875 c 0
 371.114077662 273.473893984 285.939295436 297.041738546 284.819335938 397 c 0
 284.010232216 469.213862649 256.193157738 498.034179688 211.60546875 498.034179688 c 0
 124.372671991 498.034179688 50.5805112478 396.835629819 48.9140625 242.122070312 c 1
 48.9140625 130.210177103 91.1175208307 -62.017578125 247.915039062 -62.017578125 c 0
 313.910643768 -62.017578125 384.005859375 -29.5061975943 384.005859375 69 c 0
 384.005859375 69.5627510369 347.991210938 76.3088445645 347.991210938 99 c 0
 347.991210938 124.932098259 377.379604291 135.1015625 410.752929688 135.1015625 c 0
 442.497072774 135.1015625 475.021484375 124.991671676 475.021484375 99 c 0
 475.021484375 76.4270187131 433 69 433 69 c 1
 430.131665826 -28.7576319761 488.077123094 -63.013671875 567.75390625 -63.013671875 c 0
 748.831667446 -63.013671875 809.024414062 189.441084981 809.024414062 327.23046875 c 0
 809.024414062 542.883476947 645.539136323 743.002929688 399.252929688 743.002929688 c 0
 247.35921809 743.002929688 138 664 138 664 c 1
 163 617 l 1
 166.138473252 617 254.36090417 682.588337589 389 684 c 0
 391.423989222 684.025415014 393.832818422 684.038085938 396.2265625 684.038085938 c 0
 626.288225583 684.038085938 738.29296875 533.004958422 738.29296875 325.692382812 c 0
 738.29296875 194.342093258 682.68660063 35 553.271484375 35 c 0
 509.503962434 35 488.729801384 44.7586932295 477 56 c 1
 496.110399433 60.905325336 526 77.6028891261 526 111 c 0
 526 149.26130852 481.050220731 183.0390625 414.249023438 183.0390625 c 0
 339.247467821 183.0390625 294.9765625 147.30129695 294.9765625 107 c 0
 294.9765625 78.1966179958 318.5703125 63.8141249246 339 56 c 1
 323.938792257 42.5627366219 309.269203332 35 273.651367188 35 c 0
 155.778896241 35 111.462975923 159.339365892 108.997070312 265.384765625 c 0
 107 351.268068964 147.634298274 454.005859375 205.852539062 454.005859375 c 0
>>>>>>> 9091ca3d42bc76a5da6ebc1602c27821778b9009
EndSplineSet
EndChar

StartChar: si_Ya
Encoding: 52 3514 53
GlifName: si_Y_a
<<<<<<< HEAD
Width: 885
VWidth: 6
Flags: HMW
LayerCount: 2
Back
SplineSet
55 205 m 4
 53 389 171 487 301 491 c 4
 320 492 339 490 356 486 c 5
 361 473 356 450 348 438 c 5
 333 443 319 446 303 446 c 4
 207 446 116 392 114 252 c 4
 113 154 175 84 287 84 c 4
 365 84 438 121 440 224 c 5
 445 227 464 232 479 229 c 5
 479 131 546 84 632 84 c 4
 720 84 769 156 770 229 c 4
 771 300 725 384 613 384 c 4
 584 384 551 379 513 366 c 5
 508 385 503 405 503 436 c 4
 503 535 581 594 665 594 c 4
 736 594 802 559 802 479 c 4
 802 383 709 357 709 357 c 5
 684 374 l 5
 684 374 736 389 736 448 c 4
 736 495 691 524 640 524 c 4
 585 524 537 495 537 434 c 4
 537 398 553 385 553 385 c 5
 517 398 l 5
 533 411 l 5
 562 421 591 426 621 426 c 4
 728 426 830 355 830 205 c 4
 830 69 747 -24 623 -24 c 4
 523 -24 450 32 446 135 c 5
 446 134 447 134 449 134 c 4
 455 134 468 136 474 136 c 4
 476 136 477 136 477 135 c 4
 470 53 408 -23 288 -23 c 4
 135 -23 56 78 55 205 c 4
EndSplineSet
Fore
SplineSet
55 205 m 4
 53 389 171 487 301 491 c 4
 320 492 339 490 356 486 c 5
 361 473 356 450 348 438 c 5
 333 443 319 446 303 446 c 4
 207 446 116 392 114 252 c 4
 113 154 175 84 287 84 c 4
 365 84 438 121 440 224 c 5
 445 227 464 232 479 229 c 5
 479 131 546 84 632 84 c 4
 720 84 769 156 770 229 c 4
 771 300 725 384 613 384 c 4
 584 384 551 379 513 366 c 5
 508 385 503 405 503 436 c 4
 503 535 581 594 665 594 c 4
 736 594 802 559 802 479 c 4
 802 383 709 357 709 357 c 5
 684 374 l 5
 684 374 736 389 736 448 c 4
 736 495 691 524 640 524 c 4
 585 524 537 495 537 434 c 4
 537 398 553 385 553 385 c 5
 517 398 l 5
 533 411 l 5
 562 421 591 426 621 426 c 4
 728 426 830 355 830 205 c 4
 830 69 747 -24 623 -24 c 4
 523 -24 450 32 446 135 c 5
 446 134 447 134 449 134 c 4
 455 134 468 136 474 136 c 4
 476 136 477 136 477 135 c 4
 470 53 408 -23 288 -23 c 4
 135 -23 56 78 55 205 c 4
=======
Width: 856
VWidth: -24
Flags: HMW
AnchorPoint: "si_hal" 696.004 536 basechar 0
LayerCount: 3
Back
SplineSet
619.331054688 497 m 0
 564.297851562 496.932617188 516.450195312 467.916992188 516.450195312 406.686523438 c 0
 516.450195312 370.279296875 532.00390625 358 532.00390625 358 c 1
 496.00390625 371 l 1
 512.00390625 384 l 1
 540.548828125 393.658203125 570.609375 398.572265625 600.201171875 398.572265625 c 0
 707.694335938 398.572265625 809.00390625 327.977316317 809.00390625 178 c 0
 809.00390625 41.892578125 726.3125 -51 602.00390625 -51 c 0
 502.381835938 -51 428.90625 5 425.00390625 108 c 1
 424.581054688 107.366210938 425.810546875 107.133789062 427.994140625 107.133789062 c 0
 433.959960938 107.133789062 447.046875 108.866210938 453.012695312 108.866210938 c 0
 455.196289062 108.866210938 456.426757812 108.633789062 456.00390625 108 c 0
 449.033203125 26.4521484375 387.41015625 -50.0048828125 267.170898438 -50.0048828125 c 4
 114.415687466 -50.0048828125 35.3857421875 50.4091796875 34 177.602539062 c 4
 32 361.233398438 150.5 459.723632812 280.00390625 464 c 0
 298.721679688 464.618164062 318.2734375 462.861328125 335.00390625 459 c 1
 339.646484375 445.506835938 335.203125 422.823242188 327.00390625 411 c 1
 311.58984375 415.65234375 298.706122437 418.723632812 282.352539062 418.723632812 c 0
 186.597315137 418.723632812 94.982421875 365.325195312 92.982421875 225.434570312 c 0
 91.5768355963 127.120398801 154.057617188 57 266.125976562 57 c 0
 343.84765625 57 416.770507812 94.0673828125 419.00390625 197 c 1
 424.307617188 199.543945312 443.500976562 205.254882812 458.00390625 202 c 1
 458.00390625 104.301757812 524.532226562 57 611.00390625 57 c 0
 698.963867188 57 748.018554688 128.87890625 749.018554688 201.9921875 c 0
 749.987075523 272.803923759 704.260742188 357.3828125 592.330078125 357.3828125 c 0
 563.478515625 357.3828125 530.165039062 351.846679688 492.00390625 339 c 1
 487.001953125 357.750976562 481.6953125 377.517578125 481.6953125 408.8359375 c 0
 481.6953125 507.3828125 560.498046875 566.94921875 644.267578125 567 c 0
 715.37109375 567 781.00390625 531.901367188 781.00390625 452 c 0
 781.00390625 356 688.00390625 330 688.00390625 330 c 1
 663.00390625 347 l 1
 663.00390625 347 715.010742188 361.586914062 715.010742188 421.00390625 c 0
 715.010742188 468.297851562 669.942382812 497 619.331054688 497 c 0
EndSplineSet
Fore
SplineSet
619.331054688 497 m 0
 564.297851562 496.932617188 516.450195312 467.916992188 516.450195312 406.686523438 c 0
 516.450195312 370.279296875 532.00390625 358 532.00390625 358 c 1
 496.00390625 371 l 1
 512.00390625 384 l 1
 540.548828125 393.658203125 570.609375 398.572265625 600.201171875 398.572265625 c 0
 707.694335938 398.572265625 809.00390625 327.977316317 809.00390625 178 c 0
 809.00390625 41.892578125 726.3125 -51 602.00390625 -51 c 0
 502.381835938 -51 428.90625 5 425.00390625 108 c 1
 424.581054688 107.366210938 425.810546875 107.133789062 427.994140625 107.133789062 c 0
 433.959960938 107.133789062 447.046875 108.866210938 453.012695312 108.866210938 c 0
 455.196289062 108.866210938 456.426757812 108.633789062 456.00390625 108 c 0
 449.033203125 26.4521484375 387.41015625 -50.0048828125 267.170898438 -50.0048828125 c 4
 114.415687466 -50.0048828125 35.3857421875 50.4091796875 34 177.602539062 c 4
 32 361.233398438 150.5 459.723632812 280.00390625 464 c 0
 298.721679688 464.618164062 318.2734375 462.861328125 335.00390625 459 c 1
 339.646484375 445.506835938 335.203125 422.823242188 327.00390625 411 c 1
 311.58984375 415.65234375 298.706122437 418.723632812 282.352539062 418.723632812 c 0
 186.597315137 418.723632812 94.982421875 365.325195312 92.982421875 225.434570312 c 0
 91.5768355963 127.120398801 154.057617188 57 266.125976562 57 c 0
 343.84765625 57 416.770507812 94.0673828125 419.00390625 197 c 1
 424.307617188 199.543945312 443.500976562 205.254882812 458.00390625 202 c 1
 458.00390625 104.301757812 524.532226562 57 611.00390625 57 c 0
 698.963867188 57 748.018554688 128.87890625 749.018554688 201.9921875 c 0
 749.987075523 272.803923759 704.260742188 357.3828125 592.330078125 357.3828125 c 0
 563.478515625 357.3828125 530.165039062 351.846679688 492.00390625 339 c 1
 487.001953125 357.750976562 481.6953125 377.517578125 481.6953125 408.8359375 c 0
 481.6953125 507.3828125 560.498046875 566.94921875 644.267578125 567 c 0
 715.37109375 567 781.00390625 531.901367188 781.00390625 452 c 0
 781.00390625 356 688.00390625 330 688.00390625 330 c 1
 663.00390625 347 l 1
 663.00390625 347 715.010742188 361.586914062 715.010742188 421.00390625 c 0
 715.010742188 468.297851562 669.942382812 497 619.331054688 497 c 0
>>>>>>> 9091ca3d42bc76a5da6ebc1602c27821778b9009
EndSplineSet
EndChar

